<?xml version="1.0" encoding="utf-8"?>
<!-- Generator: Adobe Illustrator 24.1.0, SVG Export Plug-In . SVG Version: 6.00 Build 0)  -->
<svg version="1.1" id="Layer_1" xmlns="http://www.w3.org/2000/svg" xmlns:xlink="http://www.w3.org/1999/xlink" x="0px" y="0px"
	 viewBox="0 0 445.7 292.7" style="enable-background:new 0 0 445.7 292.7;" xml:space="preserve">
<style type="text/css">
	.st0{fill:#E3E0DA;}
	.st1{fill:#8B5E41;}
	.st2{fill:#333333;}
</style>
<g>
	<path class="st0" d="M288.9,100.1c-0.1-0.5-0.2-1-0.3-1.5c-0.2-1.1-0.5-2.1-0.3-3.1c0.2-1,0-2-0.1-2.9c0-0.2-0.1-0.5-0.1-0.7
		c-0.2-1.2-0.6-2.2-1.1-3.2c-0.4-0.8-0.7-1.5-0.9-2.3c-0.6-2.7-2.3-4.4-3.9-5.7l-0.4-0.3c-2-1.6-4-3.3-6.7-3.7
		c-0.7-0.1-1.5-0.3-2.2-0.4c-1.3-0.3-2.6-0.5-4-0.6c-0.9,0-1.8,0-2.7,0c-2,0-3.9,0.1-5.5-0.4l-0.1,0c-1.5,0-2.5,0-3.5,0.2
		c-4.1,0.8-7.6,2.4-10.8,4.8c-3.5,2.7-5.4,5.5-6.1,9.3c-0.1,0.4-0.2,0.9-0.3,1.3c-0.3,1.4-0.6,2.9-0.5,4.4c0,0.2,0,0.4-0.1,0.6
		c0,0.2-0.1,0.3-0.1,0.5l-0.1,0.9c-0.5,3.4-1,6.9,0.2,10.3c0.2,0.5,0.2,1,0,1.6c-0.4,1.3-0.3,2.6-0.3,3.9c0,1.9,0,3.7-0.1,5.6
		c-0.1,2.6-0.1,5.2,0,7.8c0.1,1.5,0,3.1,0,4.6c-0.1,2.2-0.2,4.4,0.2,6.6c1.1,6.3,3.7,11.2,8.1,14.9c1,0.9,1.9,1.4,3,1.6
		c0.7,0.2,1.2,0.4,1.7,0.8c1.1,0.9,2.5,1.3,4.3,1.3c1.1,0,2.1,0.1,3.2,0.1c1.2,0.1,2.5,0.2,3.8,0.1c0.8,0,1.6,0,2.4,0
		c0.6,0,1.1,0,1.7,0c3.3,0,6.6-0.3,9.6-2.6c4-0.8,6-3.7,7.4-6.1c0.3-0.6,0.7-1.1,1.1-1.7c1-1.4,2.1-2.8,1.9-4.8c0,0,0.1-0.2,0.1-0.2
		l0.1-0.1c0.8-1.8,1.5-3.7,0.9-6c-0.1-0.4,0-0.9,0.1-1.3l0.1-0.3c0.1-0.6,0.2-1.4,0.1-2.3c-0.2-1.1-0.1-2.2,0-3.4
		c0.1-0.8,0.1-1.7,0.1-2.5c0-0.7,0-1.4,0-2.2c0.1-1.3,0.1-2.6-0.2-3.9c-0.3-1.3-0.3-2.6,0-3.5c0.6-1.9,0.4-3.7,0.1-5.5l-0.1-0.9
		c-0.2-1.4-0.4-2.8,0.1-4.1C289.2,103.4,289.1,101.6,288.9,100.1z M253.8,152.7c-2.8-0.8-5.1-2.4-6.8-4.6c-2.1-2.7-3.7-5.2-4.4-8h0
		c0-0.1-0.1-0.2-0.1-0.3c0,0,0-0.1-0.1-0.1c0,0,0,0,0,0c0.2-1.7,0-3.4-0.2-5c-0.2-1.6-0.4-3.2-0.2-4.8c0.5-4.2,0.5-7.8-0.1-11.2
		c-0.1-0.9,0-1.8,0.1-2.8c0.1-0.4,0.1-0.9,0.1-1.3c0.1-0.9,0-1.8-0.1-2.7c0-0.7-0.1-1.3-0.1-1.9c0-1.9-0.1-3.8-0.1-5.7
		c-0.2-3.7-0.4-7.6,0.5-11.3c0.5-2.1,1.2-4.8,2.8-7c2.6-3.4,5.1-5.3,7.9-6.2c2.4-0.7,4.6-1,6.6-0.9c0.6,0,1.2-0.1,1.8-0.2
		c0.5-0.1,0.9-0.2,1.3-0.2c4.2-0.1,7.6,0.3,10.8,1.1c2,0.5,3.7,1.6,5.3,2.8c0.7,0.5,1.4,0.9,2.1,1.4c0.7,0.4,1.2,1.1,1.6,2.3
		c0.9,2.3,1.5,4.7,2.1,7.1c0.3,1,0.5,2,0.8,3c0.1,0.3,0,0.5-0.1,0.8c-0.1,0.2-0.1,0.4-0.2,0.5c-0.2,0.8-0.1,1.6,0,2.5
		c0,0.2,0.1,0.3,0.1,0.5c0.1,0.2,0.1,0.4,0.1,0.6c-0.2,1.9-0.1,3.9-0.1,5.8c0,2.4,0.1,4.9-0.3,7.3c-0.1,0.8-0.1,1.6,0,2.4
		c0,0.5,0.1,1,0.1,1.4c0.2,2.3,0.4,4.7,0.1,7c-0.3,2.6-0.3,5.2,0.1,7.7c0.3,2.2,0.2,3.9-0.5,5.5c-0.3,0.8-0.6,1.6-0.8,2.4
		c-0.2,0.5-0.3,1.1-0.5,1.6c-0.6,1.7-1.6,3-2.9,4.6c-4.5,5.7-11,6.4-16.7,6.6c-0.4,0-0.9,0-1.2,0l-0.5,0
		C259.6,153.6,256.6,153.5,253.8,152.7z"/>
	<path class="st0" d="M203.9,77.2c-0.5-0.8-1-0.9-1.4-0.9c-0.3,0-0.8,0.2-1.2,1c-0.2,0.5-0.4,1-0.4,1.4c0,0.5,0,1,0,1.6
		c-0.1,1.3-0.2,2.6,0.4,4c0.3,0.7,0.2,1.5-0.1,2.6c-0.6,1.9-0.4,3.7-0.2,5.2c0.1,0.9,0.2,1.8,0.2,2.9c0,1-0.1,2-0.1,2.9
		c-0.1,1.8-0.3,3.7,0.2,5.5c0.1,0.2,0,0.5-0.2,0.9c-0.6,1.6-0.5,3.3-0.2,4.8c0.2,1.1,0.2,2.2,0.2,3.7c0,0.6-0.1,0.9-0.2,1
		c-0.1,0.1-0.3,0.1-1,0c-1.2-0.3-2.3-0.2-3.4-0.1c-0.5,0-1,0-1.5,0c-0.5,0-1,0-1.4,0c-1.7-0.1-3.5-0.1-5.3,0.6c0,0,0,0-0.1,0l-0.1,0
		c-2.5-0.6-5.1-0.6-7.5-0.7c-0.6,0-1.2,0-1.9,0c-2.4-0.1-4.8,0-7.1,0.2c-2.7,0.1-5.6,0.3-8.3,0.1c-1-0.1-1.2-0.4-1.2-1
		c-0.1-0.5,0-1.1,0-1.6c0.3-5.8,0.4-11.5,0.3-17c0-0.6,0-1.3-0.1-1.9c-0.1-1.6-0.2-3.2,0.2-4.7c0.5-1.7,0.1-3.3-0.2-4.8
		c-0.3-1.5-0.6-2.8-0.2-4.2c0.1-0.3,0-0.6-0.1-0.8l0-0.1c-0.2-0.6-0.7-0.9-1.3-0.9c-0.6,0-1,0.5-1.1,1.1c-0.1,0.5-0.2,1.1-0.3,1.6
		c-0.4,2.1-0.8,4.2-0.2,6.5c0.4,1.8,0.6,3.9,0.4,6c-0.4,5-0.5,10.2-0.4,15.8c0.1,2.4,0.1,4.8,0.1,7.1c0,4.5,0.1,9.1,0.3,13.6
		c0,0.6,0.1,1.2-0.1,1.7c-0.4,1.5-0.4,3-0.4,4.4c0,1.3,0,2.5-0.3,3.7c-0.1,0.4,0,0.7,0,1l0,0.2c0.5,3.9,0.6,8.1,0.1,13.4
		c-0.1,1.1,0.1,1.9,0.5,2.4c0.3,0.3,0.6,0.4,1,0.4c0,0,0,0,0,0c1.7,0,1.8-1.5,1.8-2.3l0-0.2c0.1-1,0.1-1.9,0-2.9c0-0.4,0-0.8,0-1.2
		c0.4-1.6,0.2-3.1,0.1-4.7c-0.1-1.2-0.2-2.5-0.1-3.7c0.2-1.6,0.1-3.3,0-4.9c-0.1-1.1-0.1-2.2-0.1-3.3c0.1-4.4,0-8.8-0.2-13.1l-0.1-2
		c0-0.5,0.1-0.7,0.1-0.8c0.1-0.1,0.4-0.1,0.8-0.1c2.8,0.1,5.7,0.1,8.4,0c3.9-0.1,7.8-0.1,11.7,0.3c0.8,0.1,1.6,0,2.3-0.2
		c2.2-0.6,4.5-0.4,6.8-0.2c0.9,0.1,1.9,0.2,2.8,0.2c0.3,0,0.6,0,0.9,0c1.2,0.1,2.5,0.1,3.8-0.3c0.9-0.3,1.2-0.2,1.3-0.1
		c0.1,0.1,0.2,0.3,0.2,1.2c0,0.4-0.1,0.7-0.1,1c-0.2,2-0.5,4.1,0.3,6.2c0,0,0,0.1,0,0.2c0,0.1,0,0.2,0,0.3c0,1.5-0.1,3-0.2,4.5
		c-0.2,3-0.3,6.2,0.1,9.2c0.1,1,0,2-0.1,3.1c-0.1,1-0.2,2-0.1,3c0.2,2.4,0.2,4.8,0.2,7.5c0,0.6,0.1,1.1,0.2,1.8
		c0.1,0.6,0.6,1,1.1,1.1c0.6,0.1,1-0.3,1.3-0.9c0.2-0.6,0.3-1.3,0.4-2c0.3-2.3,0.3-4.7,0.2-7c0-2.1-0.1-4.3,0.2-6.4
		c0.1-0.7-0.1-1.3-0.2-1.9c-0.1-0.6-0.3-1.2-0.2-1.8c0.4-2,0.3-4,0.1-6c0-0.6-0.1-1.1-0.1-1.7c-0.2-3.2-0.1-6.5,0-9.7
		c0.1-3.5,0.3-7.2,0-10.8c0-0.4,0.1-0.8,0.2-1.3c0-0.2,0.1-0.3,0.1-0.5c0.1-0.6,0.2-1.3,0.1-2.1c-0.7-3.3-0.4-6.8-0.1-10.1l0-0.5
		c0.2-1.9,0.3-4.1,0-6.4c-0.2-1.7-0.2-3.2,0.1-4.6C204.8,80.5,204.9,78.8,203.9,77.2z"/>
	<path class="st0" d="M361.4,95.3c-0.1-0.6-0.1-1.2-0.2-1.7c-0.1-1-0.3-1.8-0.3-2.8c0.1-4.5-2.4-7.6-5.5-10.8
		c-0.6-0.6-1.4-0.8-2-0.9c-0.5-0.1-0.9-0.2-1.3-0.5c-2.3-1.7-4.9-2-8.1-2.1c-1.4,0-2.7-0.1-4.1-0.2c-2.6-0.1-5.3-0.3-7.9,0
		c-2.2,0.2-4,0.2-5.7-0.3c-1.4-0.4-2.2,0-2.6,0.3c-0.3,0.3-0.7,0.8-0.7,1.7c0,1.3-0.1,2.7-0.2,4c-0.2,1.7-0.4,3.5-0.2,5.3
		c0.5,4.1,0.8,8.5,0.1,13c-0.1,0.6,0,1.2,0,1.8l0,0.3c0.4,3.9,0.3,7.9,0.1,11.7c0,1,0,1.9,0,2.8c0,1,0.1,2,0,3
		c-0.1,1.4-0.2,2.9,0,4.4c0.2,2.4,0.4,4.7-0.2,6.9c-0.2,0.8-0.2,1.6,0.1,2.4c0.2,0.4,0.3,0.8,0.2,1.1c-0.6,3.5-0.6,7.1,0.1,11l0,0.2
		c0.1,0.4,0.2,0.9,0.1,1.2c-0.6,1.5-0.5,3-0.3,4.4c0.1,0.8,0.2,1.6,0.1,2.4c0,0.3,0,0.6,0.2,1c0.3,0.6,0.8,1,1.4,1c0,0,0,0,0.1,0
		c0.5,0,1-0.4,1.2-1c0.6-1.5,0.7-2.8,0.4-4c-0.4-1.6-0.4-3.2-0.2-5.1c0.1-1.6,0.2-3.2-0.4-4.7c-0.1-0.4,0-0.9,0.1-1.4l0-0.2
		c0.5-2.2,0.5-4.5,0.4-6.7l0-1.2c0-0.4,0-0.8,0-0.9c0.1-0.1,0.7,0,1.1,0c0.5,0,1.1,0.1,1.7,0.2c1.1,0.2,2.3,0.4,3.5,0
		c0.9-0.3,1.8-0.3,2.9-0.2c1.9,0.3,3.8,0.1,5.6-0.1c0.6-0.1,1.2-0.1,1.9-0.2l0.5,0c0.9-0.1,1.8-0.1,2.7,0c5.8,0.2,10.1-2.3,12.8-7.6
		c1.8-3.5,2.7-7.1,2.5-10.6c-0.1-2.5,0-5,0.1-7.5C361.5,101.7,361.7,98.5,361.4,95.3z M358.2,107.6c0.2,0.6,0.2,1.2,0,1.9
		c-0.2,0.6-0.2,1.1-0.1,1.5c0.8,3.1-0.3,5.8-1.5,8.7c-0.2,0.4-0.3,0.8-0.5,1.2c-2.1,5.1-6.4,6.1-10.6,6.5c-0.7,0.1-1.4,0.1-2.1,0.1
		c-1.2,0-2.4,0.1-3.6,0.3c-1.7,0.3-3.5,0.3-5.9,0c-0.6-0.1-1.2-0.1-1.8-0.1c-0.8,0-1.5,0-2.2,0.1c-0.6,0-1.2,0.1-1.9,0.1
		c-0.8,0-1.5,0-1.7-0.2c-0.2-0.2-0.2-1-0.2-1.8c0.1-1.6,0-3.3,0-4.8l0-0.7c-0.2-2.5-0.1-5,0-7.5c0.1-1.9,0.2-3.9,0.1-5.9
		c-0.1-5-0.1-10.1-0.1-15c0-2.3,0-4.5,0-6.8c0-1.5-0.1-2.9-0.4-4.3c-0.1-0.7-0.1-1,0-1c0.1-0.1,0.5-0.2,1.1-0.1c1.1,0,2.2,0,3.2-0.1
		c0.8,0,1.6-0.1,2.4-0.1c1.1,0,2.3-0.1,3.4-0.1c3.6-0.1,7.4-0.3,11,0.7c0.4,0.1,0.8,0.2,1.2,0.1c2.4-0.3,4.1,1.1,5.7,2.6
		c1.2,1.1,2.2,2.5,3.2,4.2c0.7,1.3,1.6,9.7,1.2,10.9c-0.5,1.4-0.3,2.6,0,3.6c0.4,1.5,0.5,2.7,0.1,3.8
		C357.9,106.2,357.9,107,358.2,107.6z"/>
	<path class="st0" d="M123.4,131.6c-0.1-2.7-1.2-4.9-3.7-7c-0.5-0.5-1.1-0.9-1.6-1.4c-0.6-0.5-1.1-1-1.7-1.5
		c-5.3-4.5-10.6-7.8-16-9.8c-0.8-0.3-1.7-0.7-2.5-1.2c-0.7-0.4-1.5-0.8-2.2-1.1c-2.9-1.2-5.7-2.3-8-4.4c-0.3-0.3-0.7-0.6-1.1-0.9
		c-0.5-0.4-1-0.7-1.4-1.2c-0.3-0.3-0.5-0.6-0.7-0.9c-0.6-0.8-1.3-1.7-2.4-2.2C82,100,82,99.7,82,99.6c-0.1-1-0.3-2-0.6-2.9
		c-0.4-1.9-0.9-3.6-0.4-5.5c0.5-2.3,1.2-4.5,3.1-6.1c3.5-2.8,6.5-5,10.5-5.7c1.2-0.2,2.5-0.3,3.8-0.4c1.5-0.1,3-0.2,4.5-0.5
		c0.4-0.1,0.8,0.1,1.3,0.3c0.6,0.3,1.3,0.6,2.2,0.6c2.7,0.1,4.8,1.7,6.5,3.2c0.9,0.8,1.8,1.6,2.6,2.5c0.7,0.7,1.4,1.4,2.1,2
		c0.4,0.4,1,0.8,1.7,0.8c0.4,0,0.8-0.2,1.1-0.6c0.3-0.4,0.4-0.8,0.4-1.2c-0.1-0.7-0.6-1.1-1-1.5c-0.9-0.7-1.8-1.5-2.6-2.6
		c-3-3.6-7-5.6-11.8-6.1c-4-0.4-8.5-0.8-13,0.7l-0.4,0.1c-3.5,1.1-6.7,2.2-9.2,5.1c-0.2,0.3-0.5,0.5-0.8,0.8
		c-0.2,0.2-0.5,0.4-0.7,0.7c-2.5,2.7-3.2,6.1-3.4,8.7c-0.5,4.5,0.4,7.8,2.8,10.4c0.1,0.1,0.1,0.2,0.2,0.3l0.1,0.1
		c1,2.1,2.6,3.7,4.8,4.8c0.9,0.5,1.8,1,2.7,1.6c1.7,1.1,3.5,2.3,5.6,2.6c0.1,0,0.3,0.1,0.4,0.3c0.2,0.1,0.3,0.2,0.5,0.3
		c0.9,0.4,1.7,1,2.6,1.5c1.2,0.8,2.5,1.5,3.9,2.1c4.3,1.7,8.6,4.1,13.6,7.7c0.4,0.3,0.8,0.6,1,0.9c0.6,1,1.3,2,1.9,2.9
		c0.8,1.1,1.7,2.3,2.3,3.6c0.9,1.8,1.3,3.2,1.2,4.6c-0.2,2.1-0.5,3.8-0.8,5.2c-0.9,3.5-2.5,6.2-4.8,8.2c-5.1,4.4-11.1,5.9-17.6,4.4
		c-4.9-1.2-8.4-2.6-11.6-4.8c-2.2-1.5-3.4-2.8-4.3-4.6c-0.3-0.6-0.6-1-0.9-1.3c-0.7-0.7-1.6-0.7-2.4-0.1c-0.7,0.6-0.9,1.4-0.3,2.1
		c0.3,0.5,0.7,1.1,1.2,1.6l0.3,0.3c0.6,0.6,1.2,1.3,1.6,2c0.7,1.3,1.9,2.3,3.4,3c0.8,0.3,1.6,0.8,2.4,1.3c0.7,0.5,1.5,0.9,2.3,1.3
		c2.4,1,5.2,2.2,8,2.5l0.3,0c1.5,0.2,3.3,0.5,4.8,0.3c0.4,0,0.7,0,1,0c0.3,0,0.5,0,0.8,0c0.3,0,0.7,0,1-0.1c0.8-0.2,1.6-0.4,2.4-0.5
		c2-0.4,4.1-0.8,5.7-2.4c0,0,0.1,0,0.2,0c0.1,0,0.1,0,0.2,0c3-0.7,4.7-2.9,5.8-4.8c0.3-0.5,0.5-1,0.8-1.6c0.4-0.8,0.7-1.5,1.1-2.1
		c1.5-2,1.7-4.2,1.9-6.4c0.1-1.2,0.2-2.4,0.6-3.5c0.1-0.5,0-1.1-0.3-1.4C123.5,133.6,123.5,132.6,123.4,131.6z"/>
</g>
<g>
	<path class="st0" d="M125.8,103.7c0.2,0.5,0.8,0.6,1.3,0.4c0.6-0.2,0.9-0.7,1-1.2c0-0.8-0.6-1.1-1.2-1.3c-1-0.4-1.8-1-2.4-1.9
		c-0.4-0.5-0.9-0.9-1.4-1.3c-0.3-0.2-0.6-0.4-1-0.2c-0.4,0.3-0.4,0.7-0.4,1.1c0.1,0.6,0.5,1,0.9,1.4
		C123.8,101.7,125.1,102.3,125.8,103.7z"/>
	<path class="st0" d="M119,100c-0.5,0-0.8,0.2-1,0.6c-0.2,0.5,0.1,1,0.5,1.3c1.5,1,3,2,3.9,3.7c0.3,0.5,0.8,0.9,1.4,0.4
		c0.5-0.5,0.5-1,0-1.5c-1.2-1.3-2.3-2.6-3.5-3.8C120,100.2,119.5,100,119,100z"/>
	<path class="st0" d="M172.9,75.2c1.6,1.2,3,2.5,3.9,4.3c0.3,0.5,0.8,0.5,1.3,0.2c0.5-0.2,0.8-0.6,0.8-1.1c-0.1-0.5-0.5-0.7-0.8-0.9
		c-1.4-1.1-3-2-3.8-3.7c-0.3-0.6-0.8-0.6-1.2-0.2C172.6,74.2,172.3,74.8,172.9,75.2z"/>
	<path class="st0" d="M339.7,100.4c0.1,0.1,0.4,0.2,0.5,0.1c0.3-0.2,0.4-0.5,0.3-1c0-0.2-0.1-0.5-0.2-0.7c-0.3-1.9-1.9-2.7-3.1-3.8
		c-0.3-0.3-0.7-0.9-1.2-0.5c-0.4,0.3-0.2,0.9,0,1.4C336.8,97.7,338.4,99,339.7,100.4z"/>
	<path class="st0" d="M134.3,99.1c0.4-0.3,0.4-0.8,0.1-1.1c-1.3-1.4-2.4-2.9-4-4c-0.2-0.1-0.4-0.2-0.5-0.2c-0.4,0-0.7,0.2-0.9,0.6
		c-0.2,0.5,0,1,0.3,1.3c1.3,1.1,2.7,2.3,4,3.4C133.6,99.3,133.9,99.4,134.3,99.1z"/>
	<path class="st0" d="M218.6,130.3c0-0.4,0-0.8-0.3-1.1c-1.1-1.2-2.3-2.4-3.5-3.6c-0.1-0.1-0.4-0.2-0.6-0.2
		c-0.3,0.1-0.2,0.4-0.2,0.7c0.1,2.2,1.9,3.4,3,4.9c0.2,0.3,0.5,0.8,1,0.7C218.6,131.5,218.6,130.9,218.6,130.3z"/>
	<path class="st0" d="M202.8,166.2c-0.1-0.1-0.3-0.1-0.4-0.1c-0.4,0-0.4,0.3-0.4,0.6c0.4,1.4,3.8,4,5.3,4.1c0.4,0,0.7,0,0.9-0.4
		c0.1-0.4-0.1-0.7-0.3-0.9C206.4,168,204.7,166.9,202.8,166.2z"/>
	<path class="st0" d="M123.5,162.9c-0.2-0.1-0.5-0.2-0.7-0.3c-0.9,0-1.2,0.5-0.8,1.2c0.8,1.4,2.1,2.4,3.1,3.6c0.4,0.4,0.9,0.3,1.3,0
		c0.5-0.4,0.6-1,0.2-1.5C125.7,164.8,124.7,163.7,123.5,162.9z"/>
	<path class="st0" d="M172.9,168.7c-0.4-0.5-1-0.8-1.4-1.3c-0.7-0.7-1.4-1.3-2.6-1c-0.4,0.1-1.1-0.5-1.3,0.2
		c-0.1,0.5,0.5,0.8,0.9,1.1c1.1,0.8,2.2,1.7,3.4,2.4c0.6,0.4,1.6,1.2,2.2,0.4C174.5,169.8,173.4,169.2,172.9,168.7z"/>
	<path class="st0" d="M129.5,163.1c-1.3-0.8-2.5-1.6-3.2-3c-0.1-0.3-0.2-0.8-0.7-0.5c-0.4,0.2-0.6,0.5-0.8,1.1
		c0.1,0.2,0.2,0.6,0.4,0.8c1.3,1.1,2.5,2.2,3.4,3.7c0.2,0.4,0.6,0.3,0.9,0.1C130.6,164.7,130.6,163.8,129.5,163.1z"/>
	<path class="st0" d="M367.8,131c-0.1-0.1-0.2-0.1-0.3-0.1c-0.3-0.1-0.5,0-0.6,0.2c-0.6,0.7-0.8,1.4,0,2.2c1,1.1,2.3,1.8,3.4,2.7
		c0.3,0.3,0.6,0.7,1,0.2c0.3-0.3,0.4-0.8,0.1-1.2C370.2,133.6,369,132.3,367.8,131z"/>
	<path class="st0" d="M179.7,130.5c-0.7-0.4-1.1-1.1-1.5-1.7c-0.9-1.3-2.2-1.8-3.6-2.2c-0.3,0-0.5,0-0.5,0.3c0,0.2,0.1,0.4,0.2,0.5
		c1,0.7,1.6,1.7,2.4,2.7c0.6,0.8,1.6,1.2,2.5,1.5c0.4,0.1,0.9,0.3,1.2-0.1C180.6,130.9,180.1,130.7,179.7,130.5z"/>
	<path class="st0" d="M218.1,106.7c-1.1-0.9-2-2.2-2.9-3.3c-0.3-0.3-0.5-0.8-1-0.6c-0.5,0.2-0.3,0.7-0.4,1c0,0.7,0.1,1.3,0.7,1.7
		c0.8,0.4,1.2,1.1,1.7,1.8c0.3,0.4,0.8,0.8,1.2,1.1c0.3,0.2,0.6,0.4,0.9,0.1c0.3-0.3,0.2-0.6,0.2-1
		C218.6,107.3,218.4,106.9,218.1,106.7z"/>
	<path class="st0" d="M340.2,160.9c0.3-0.9-0.3-1.5-0.9-1.9c-0.7-0.6-1.4-1.1-2.2-1.6c-0.4-0.2-0.6-1-1.2-0.5
		c-0.4,0.4-0.5,1-0.3,1.6c0.2,0.5,0.5,1,1,1.3c1,0.7,2.1,1.3,2.9,2.3c0.5,0.6,0.4,0,0.4-0.3C340.1,161.4,340.2,161.2,340.2,160.9z"
		/>
	<path class="st0" d="M176.9,133.8c-0.1-0.9-0.6-1.7-1.3-2.3c-1-0.8-2.2-1.5-3-2.6c-0.2-0.2-0.5-0.3-0.7-0.1
		c-0.2,0.2-0.2,0.5-0.1,0.8c1.1,1.9,2.3,3.6,4,5C176.6,135.1,176.9,134.6,176.9,133.8z"/>
	<path class="st0" d="M218.6,118.7c0-0.7-0.5-1.2-1.1-1.4c-1-0.5-1.7-1.1-2.2-2.2c-0.2-0.4-0.3-0.9-0.9-0.6
		c-0.5,0.2-0.3,0.7-0.4,1.2c0.1,1.9,1.7,2.8,3,3.9c0.3,0.3,0.7,0.6,1.1,0.4C218.8,119.7,218.6,119.1,218.6,118.7z"/>
	<path class="st0" d="M214.1,121.7c0.8,1.6,2.1,2.9,3.3,4.2c0.1,0.1,0.4,0.2,0.5,0.2c0.3-0.1,0.2-0.5,0.2-0.8c0-0.2-0.1-0.6-0.2-0.9
		c-0.5-1.9-2.3-2.9-3.4-4.4c-0.2-0.3-0.7-0.1-0.8,0.3C213.8,120.8,213.9,121.3,214.1,121.7z"/>
	<path class="st0" d="M343.8,141.5c-0.6-0.2-1.5-0.7-1.9,0c-0.3,0.5,0.7,0.7,0.9,1.2c0.5,0.8,1.1,1.6,1.8,2.3c0.5,0.5,1,0.8,1.7,0.7
		c0.3-0.2,1.5,0.2,0.9-0.7C346.4,143.6,345.6,142,343.8,141.5z"/>
	<path class="st0" d="M218.3,78.5c-1-0.8-2.3-1.3-3-2.5c-0.2-0.3-0.4-0.6-0.8-0.4c-0.4,0.2-0.2,0.6-0.2,1c0.5,2,2.2,3.1,3.7,4.4
		c0.4,0.3,1.3-0.5,1.3-1.2C219.2,79.1,218.7,78.8,218.3,78.5z"/>
	<path class="st0" d="M178.7,169.1c-1-0.5-1.3-1.6-2-2.3c-0.6-0.7-1.3-1.3-2.1-1.6c-0.5,0-0.9,0.2-1.1,0.6c-0.2,0.2-0.2,0.5,0.1,0.7
		c1.4,1.2,2.8,2.5,4.2,3.7c0.4,0.3,0.8,0.2,1.1-0.2C179,169.7,179,169.3,178.7,169.1z"/>
	<path class="st0" d="M369.9,127.6c-0.6-0.4-1-0.1-1.3,0.4c-0.4,0.7-0.1,1.3,0.5,1.6c1.3,0.6,2.3,1.5,3.1,2.7
		c0.2,0.3,0.5,0.4,0.8,0.6c0.4,0.1,0.7-0.1,0.8-0.5c0-0.1,0-0.3-0.1-0.4C372.5,130.5,371.6,128.7,369.9,127.6z"/>
	<path class="st0" d="M293.6,164.7c-1.3-0.7-2.3-1.8-3.2-3c-0.2-0.3-0.6-0.4-0.9-0.4c-0.4,0-0.9-0.1-1.1,0.4c-0.2,0.4,0,0.8,0.2,1
		c1.3,0.9,2.3,2.1,3.5,3.2c0.5,0.6,1.8,0,1.8-0.8C293.8,165.1,293.7,164.8,293.6,164.7z"/>
	<path class="st0" d="M342.6,145.6c0.2-0.4-0.2-0.6-0.4-0.9c-1.2-1.1-2.9-1.8-3.7-3.4c-0.1-0.3-0.5-0.3-0.8-0.3
		c-0.6,0.1-1.2,0.4-0.7,1.2c1.1,1.8,2.6,3.1,4.7,3.5C342,146,342.4,146,342.6,145.6z"/>
	<path class="st0" d="M100.7,93.8c0.5,0.6,1.2,1,1.8,0.4c0.6-0.6-0.1-1.1-0.4-1.6c-0.1-0.2-0.3-0.3-0.4-0.4c-1-0.7-2.2-1.2-2.6-2.6
		c0-0.1-0.3-0.2-0.6-0.4c-0.4,0.3-1,0.3-1.2,0.7c-0.3,0.5,0.1,0.8,0.5,1C99,91.7,99.9,92.7,100.7,93.8z"/>
	<path class="st0" d="M302.2,145.5c-0.9-0.4-1.3-1.2-1.9-1.8c-0.5-0.6-1.4-0.8-1.9-1.5c-0.4,0-0.5,0.2-0.6,0.5
		c-0.1,0.8,0,1.5,0.6,2.1c0.9,0.7,1.7,1.5,2.5,2.1c0.4,0.3,0.9,1,1.4,0.3C302.8,146.6,302.9,145.8,302.2,145.5z"/>
	<path class="st0" d="M353.1,144.3c-1.2-0.8-2.4-1.7-3.4-2.7c-0.4-0.4-0.9-0.4-1.5-0.4c-0.2,0-0.7-0.1-0.9,0.3
		c-0.3,0.5,0.2,0.8,0.5,1c1.2,1,2.7,1.5,3.6,2.9c0.3,0.4,0.9,0.2,1.4,0.2c0.3,0,0.6-0.1,0.7-0.4
		C353.7,144.7,353.4,144.4,353.1,144.3z"/>
	<path class="st0" d="M132.8,93.6c1.3,1,2.8,1.9,3.7,3.4c0.2,0.3,0.6,0.4,0.9,0.2c0.4-0.2,0.7-0.4,0.7-1.1c-0.1-0.1-0.2-0.4-0.4-0.6
		c-1.4-1-2.8-2-3.9-3.4c-0.4-0.5-0.9-0.1-1.3,0.2C132,92.9,132.4,93.3,132.8,93.6z"/>
	<path class="st0" d="M267.4,167.9c-0.4-0.1-0.9-0.4-1.2,0c-0.3,0.4,0.1,0.8,0.4,1.1c0.7,0.8,1.4,1.5,2.2,2.3
		c0.4,0.4,0.9,0.7,1.5,0.6c0.4-0.1,1,0,1.3-0.5c0.2-0.4-0.2-0.8-0.5-1.1C270,169.2,268.9,168.4,267.4,167.9z"/>
	<path class="st0" d="M180,126.5c-0.1-0.1-0.4,0-0.6,0.1c-0.2,0.2-0.1,0.4,0.1,0.5c1.3,0.8,1.9,2.1,3,3.2c0.6,0.7,1.2,1.1,1.7,0.9
		c0.8-0.1,1.3,0.2,1.6-0.2c0.1-0.1,0-0.4-0.1-0.5C184.1,128.8,182.2,127.4,180,126.5z"/>
	<path class="st0" d="M298.3,146.7c-0.1-0.2-0.4-0.3-0.7-0.1c-0.6,0.5-0.8,2-0.3,2.6c1,1.1,2.4,1.9,3.6,2.7c0.3,0.2,0.5,0.1,0.5-0.4
		c0-0.2,0-0.6-0.2-0.9C300.3,149.3,299,148.2,298.3,146.7z"/>
	<path class="st0" d="M265.4,94.3c0.6,0.5,1.3-0.1,2-0.2c0.2,0,0.3-0.2,0.3-0.4c0-0.3-0.3-0.5-0.5-0.6c-1.2-0.3-2-1.1-2.5-2.3
		c-0.4-0.7-1.2-1-2-0.9c-0.7,0-1.2,0.3-0.6,1C263.2,92.1,264.2,93.2,265.4,94.3z"/>
	<path class="st0" d="M217.7,147.9c0.2,0.3,0.5,0.1,0.6-0.2c0.2-0.6,0.6-1.2-0.1-1.7c-1.2-0.9-2.3-2.1-3.2-3.3
		c-0.2-0.2-0.4-0.4-0.7-0.4c-0.5,0.1-0.4,0.5-0.4,0.9c0.1,0.7,0.2,1.4,0.7,1.9C215.4,146.2,216.8,146.8,217.7,147.9z"/>
	<path class="st0" d="M176.2,162.9C176.2,162.9,176.2,162.9,176.2,162.9C176.2,162.9,176.2,162.9,176.2,162.9L176.2,162.9z"/>
	<path class="st0" d="M172.2,159.3c0.2,0.6,0.7,1.1,1.2,1.4c0.9,0.7,1.9,1.4,2.8,2.1c0.7-2,0.7-2-1.1-3c-0.7-0.4-1.2-0.9-1.7-1.5
		c-0.4-0.5-0.6-1.6-1.4-1.2C171.4,157.6,172,158.6,172.2,159.3z"/>
	<path class="st0" d="M265.2,170.5c-0.8-0.8-1.7-1.5-2.4-2.3c-0.6-0.6-1.3-0.7-2.1-0.5c-0.3,0.1-0.5,0.2-0.4,0.6
		c0.3,1,3.4,3.4,4.7,3.4c0.2,0,0.7,0,0.8-0.2C266.1,170.9,265.5,170.7,265.2,170.5z"/>
	<path class="st0" d="M139.2,138.3c-0.7-0.7-1.4-1.3-2.2-1.9c-0.3-0.3-0.7-0.9-1.2-0.3c-0.3,0.4-0.3,1.1,0.1,1.3
		c1.5,0.7,1.6,2.4,2.7,3.3c0.3,0.3,0.5,1,1.1,0.7c0.4-0.2,0.2-0.8,0.2-1.1C140.1,139.6,139.8,138.9,139.2,138.3z"/>
	<path class="st0" d="M130.1,101.7c0.6,0.2,0.9-0.1,1.1-0.6c0-0.1,0-0.3-0.1-0.4c-1.4-1.5-2.9-2.9-4.1-4.6c-0.4-0.5-0.9-0.2-1.1,0.3
		c-0.3,0.7-0.1,1.2,0.6,1.6c1.1,0.6,1.7,1.6,2.5,2.5C129.2,101,129.5,101.5,130.1,101.7z"/>
	<path class="st0" d="M115.7,166c-0.2-0.2-0.5-0.3-0.7-0.4c-0.5,0.2-0.9,0.2-1.2,0.6c-0.2,0.3,0,0.7,0.3,0.9c1.1,1,2.3,2.1,3.4,3.1
		c0.3,0.2,0.6,0.3,1,0.3c0.3,0,0.6,0,0.7-0.3c0.2-0.3,0-0.6-0.2-0.8C118,168.2,116.9,167.1,115.7,166z"/>
	<path class="st0" d="M339.1,147.7c-0.8-0.8-1.8-1.3-2.5-2.3c-0.1-0.2-0.3-0.6-0.6-0.4c-0.3,0.1-0.2,0.5-0.1,0.8
		c0.4,2.1,1.9,3.4,3.2,4.7c0.2,0.2,0.5,0.7,0.8,0.4c0.3-0.2-0.1-0.6,0.1-1.1C340.5,149,339.8,148.4,339.1,147.7z"/>
	<path class="st0" d="M374.5,126.8c-0.9-0.4-1.2-1.3-1.7-2c-0.4-0.5-0.8-1-1.2-1.4c-0.4-0.4-0.9-0.4-1.2,0.2
		c-0.4,0.8-0.5,1.6,0.4,1.9c1.4,0.6,2.2,1.6,3.1,2.7c0.2,0.3,0.5,0.6,0.8,0.4c0.2-0.1,0.2-0.5,0.2-0.6
		C375.1,127.4,375,127,374.5,126.8z"/>
	<path class="st0" d="M365.5,140.4c-1.4-0.8-2.2-2.1-3-3.4c-0.2-0.3-0.4-0.6-0.8-0.6c-0.4,0-0.6,0.3-0.8,0.6
		c-0.4,0.5-0.2,0.9,0.1,1.3c1,1.4,2.4,2.3,3.7,3.3c0.4,0.3,0.8,0.1,1.1-0.3C366,140.9,365.7,140.6,365.5,140.4z"/>
	<path class="st0" d="M285.8,163.2c-0.4-0.4-1,0.1-1.3,0.5c-0.5,0.5,0.1,0.6,0.4,0.9c0.9,0.9,1.8,1.8,2.7,2.7c0.4,0.4,0.9,0.9,1.6,1
		c0.4,0,0.7-0.1,0.9-0.5c0-0.1,0-0.2,0-0.2C288.6,166.1,287.3,164.6,285.8,163.2z"/>
	<path class="st0" d="M137.9,149c-1.2-0.8-2.3-1.6-2.5-3.2c0-0.3-0.3-0.6-0.7-0.6c-0.5,0.2-0.6,0.7-0.8,1.2
		c-0.3,0.6-0.2,1.1,0.4,1.4c1.3,0.7,2.2,1.7,3,2.9c0.2,0.3,0.5,0.7,1,0.4c0.4-0.3,0.4-0.7,0.3-1.1
		C138.6,149.5,138.3,149.2,137.9,149z"/>
	<path class="st0" d="M162.7,169.7c-1.4-0.8-2.7-1.7-3.5-3.2c-0.4-0.7-1.1-0.5-1.8-0.5c-0.2,0-0.5-0.1-0.7,0.2
		c-0.2,0.3,0.2,0.5,0.3,0.7c0.8,0.7,1.5,1.5,2.3,2.2c0.9,0.7,1.8,1.4,2.9,1.7c0.3,0.1,0.8,0.2,0.9-0.2
		C163.4,170.1,163,169.8,162.7,169.7z"/>
	<path class="st0" d="M198.5,166.2c-0.2-0.3-0.9-0.3-1.1-0.4c-0.6-0.1-0.9,0-1.1,0.3c-0.1,0.3-0.1,0.6,0.1,0.8
		c1.5,1.2,2.9,2.3,4.4,3.4c0.2,0.2,0.7,0.1,1,0.1c0.2,0,0.4,0.1,0.5-0.2c0-0.1-0.1-0.2-0.2-0.3C201,168.5,199.4,167.7,198.5,166.2z"
		/>
	<path class="st0" d="M372.2,101.6c-0.4-0.3-0.6,0.1-0.5,0.5c0.3,1.4,0.5,2.9,2.1,3.6c0.5,0.2,0.9,0.6,1.4,0.9
		c0.3,0.2,0.3,0.8,0.8,0.9c0.1-0.4,0.1-0.8,0.2-1.3c0-0.1,0-0.4-0.1-0.5C375.2,103.9,373.6,102.8,372.2,101.6z"/>
	<path class="st0" d="M209.9,166.2c-0.4-0.4-1.4,0-1.7,0.3c-0.5,0.6,0.4,0.9,0.7,1.2c0.8,0.8,1.6,1.5,2.5,2.2c0.5,0.4,1,0.7,1.7,0.8
		c0.3,0,0.6,0,0.6-0.4c0-0.1,0-0.2,0-0.2C212.4,168.8,211.2,167.4,209.9,166.2z"/>
	<path class="st0" d="M172.7,86.7c1,0.9,2,1.8,3.1,2.5c0.2,0.1,0.3,0.4,0.5,0.2c0.3-0.2,0.2-0.5,0.2-0.7c0-0.6,0-1.1-0.4-1.5
		c-1-1-2-2-3-2.9c-0.3-0.3-0.6-0.3-0.8,0.2C172.1,85.4,171.9,86.1,172.7,86.7z"/>
	<path class="st0" d="M295,155.1c-0.3-0.3-0.7-0.2-0.9,0.1c-0.2,0.3-0.4,0.6-0.1,1c1.2,1.4,2.3,2.8,3.9,3.8c0.6,0.4,0.9,0,1-0.6
		c0-0.1,0-0.3-0.1-0.4C297.5,157.7,296.3,156.4,295,155.1z"/>
	<path class="st0" d="M372.2,118.4c-0.2-0.3-0.5-0.2-0.7,0c-0.6,0.6-0.5,2.1,0.3,2.6c1.2,0.6,2.3,1.4,3,2.5c0.1,0.1,0.3,0.3,0.5,0.3
		c0.2,0,0.3-0.3,0.3-0.6c-0.1-0.3-0.2-0.7-0.3-1.1C374.7,120.5,373.1,119.7,372.2,118.4z"/>
	<path class="st0" d="M330.2,166.9c-0.6-1.1-1.7-1-2.8-1c-0.2,0-0.5,0.1-0.6,0.2c-0.2,0.3,0.1,0.5,0.3,0.7c0.9,0.7,2.1,1,2.7,1.9
		c0.8,1.4,2,1.7,3.5,1.7C332.2,169.3,330.9,168.3,330.2,166.9z"/>
	<path class="st0" d="M333.3,170.5L333.3,170.5C333.3,170.5,333.3,170.5,333.3,170.5C333.3,170.5,333.3,170.5,333.3,170.5z"/>
	<path class="st0" d="M366.5,135.6c-0.4-0.4-0.9-0.7-1.3-1c-0.5-0.3-1-0.2-1.3,0.2c-0.4,0.6,0.2,0.7,0.5,0.9c0.6,0.4,0.7,1,1.1,1.5
		c0.7,1,1.6,1.5,2.6,2c0.2-0.1,0.4-0.2,0.6-0.3c0.2-0.2,0.2-0.5,0-0.7C368,137.3,367.3,136.4,366.5,135.6z"/>
	<path class="st0" d="M217.4,153.8c0.2,0.2,0.4,0.5,0.7,0.4c0.2-0.1,0.2-0.5,0.3-0.6c0-0.8-0.1-1.4-0.6-1.9c-1-1.1-2.1-2-2.9-3.2
		c-0.1-0.2-0.4-0.5-0.7-0.2c-0.1,0.1-0.2,0.4-0.2,0.6c0.1,0.8,0.2,1.5,0.8,2.1C215.6,151.9,216.5,152.9,217.4,153.8z"/>
	<path class="st0" d="M217.8,94.8c-1.3-0.7-1.9-2.2-3.2-2.9c-0.9,2.5,0.7,3.7,2.4,4.9c0.4,0.3,0.9,0.9,1.4,0.5c0.5-0.4,0-1-0.2-1.6
		C218.2,95.3,218,94.9,217.8,94.8z"/>
	<path class="st0" d="M214.5,91.8C214.6,91.8,214.6,91.8,214.5,91.8C214.6,91.8,214.6,91.8,214.5,91.8L214.5,91.8z"/>
	<path class="st0" d="M176.6,99.7c-0.1-0.3,0-0.7-0.2-1.1c-0.8-1.4-2.3-1.9-3.5-2.8c-0.4-0.3-0.2,0.1-0.3,0.2
		c-0.3,0.6-0.6,1.3,0.2,1.8c1.1,0.7,1.8,1.8,2.7,2.6c0.2,0.2,0.5,0.6,0.9,0.4C176.6,100.6,176.5,100.2,176.6,99.7z"/>
	<path class="st0" d="M375.5,116.2c-1-0.5-1.6-1.5-2.3-2.4c-0.4-0.5-0.7-1.5-1.5-1c-0.6,0.4-0.1,1.3,0.2,1.9
		c0.1,0.3,0.4,0.6,0.7,0.8c1.1,0.7,1.9,1.6,2.6,2.7c0.2,0.3,0.4,0.8,0.7,0.7c0.6-0.2,0.1-0.7,0.2-0.9
		C376.2,117.2,376.2,116.6,375.5,116.2z"/>
	<path class="st0" d="M214.3,99.5c0.1,0.3,0.2,0.6,0.4,0.7c1.2,0.7,2.3,1.5,2.8,2.9c0.1,0.2,0.5,0.4,0.7,0.2
		c0.1-0.1,0.2-0.3,0.3-0.4c0-1.2-1.3-3.1-3-4.4c-0.4-0.3-0.7-1.2-1.3-0.8C213.7,98.1,214.1,98.9,214.3,99.5z"/>
	<path class="st0" d="M172.1,90.8c0.1,1.3,2.6,3.9,3.8,4.2c0.8,0.1,0.5-0.5,0.6-0.7c0.1-0.9-0.3-1.5-1-1.8c-1-0.5-1.7-1.2-2.3-2
		c-0.2-0.3-0.4-0.8-0.9-0.6C172,90,172.1,90.5,172.1,90.8z"/>
	<path class="st0" d="M252.7,129.7c-0.1-0.1-0.3-0.2-0.4-0.3c-0.3,0.1-0.3,0.3-0.4,0.5c-0.2,1.3,2,4.7,3.3,5.2
		c0.4,0.2,0.7,0,0.7-0.4c0.1-0.6,0-1.1-0.4-1.6C254.6,131.9,253.6,130.8,252.7,129.7z"/>
	<path class="st0" d="M176.2,140.6C176.2,140.6,176.2,140.6,176.2,140.6C176.2,140.6,176.2,140.6,176.2,140.6L176.2,140.6z"/>
	<path class="st0" d="M174.6,136.7c-0.6-0.4-0.9-1-1.4-1.6c-0.3-0.3-0.5-0.7-1-0.5c-0.4,0.2-0.5,0.7-0.4,1.1c0,0.4,0.1,1,0.4,1.1
		c1.8,0.8,2.5,2.6,4,3.6C176.8,138.8,176,137.7,174.6,136.7z"/>
	<path class="st0" d="M335.1,166.4c-0.3-0.5-0.9-0.3-1.4-0.3c-0.3,0-0.8-0.2-0.9,0.1c-0.2,0.4,0.4,0.4,0.6,0.7
		c0.4,0.5,0.7,1,1.2,1.5c0.8,1,1.7,1.8,2.9,2.3c0.3,0.1,0.7,0.1,0.9-0.2c0.2-0.3,0-0.5-0.2-0.8C337.3,168.6,336,167.6,335.1,166.4z"
		/>
	<path class="st0" d="M218.4,141.8c-0.7-1.9-2.5-3-3.3-4.7c-0.1-0.1-0.2-0.1-0.3-0.2c-0.4,0-0.4,0.3-0.5,0.5
		c-0.1,0.9-0.1,1.8,0.7,2.5c0.9,0.8,1.9,1.7,2.8,2.5c0.2,0.2,0.4,0.7,0.8,0.4C218.8,142.6,218.6,142.2,218.4,141.8z"/>
	<path class="st0" d="M173.8,149.9c0.4,0.3,0.7,0.7,1,1c0.4,0.4,0.9,1.3,1.4,0.9c0.4-0.3,0.3-1.3,0.1-1.9c-0.3-0.8-0.9-1.4-1.7-1.8
		c-0.9-0.5-1.7-1.1-2.2-2.1C172,147.7,172.6,148.9,173.8,149.9z"/>
	<polygon class="st0" points="172.4,146.1 172.4,146.1 172.4,146.1 	"/>
	<path class="st0" d="M281.6,165.4c-0.1-0.1-0.4,0-0.6,0.2c-0.2,0.2-0.1,0.4,0.1,0.6c0.6,0.7,1.3,1.3,1.9,1.9
		c0.5,0.6,0.9,1.2,1.6,1.6c0.7,0.4,1.9,0,1.9-0.6c-0.1-0.1-0.2-0.3-0.3-0.5C285,166.9,283.1,166.4,281.6,165.4z"/>
	<path class="st0" d="M176,143.8c-0.3-0.4-0.6-0.8-1-1.1c-0.8-0.7-1.7-1.4-2.6-2.1c-0.6,1.2-0.7,2.2,0.9,2.8c0.7,0.3,1,0.9,1.5,1.5
		c0.4,0.5,0.9,1.7,1.6,1.2C177,145.7,176.4,144.5,176,143.8z"/>
	<path class="st0" d="M172.4,140.6C172.4,140.6,172.4,140.6,172.4,140.6C172.4,140.6,172.4,140.6,172.4,140.6L172.4,140.6z"/>
	<path class="st0" d="M299.5,137.4c-0.1-0.1-0.2-0.2-0.4-0.2c-0.3,0-0.5,0.1-0.4,0.7c0.2,2,1.8,3.1,3.2,4.2c0.2,0.1,0.5,0.2,0.5,0
		c0.1-0.7,0.9-1.4,0.1-2.1C301.5,139,300.5,138.2,299.5,137.4z"/>
	<path class="st0" d="M298.5,124.6c-0.4,0-0.6,0.3-0.6,0.7c0,0.8,0.2,1.6,0.8,2.1c1.1,0.9,2.2,1.7,3,2.9c0.1,0.2,0.5,0.4,0.7,0.2
		c0.1-0.1,0.2-0.4,0.2-0.6C302.7,129.2,299.1,124.7,298.5,124.6z"/>
	<path class="st0" d="M361.3,141.7c-1-0.7-2.2-1.2-2.6-2.6c-0.1-0.4-0.3-0.8-0.9-0.7c-0.5,0.1-1,0.4-1.1,0.9c-0.2,0.6,0.2,1,0.7,1.1
		c1.2,0.4,2,1.3,2.8,2.1c0.4,0.4,0.8,0.8,1.4,0.8c0.4,0,0.7-0.1,0.8-0.5C362.3,142.3,361.7,142,361.3,141.7z"/>
	<path class="st0" d="M297.9,120.3c0,0.7,0.3,1.3,0.9,1.5c1.5,0.7,2.4,2.1,3.6,3.2c0.6-1.3,0.3-2.1-0.9-3.1c-0.9-0.7-2-1-2.6-2
		c-0.2-0.3-0.3-0.8-0.7-0.6C297.7,119.5,297.9,120,297.9,120.3z"/>
	<path class="st0" d="M302.4,125C302.4,125,302.4,125,302.4,125C302.4,125,302.4,125,302.4,125L302.4,125z"/>
	<path class="st0" d="M252.6,124c0,0-0.1-0.1-0.2-0.1c-0.3,0-0.2,0.2-0.3,0.4c-0.1,0.8-0.3,1.6,0.6,2.2c1,0.7,1.8,1.5,2.4,2.6
		c0.2,0.3,0.5,0.9,0.9,0.7c0.5-0.2,0.4-0.9,0.2-1.3C255.4,126.7,254,125.3,252.6,124z"/>
	<path class="st0" d="M132.6,160.6c-1.1-0.9-2.2-2-3.1-3.1c-0.2-0.2-0.4-0.3-0.6-0.5c-0.4-0.1-0.6,0.1-0.8,0.3
		c-0.3,0.5-0.1,0.9,0.3,1.1c1.3,0.8,1.9,2.1,2.8,3.3c0.3,0.4,0.6,1.1,1.3,0.5C133.1,161.8,133.3,161.2,132.6,160.6z"/>
	<path class="st0" d="M357.3,143.7c-0.7-0.6-1.2-1.4-1.7-2.1c-0.4-0.8-1-1.3-2.1-1.2c-0.3,0.1-1.2,0.1-0.8,0.6
		c1.1,1.4,2.4,2.7,3.6,4c0.4,0.4,1.2,0.2,1.5-0.2C358.5,144,357.6,144,357.3,143.7z"/>
	<path class="st0" d="M296,162.1c-1.1-0.6-1.7-1.8-2.7-2.6c-0.4-0.3-0.8-0.6-1.1-0.9c-0.6,0.1-1,0.4-1.2,0.8
		c-0.2,0.3,0.2,0.6,0.5,0.8c1.2,0.6,2.2,1.5,2.9,2.6c0.2,0.2,0.4,0.4,0.6,0.6c0.5,0.3,0.9,0.2,1.3-0.2
		C296.7,162.7,296.5,162.4,296,162.1z"/>
	<path class="st0" d="M131.4,153.9c-0.3-0.3-0.7-0.2-0.9,0.1c-0.2,0.3-0.4,0.5-0.3,0.9c0.1,0.4,0.4,0.7,0.8,0.9
		c1.1,0.7,2.1,1.6,2.6,2.9c0.1,0.3,0.3,0.7,0.7,0.6c0.5-0.1,0.5-0.6,0.7-1.1c-0.1-0.2-0.1-0.5-0.2-0.7
		C133.9,156.2,132.6,155.1,131.4,153.9z"/>
	<path class="st0" d="M256.3,102.2c0.7,0.4,0.9-0.2,0.9-0.7c0-1.4-1.1-2.3-2-3c-0.6-0.5-1.5-0.7-1.9-1.4c-0.4,0.1-0.4,0.3-0.3,0.5
		C253.5,99.5,254.6,101.1,256.3,102.2z"/>
	<path class="st0" d="M215.3,112c1,0.4,1.8,1.1,2.2,2.1c0.1,0.2,0.1,0.6,0.5,0.6c0.3-0.1,0.2-0.5,0.2-1.1c-0.1-2.1-2.2-3.1-3.5-4.7
		c-0.3-0.4-1,0.1-0.9,0.7C214,110.6,214.3,111.5,215.3,112z"/>
	<path class="st0" d="M374.5,109.6c-0.7-0.5-1.3-1-2-1.5c-0.4-0.3-0.5-1.1-1-0.8c-0.5,0.3-0.1,1,0.1,1.5c0.3,0.7,0.6,1.2,1.2,1.7
		c1.1,0.8,2.2,1.5,2.8,2.7c0.1,0.2,0.3,0.4,0.5,0.2c0.2-0.1,0.2-0.3,0.4-0.5C376.1,111.7,375.6,110.5,374.5,109.6z"/>
	<path class="st0" d="M217.7,83.5c-1.1-0.8-2.1-1.7-2.6-2.9c-0.1-0.2-0.3-0.5-0.6-0.4c-0.3,0.1-0.2,0.5-0.2,0.5
		c0.1,2.4,1.6,3.7,3.2,4.8c0.3,0.2,0.4,0.7,0.8,0.4c0.2-0.2,0.2-0.6,0.2-1C218.6,84.3,218.2,83.9,217.7,83.5z"/>
	<path class="st0" d="M336.3,100.3c0,0-0.1-0.1-0.2-0.1c-0.2,0.1-0.2,0.3-0.2,0.5c-0.1,0.7,0,1.4,0.6,1.9c1,0.9,2,1.8,2.7,2.9
		c0.2,0.4,0.6,0.7,1.1,0.4c0.7-0.3,0.3-0.8,0.1-1.3C339.6,102.8,337.5,101.9,336.3,100.3z"/>
	<path class="st0" d="M135.7,141.3c-0.5-0.1-0.6,0.3-0.6,0.6c0,0.6,0.3,1.1,0.8,1.4c1,0.7,1.7,1.6,2.3,2.7c0.2,0.3,0.4,0.9,0.9,0.7
		c0.3-0.1,0.2-0.6,0.3-1C139.4,144.2,137.3,141.6,135.7,141.3z"/>
	<path class="st0" d="M219.2,170.5L219.2,170.5C219.2,170.4,219.2,170.4,219.2,170.5C219.2,170.5,219.2,170.5,219.2,170.5z"/>
	<path class="st0" d="M215.5,166c-0.4-0.8-1.6-0.1-2.3,0c-0.3,0.1-0.2,0.5,0,0.7c1.9,1.4,3.5,3.2,5.9,3.7c0-0.2,0-0.4-0.2-0.6
		C217.9,168.5,216.4,167.7,215.5,166z"/>
	<path class="st0" d="M299.2,97c-0.2-0.3-0.6-0.3-0.9,0.1c-0.6,0.8-0.5,1.7,0.3,2.1c1.3,0.7,2.2,1.9,3.3,2.8
		c0.2,0.1,0.1,0.7,0.5,0.5c0.3-0.1,0.2-0.5,0.2-0.9c0-0.2,0-0.7-0.2-0.8C301,99.7,300.2,98.3,299.2,97z"/>
	<path class="st0" d="M327.3,169.4c-1.7-0.6-2.8-2.1-4.3-2.9c-0.4-0.2-0.8-0.5-1.3-0.5c-0.1,0.1-0.2,0.1-0.3,0.2
		c0.1,0.1,0.1,0.3,0.2,0.3c0.8,0.4,1.1,1.2,1.6,1.9c0.9,1.2,2.2,1.9,3.8,2c0.3,0,0.8,0.3,0.9-0.2
		C327.9,169.9,327.6,169.5,327.3,169.4z"/>
	<path class="st0" d="M299.7,105.7c0.6,0.6,1.2,1.1,1.8,1.7c0.3,0.3,0.3,1,0.9,0.8c0.2-0.1,0.3-0.9,0.2-1.4
		c-0.1-0.8-0.6-1.5-1.3-2.1c-0.7-0.6-1.5-1.2-2.1-2c-0.2-0.2-0.3-0.5-0.6-0.4c-0.3,0.1-0.2,0.5-0.2,0.7
		C298.3,104.2,298.9,105,299.7,105.7z"/>
	<path class="st0" d="M301,132.9c-0.7-0.5-1.3-1.1-2-1.6c-0.2-0.2-0.3-0.6-0.6-0.5c-0.1,0-0.2,0.5-0.1,0.8c0.5,2,2,3.4,3.4,4.7
		c0.1,0.1,0.4,0.2,0.6,0.1c0.3-0.1,0.3-0.4,0.3-0.7C302.4,134.6,301.9,133.7,301,132.9z"/>
	<path class="st0" d="M254.9,123.4c0.2,0.2,0.5,0.4,0.7,0.3c0.4-0.2,0.3-0.5,0.3-0.5c0-1-0.2-1.5-0.7-1.8c-0.6-0.5-1.3-1.1-1.9-1.6
		c-0.4-0.3-0.7-1-1.4-0.4c-0.7,0.6-0.3,1.3,0.2,1.8C253.1,121.9,254,122.7,254.9,123.4z"/>
	<path class="st0" d="M110.4,166.7c-0.2-0.2-0.7,0-0.9,0.2c-0.3,0.4,0,0.7,0.2,0.9c1,1,2,1.9,3,2.9c0.4,0.4,1,0.5,1.6,0.5
		c0.3,0,0.5-0.1,0.5-0.5c0-0.1,0-0.1-0.1-0.2C113.6,169,111.6,168.3,110.4,166.7z"/>
	<path class="st0" d="M188.3,127.8c-0.7-0.8-1.6-1.1-2.5-1.3c-0.4,0-0.7,0-0.8,0.4c-0.1,0.4,0.2,0.7,0.5,0.8c1.4,0.5,2.2,1.7,3,2.8
		c0.2,0.4,0.5,0.7,0.9,0.7c0.3,0,0.7,0.1,1-0.3c0.2-0.3,0-0.5-0.2-0.7C189.6,129.4,189,128.6,188.3,127.8z"/>
	<path class="st0" d="M338.9,93.4c0.7,1.1,1.5,0.2,2.2,0.4c0.4,0.1,0.5-0.2,0.2-0.5c-1.3-1.4-2.6-2.6-4.3-3.2
		c-0.5-0.1-0.7,0.1-0.9,0.3c-0.2,0.4-0.1,0.7,0.2,0.9C337.2,92,338.3,92.5,338.9,93.4z"/>
	<path class="st0" d="M297,151.4c-0.4-0.5-0.8-0.2-1.1,0.4c-0.2,0.6,0,1,0.4,1.3c1.1,1,2.2,1.9,3,3.2c0.2,0.3,0.5,0.6,0.9,0.3
		c0.3-0.2,0.4-0.5,0.4-1c0-0.1,0-0.4-0.2-0.5C299.1,153.9,298,152.8,297,151.4z"/>
	<path class="st0" d="M254.9,106.4c0.3,0.4,0.7,0.9,1.2,0.6c0.5-0.3,0.2-0.9,0-1.4c-0.8-1.6-2.1-2.7-3.3-4.1
		c-0.1-0.1-0.2-0.1-0.4-0.1c-0.4,0.2-0.3,0.6-0.3,0.9C252.3,104.2,253.9,105.1,254.9,106.4z"/>
	<path class="st0" d="M255.3,95.3c1.2,0.6,2.1,1.4,2.5,2.7c0.2,0.5,0.5,1,1.1,0.5c0.4-0.4,0.8-0.8,0.4-1.5c-0.1-0.1-0.2-0.2-0.3-0.3
		c-1.4-0.8-2.4-2.1-3.4-3.4c-0.2-0.2-0.4-0.4-0.7-0.3c-0.5,0.3-0.9,0.7-0.5,1.3C254.5,94.7,254.9,95.1,255.3,95.3z"/>
	<path class="st0" d="M105,167.3c-0.4,0-0.9-0.1-1.2,0.3c-0.3,0.3-0.1,0.6,0.2,0.7c1.4,0.6,2.3,1.8,3.3,2.8c0.3,0.3,0.8,0.6,1.3,0.6
		c0.3,0,0.5,0,0.4-0.4C108.7,169.9,106.3,167.5,105,167.3z"/>
	<path class="st0" d="M133.9,149.9c-0.5-0.6-1-0.4-1.2,0.3c-0.1,0.6-0.1,1.1,0.4,1.5c1.1,1,2.1,2.1,2.8,3.4c0.1,0.3,0.3,0.5,0.7,0.3
		c0.3-0.1,0.3-0.4,0.4-0.8c0-0.1,0-0.4-0.1-0.5C135.6,153,135,151.2,133.9,149.9z"/>
	<path class="st0" d="M97.2,96.1c0.2,0.6,0.6,1,1.2,0.4c0.5-0.4,0.6-1,0.1-1.4c-1.4-1.1-2.7-2.2-3.8-3.5c-0.1-0.1-0.2-0.1-0.4-0.2
		c-0.4,0.1-0.9,0.2-0.7,0.8c0.2,0.4,0.5,0.8,0.8,1.2C95.2,94.4,96.7,94.7,97.2,96.1z"/>
	<path class="st0" d="M337.5,114.6c0.7,0.5,1.5,1,2.1,1.8c0.2,0.2,0.3,0.6,0.6,0.4c0.2-0.1,0.2-0.5,0.1-0.3c0.2-1.5-0.3-2.2-1.2-2.7
		c-0.9-0.6-1.8-1-2.5-1.8c-0.2-0.2-0.5-0.8-0.8-0.6c-0.5,0.3,0,0.8,0.1,1.1C336.2,113.4,336.8,114,337.5,114.6z"/>
	<path class="st0" d="M302.1,111.4c-0.3-0.3-0.6-0.6-1-0.8c-0.7-0.4-1.2-0.9-1.7-1.5c-0.2-0.3-0.3-0.9-0.8-0.7
		c-0.2,0.1-0.2,0.6-0.3,1c-0.2,0.5,0,1,0.4,1.3c0.8,0.6,1.3,1.5,2,2.1c0.5,0.4,0.9,1.4,1.6,0.8C303.1,113,302.6,112,302.1,111.4z"/>
	<path class="st0" d="M272.3,94.1c0.3,0,0.5-0.1,0.4-0.5c-0.3-1.2-3.5-3.4-4.8-3.4c-0.4,0-0.5,0.1-0.3,0.5
		C268.1,92.2,270.7,94.1,272.3,94.1z"/>
	<path class="st0" d="M371.7,89.9c-0.7,0.3-0.3,1.2-0.3,1.9c0.1,0.6,0.5,1,0.9,1.4c0.7,0.7,1.6,1.4,2.2,2.3c0.1,0.2,0.3,0.5,0.6,0.3
		c0.1-0.1,0.1-0.4,0.1-0.5c-0.2-1-0.3-2-1.2-2.6c-0.6-0.4-0.8-0.9-1.1-1.5C372.7,90.6,372.3,89.7,371.7,89.9z"/>
	<path class="st0" d="M321.1,169.3c-0.8-1.1-1.8-1.9-3-2.5c-0.4-0.2-0.9-0.5-0.9-0.5c-0.9,0.1-1.1,0.3-0.8,0.7
		c1.3,1.2,2.3,2.7,4.1,3.2c0.4,0.1,0.9,0.3,1.2,0C322,169.8,321.4,169.6,321.1,169.3z"/>
	<path class="st0" d="M277.8,166.4c-0.2-0.4-1-0.2-1.3,0.1c-0.4,0.5,0.3,0.6,0.5,0.9c0.7,0.8,1.4,1.6,2.1,2.4c0.6,0.7,1.3,1,2.2,0.9
		c0.3,0,0.5-0.2,0.6-0.5c-0.1-0.1-0.2-0.3-0.3-0.5C280.3,168.6,278.7,168,277.8,166.4z"/>
	<path class="st0" d="M123,167.8c-1.2-1-2.5-1.8-3.4-3.1c-0.2-0.2-0.4-0.3-0.8-0.3c-0.1,0.1-0.3,0.1-0.5,0.2
		c-0.2,0.3-0.1,0.5,0.1,0.7c0.4,0.4,0.8,0.8,1,1.3c0.5,1.3,1.8,1.7,2.9,2.3c0.4,0.2,0.9,0.2,1.1-0.3
		C123.7,168.3,123.3,168.1,123,167.8z"/>
	<path class="st0" d="M371.9,95.7c-0.6,0.1-0.5,0.6-0.4,1c0.5,1.9,2.3,2.9,3.5,4.3c0.1,0.2,0.4,0.2,0.5,0c0.1-0.2,0.2-0.4,0.1-0.6
		c-0.6-1.9-2.2-3.1-3.5-4.6C372,95.7,371.9,95.7,371.9,95.7z"/>
	<path class="st0" d="M96.6,169.1c-0.9-1-1.4-2.7-3.4-2.5c-0.1,0-0.4-0.3-0.6,0.1c-0.1,0.3,0.1,0.5,0.3,0.7c0.2,0.3,0.4,0.6,0.7,0.8
		c0.7,0.7,0.9,1.9,2.1,2.2c0.5,0.1,1.2,0.4,1.6-0.1C97.5,169.8,96.9,169.4,96.6,169.1z"/>
	<path class="st0" d="M261.3,95.3c0.3,0.3,0.7,0.2,1,0.1c0.3-0.1,0.5-0.2,0.5-0.1c-0.1-0.8-0.4-0.9-0.6-1c-1.2-0.4-1.9-1.3-2.4-2.4
		c-0.3-0.6-0.8-0.9-1.5-0.9c-0.3,0-0.7,0-0.9,0.3c-0.2,0.4,0.1,0.7,0.3,0.9C258.7,93.5,260.1,94.2,261.3,95.3z"/>
	<path class="st0" d="M167.8,169.3c-0.7-0.5-1.6-0.9-2.1-1.6c-0.8-1.1-1.9-1.3-3.1-1.3c-0.2,0-0.4-0.2-0.5,0c0,0.1,0.2,0.3,0.3,0.5
		c1.2,0.9,2.4,1.9,3.7,2.8c0.6,0.4,1.2,0.7,1.8,1c0.3,0.2,0.7,0.1,0.8-0.4C168.5,169.8,168.2,169.5,167.8,169.3z"/>
	<path class="st0" d="M107,93.8c0.3,0.1,0.6,0.1,0.8-0.1c0.1-0.3-0.1-0.4-0.3-0.5c-0.9-0.6-1.5-1.5-2.1-2.3
		c-0.6-0.7-1.3-1.1-2.1-1.2c-0.2,0-0.5-0.1-0.6,0c-0.3,0.2-0.1,0.5,0,0.7C103.7,92.2,105.2,93.2,107,93.8z"/>
	<path class="st0" d="M342.2,168.2c-1-0.7-1.8-1.7-2.6-2.7c-0.3-0.4-0.7-0.9-1.3-1c-0.1,0.1-0.3,0.2-0.4,0.3
		c-0.2,0.3-0.1,0.7,0.2,0.9c1.4,1.2,2.7,2.4,3.6,3.9c0.1,0.2,0.4,0.4,0.7,0.2c0.2-0.2,0.3-0.4,0.4-0.7
		C342.8,168.8,342.5,168.4,342.2,168.2z"/>
	<path class="st0" d="M336.4,151.1c0,0-0.1-0.1-0.2-0.1c-0.3,0.1-0.2,0.3-0.2,0.5c0,0.6,0.3,1.1,0.6,1.5c0.9,1.3,2.2,2.3,3.4,3.2
		c0.1,0.1,0.2,0.2,0.3,0.2c0-0.2,0.1-0.4,0.1-0.6C340.3,153.3,337.7,152.7,336.4,151.1z"/>
	<path class="st0" d="M176,157c0.3,0.3,0.5,0,0.5-0.5c-0.1-1-0.7-1.9-1.7-2.5c-0.9-0.6-1.9-1.2-2.4-2.3c-0.1-0.2-0.2-0.6-0.6-0.3
		c-0.1,0.1,0,0.4,0,0.6C172.4,154.4,174.4,155.6,176,157z"/>
	<path class="st0" d="M174.4,105.1c0.6,0.3,1.3,0.5,1.7,0c0.5-0.7-0.2-1.2-0.7-1.5c-1.2-0.7-2.2-1.5-2.8-2.7
		c-0.1-0.1-0.2-0.2-0.3-0.3c-0.3,0-0.2,0.3-0.3,0.5C171.8,102.6,172.8,104.3,174.4,105.1z"/>
	<path class="st0" d="M217.9,91.6c0.4,0.2,0.7,0.1,0.6-0.4c-0.5-2.2-2.4-3.2-3.8-4.6c0,0-0.1,0-0.2,0c-0.3,0.1-0.3,0.5-0.2,0.7
		C214.8,89.3,216.2,90.6,217.9,91.6z"/>
	<path class="st0" d="M301.2,116.4c-0.6-0.4-1-1.2-1.5-1.7c-0.4-0.4-0.6-1.5-1.2-1.1c-0.5,0.3-0.2,1.3,0.1,1.9
		c0.2,0.5,0.4,0.9,0.8,1.2c1.3,0.6,2,1.9,3,2.9l0,0C302.6,118.3,302.5,117.2,301.2,116.4z"/>
	<path class="st0" d="M218.3,137.2C218.3,137.2,218.4,137.2,218.3,137.2C218.3,137.2,218.3,137.2,218.3,137.2
		C218.3,137.2,218.3,137.2,218.3,137.2z"/>
	<polygon class="st0" points="218.4,137.2 218.4,137.2 218.3,137.2 	"/>
	<path class="st0" d="M216.8,133.9c-0.6-0.4-0.9-1-1.4-1.5c-0.4-0.4-0.6-1.3-1.2-0.9c-0.6,0.4-0.1,1.1,0,1.7c0.1,0.6,0.5,1,1.1,1.2
		c0.9,0.5,1.6,1.1,2,2.1c0.2,0.5,0.6,0.7,1.1,0.8C218.4,135.9,218.1,134.7,216.8,133.9z"/>
	<path class="st0" d="M253.1,109.8c1,0.6,1.7,1.4,2.4,2.4c0.1,0.2,0.2,0.7,0.6,0.5c0.4-0.2,0.2-0.6,0.1-0.9
		c-0.3-0.8-0.7-1.5-1.3-2.2c-0.8-1-2-1.6-2.6-2.7c-0.1-0.1-0.2-0.2-0.3-0.2c-0.3,0.1-0.2,0.3-0.1,0.8
		C251.8,108.3,252.1,109.2,253.1,109.8z"/>
	<path class="st0" d="M218.3,158c-0.1-0.2-0.3-0.5-0.6-0.6c-1.2-0.7-2.1-1.6-2.7-2.8c-0.1-0.2-0.2-0.4-0.2-0.4
		c-0.6,0.1-0.8,1.7-0.4,1.9c1.3,0.6,1.6,2.3,2.9,2.8c0.4,0.1,0.6,0.9,1,0.6C218.8,159.2,218.6,158.5,218.3,158z"/>
	<path class="st0" d="M253.1,113.4c-0.1-0.1-0.2-0.2-0.3-0.3c-0.3-0.1-0.4,0.1-0.4,0.3c-0.1,0.4-0.6,1-0.1,1.3
		c1.2,0.9,1.8,2.3,2.9,3.2c0.2,0.1,0.4,0.3,0.6,0.2c0.1-0.1,0.2-0.4,0.2-0.5c0-0.3,0-0.8-0.2-1C254.6,115.7,254.1,114.3,253.1,113.4
		z"/>
	<path class="st0" d="M275.7,170.2c-0.6-1.1-1.7-1.9-2.7-2.6c-0.4-0.2-0.7-0.4-1.2-0.4c-0.1,0-0.3,0.1-0.4,0.2
		c-0.1,0.2,0,0.4,0.1,0.5c1.2,0.8,2.1,2.1,3.2,3c0.4,0.4,1.1,1,1.6,0.4C276.7,171,276,170.6,275.7,170.2z"/>
	<path class="st0" d="M175.5,83.3c0.3,0.2,0.5,0.6,0.9,0.3c0.3-0.3,0.1-0.7-0.1-1c-0.3-0.5-0.6-0.9-0.9-1.4c-0.8-1.3-2.1-2-2.9-3.2
		C172.4,80.3,173.6,82,175.5,83.3z"/>
	<path class="st0" d="M172.4,77.9C172.4,78,172.4,78,172.4,77.9C172.5,78,172.5,77.9,172.4,77.9L172.4,77.9z"/>
	<path class="st0" d="M298,91c-0.5,0.3,0.2,1.3,0.3,1.9c0.1,0.5,0.5,0.8,0.9,1.1c0.7,0.4,1.3,1,1.9,1.7c0.1,0.2,0.3,0.6,0.6,0.4
		c0.1-0.1,0.1-0.4,0.1-0.6c0.1-1-0.3-1.8-1.2-2.2c-0.6-0.3-1.1-0.6-1.5-1.1C298.8,91.8,298.5,90.7,298,91z"/>
	<path class="st0" d="M252.9,135.9c-0.1-0.1-0.3-0.1-0.3,0c0,0.1,0,0.3,0.1,0.4c0.4,1.6,1,3,2.2,4.2c0.2,0.2,0.5,0.6,0.9,0.4
		c0.3-0.1,0.2-0.5,0.2-0.9c0-0.2,0-0.4-0.1-0.7C255.5,137.6,253.7,137.2,252.9,135.9z"/>
	<path class="st0" d="M99.2,167.5c-0.5,0-1.1,0.1-0.7,0.5c1.1,1.2,2.1,2.4,3.6,3.1c0.2,0.1,0.6,0,0.8-0.1c0.3-0.2,0.2-0.6,0-0.7
		C101.8,169,100.6,168,99.2,167.5z"/>
	<path class="st0" d="M336.7,106c-0.1-0.1-0.2-0.1-0.3-0.2c-0.3,0-0.3,0.2-0.3,0.4c0.1,0.3,0.2,0.7,0.3,1c0.6,1.9,2.6,2.5,3.6,4
		c0.1,0.1,0.3,0.1,0.3,0c0-0.1,0-0.3,0-0.4c-0.2-0.5-0.2-1-0.5-1.4C338.8,108.2,337.4,107.4,336.7,106z"/>
	<path class="st0" d="M346.1,94.4c0.3-0.1,0.8,0,1-0.4c0.2-0.5-0.3-0.7-0.6-1c-0.3-0.3-0.6-0.6-1-0.8c-0.8-0.5-1.6-1.1-2.6-1.2
		c0.1,0.9,0.9,1.5,1.3,2.2C344.6,93.9,345.1,94.5,346.1,94.4z"/>
	<path class="st0" d="M257.9,169.2c-0.8-1.2-1.9-1.8-3.2-2.1c-0.2,0-0.5-0.1-0.6,0c-0.2,0.2,0,0.4,0.2,0.5c1.3,1.4,2.3,3.3,4.7,2.9
		c0,0,0,0,0,0C258.6,170,258.3,169.6,257.9,169.2z"/>
	<path class="st0" d="M87.5,165.3c-1.1-0.7-2.4-0.7-3.4-1.6c0,0-0.2,0.1-0.4,0.1c0,0.1,0.1,0.3,0.1,0.4c1,1.2,2.2,2.2,3.7,2.6
		c0.2,0.1,0.6,0.2,0.7-0.3C88.1,166.1,87.9,165.5,87.5,165.3z"/>
	<path class="st0" d="M89.8,134.8c-0.1,0.1-0.2,0.2-0.1,0.3c0.8,1.4,2,2.5,3.4,3.3c0.1,0,0.1,0.1,0.2,0.1c0.3,0.1,0.4,0,0.3-0.3
		c0-0.1-0.1-0.1-0.1-0.2C93.2,137.3,90.1,134.7,89.8,134.8z"/>
	<path class="st0" d="M156,168.6c-1.1-0.7-2.4-1.2-3.2-2.3c-0.1-0.1-0.3-0.2-0.4-0.1c-0.2,0.2,0,0.4,0.1,0.5c0.5,0.6,1,1.1,1.6,1.7
		c0.6,0.6,1.2,1.3,2.1,1.7c0.2,0.1,0.4,0.1,0.6,0.1c0,0,0.1-0.2,0.1-0.4C156.6,169.3,156.4,168.9,156,168.6z"/>
	<path class="st0" d="M337.4,119.5c0.2,0,0.6,0.1,0.8-0.3c0.1-0.3-0.2-0.5-0.4-0.7c-0.3-0.3-0.6-0.5-1-0.8c-0.3-0.3-0.6-1-1.1-0.6
		c-0.4,0.4-0.2,1,0,1.5C336.1,119.4,336.6,119.5,337.4,119.5z"/>
	<path class="st0" d="M95,126.4c-1.1-1.6-2.8-2.1-4.4-2.9c-0.2-0.1-0.5-0.4-0.7,0c0,0.1,0.2,0.3,0.4,0.5
		C91.6,125.2,93.3,125.8,95,126.4L95,126.4z"/>
	<path class="st0" d="M104.4,131.3c0.2,0.1,0.3,0.3,0.5,0.2c0,0-0.1-0.4-0.2-0.5c-0.4-0.6-0.9-1.1-1.5-1.4c-1.2-0.6-2.3-1.2-3.5-1.8
		C100.7,129.7,102.7,130.3,104.4,131.3z"/>
	<path class="st0" d="M99.6,127.8L99.6,127.8C99.6,127.8,99.6,127.8,99.6,127.8C99.6,127.8,99.6,127.8,99.6,127.8z"/>
	<path class="st0" d="M136.2,130.1c-0.1,0.1-0.2,0.3-0.2,0.5c0,1.6,0.7,2.6,2.2,3.1c-0.2-1.3-0.8-2.4-1.5-3.4
		C136.5,130.2,136.4,130,136.2,130.1z"/>
	<path class="st0" d="M138.2,133.8C138.2,133.8,138.1,133.8,138.2,133.8C138.1,133.8,138.1,133.8,138.2,133.8L138.2,133.8z"/>
	<path class="st0" d="M249.7,166.6c-1.1-0.8-2.4-1.3-3.7-1.6c1,0.9,2.1,1.7,3.1,2.6c0.3,0.2,0.7,0.3,1,0
		C250.4,167.2,250,166.8,249.7,166.6z"/>
	<path class="st0" d="M245.9,165C245.9,165,246,165,245.9,165C246,165,246,165,245.9,165L245.9,165z"/>
	<path class="st0" d="M217.1,162.3c-0.4-0.1-0.3,0.5-0.3,0.8c0,0.8,0.2,1.5,1.1,1.5c0.5,0,0.4-0.5,0.4-0.8
		C218.2,163,217.9,162.4,217.1,162.3z"/>
	<path class="st0" d="M372.9,87.6c-0.3-1.3-1.3-2.1-2-3.1c-0.1-0.1-0.3-0.2-0.4-0.4c0,0.2,0,0.4,0.1,0.6
		C371.1,85.8,371.8,86.9,372.9,87.6z"/>
	<path class="st0" d="M372.9,87.6C372.9,87.6,372.9,87.6,372.9,87.6C372.9,87.6,372.9,87.6,372.9,87.6L372.9,87.6z"/>
	<path class="st0" d="M94.2,96.3c-0.4-0.6-0.6-1.4-1.4-1.6c0,0-0.2,0.2-0.2,0.3c0.2,0.7,0.7,1.1,1.2,1.6c0.1,0.1,0.2,0.2,0.3,0.2
		c0.2,0,0.2-0.1,0.1-0.3C94.3,96.4,94.3,96.3,94.2,96.3z"/>
	<path class="st0" d="M192,127.4c0.1-0.6-0.3-0.9-0.8-1c-0.4,0-0.6,0.1-0.7,0.4c0,0.6,0.3,0.9,0.8,1
		C191.7,127.9,192,127.7,192,127.4z"/>
	<path class="st0" d="M299.4,88.4C299.4,88.4,299.4,88.4,299.4,88.4C299.4,88.4,299.4,88.4,299.4,88.4L299.4,88.4z"/>
	<path class="st0" d="M297.3,85.5L297.3,85.5C297.3,85.5,297.3,85.5,297.3,85.5C297.4,85.5,297.3,85.5,297.3,85.5z"/>
	<path class="st0" d="M299.4,88.4c-0.3-1.2-0.8-2.3-2-2.9C297.6,86.8,298.2,87.8,299.4,88.4z"/>
	<path class="st0" d="M133.9,87.4C133.9,87.4,133.9,87.4,133.9,87.4L133.9,87.4C133.9,87.4,133.9,87.4,133.9,87.4z"/>
	<polygon class="st0" points="218.8,166.3 218.8,166.3 218.8,166.3 	"/>
	<path class="st0" d="M219,166.6c-0.1-0.1-0.2-0.2-0.2-0.3C218.9,166.4,218.7,166.6,219,166.6z"/>
	<path class="st0" d="M135.6,90.7l-0.4-0.9c0,0,0,0,0,0c0,0,0,0,0,0c0,0,0,0,0,0c-0.1-0.2-0.2-0.5-0.2-0.7c-0.2-0.6-0.3-1.2-0.9-1.7
		c0,0-0.1,0-0.1,0c0,0-0.1,0.1,0,0.1c0.1,0.2,0.1,0.4,0.2,0.6c0.2,0.7,0.3,1.3,0.9,1.8c0,0,0,0,0,0c0,0,0,0,0,0.1c0,0,0,0,0,0
		c0,0,0,0,0,0l0.4,0.9c0,0,0.1,0.1,0.1,0.1c0,0,0,0,0,0C135.5,90.9,135.6,90.8,135.6,90.7C135.6,90.8,135.6,90.7,135.6,90.7z"/>
	<polygon class="st0" points="302.4,125.1 302.4,125 302.4,125 	"/>
	<polygon class="st0" points="302.4,119.7 302.4,119.6 302.4,119.6 	"/>
	<polygon class="st0" points="302.4,119.6 302.4,119.6 302.4,119.6 	"/>
	<polygon class="st0" points="95.1,126.4 95,126.4 95,126.4 	"/>
	<polygon class="st0" points="135.5,90.9 135.5,90.8 135.5,90.8 	"/>
	<polygon class="st0" points="218.7,166.1 218.8,166.3 218.8,166.3 	"/>
	<polygon class="st0" points="218.8,166.3 218.8,166.3 218.8,166.3 	"/>
	<polygon class="st0" points="99.6,127.8 99.6,127.8 99.6,127.8 	"/>
	<path class="st0" d="M133.9,87.3c-0.1-0.1-0.3-0.3-0.4-0.4l0,0C133.6,87.1,133.8,87.2,133.9,87.3C133.9,87.4,133.9,87.3,133.9,87.3
		z"/>
	<polygon class="st0" points="172.4,146.1 172.4,146 172.4,146.1 172.4,146.1 172.4,146.1 	"/>
	<polygon class="st0" points="172.4,146.1 172.4,146.1 172.4,146.1 	"/>
	<path class="st0" d="M220.7,77.1c-0.1-0.2-0.3-0.3-0.4-0.4c0,0-0.1-0.1-0.1-0.1c0,0,0,0,0,0c0,0,0,0,0,0c0,0,0,0,0-0.1l-0.4-0.4
		c0,0,0,0,0,0l-0.4-0.4c0,0,0,0,0,0c0,0,0,0,0,0l-0.5-0.5c0,0,0,0,0,0c0,0,0,0,0,0c0,0,0,0,0,0c-0.1-0.5-0.3-1.1-0.8-1.6l-0.1-0.1
		c-0.2-0.3-0.5-0.6-0.8-0.6c-0.1,0-0.3,0-0.4,0.1c-0.2,0.1-0.3,0.3-0.2,0.5c0,0.3,0.3,0.5,0.5,0.6c0.1,0.1,0.2,0.1,0.2,0.2
		c0.3,0.3,0.7,0.6,1,0.8c0.1,0.1,0.2,0.2,0.4,0.3c0,0,0,0,0,0c0,0,0,0,0,0.1l0.5,0.5l0.4,0.4c0,0,0,0,0,0c0,0,0,0,0,0l0.4,0.4
		c0,0,0,0,0,0c0,0.2,0.1,0.5,0.3,0.7c0.1,0,0.1,0,0.2,0c0.1,0,0.1,0,0.2-0.1C220.7,77.3,220.7,77.2,220.7,77.1z"/>
	<path class="st0" d="M259,170.6C258.8,170.6,259,170.7,259,170.6L259,170.6z"/>
	<path class="st0" d="M259,170.5C259,170.5,259,170.5,259,170.5C259,170.6,259,170.6,259,170.5C259.1,170.5,259.1,170.4,259,170.5
		C259,170.5,259,170.5,259,170.5z"/>
	<polygon class="st0" points="259,170.5 259,170.5 259,170.5 	"/>
</g>
<g>
	<path class="st1" d="M253.6,153.1c2.8,0.8,5.7,0.9,8.7,0.9c0.5,0,1.1,0,1.7,0c6.5-0.2,12.7-1.1,17.1-6.8c1.2-1.5,2.3-3,3-4.8
		c0.5-1.3,0.8-2.7,1.3-4c0.8-1.9,0.8-3.8,0.5-5.8c-0.4-2.5-0.4-5.1-0.1-7.6c0.4-2.9,0-5.7-0.3-8.5c-0.1-0.8-0.1-1.5,0-2.3
		c0.6-4.4,0-8.8,0.4-13.2c0-0.4-0.2-0.8-0.2-1.2c-0.1-0.8-0.2-1.5,0-2.3c0.1-0.5,0.5-1,0.3-1.6c-0.9-3.4-1.6-6.8-2.9-10.1
		c-0.4-1-0.9-2-1.9-2.5c-2.5-1.5-4.6-3.4-7.6-4.2c-3.6-0.9-7.3-1.2-11-1.1c-1,0-2.1,0.4-3.1,0.3c-2.3-0.2-4.6,0.3-6.8,0.9
		c-3.4,1-6,3.6-8.1,6.4c-1.6,2.1-2.4,4.6-2.9,7.2c-1.2,5.7-0.2,11.4-0.3,17.1c0,1.5,0.3,3,0.2,4.6c-0.1,1.4-0.4,2.8-0.2,4.2
		c0.6,3.7,0.5,7.4,0.1,11.1c-0.4,3.3,0.8,6.5,0.4,9.8c0,0.2,0.1,0.4,0.2,0.6c0.8,3.1,2.6,5.7,4.5,8.2
		C248.4,150.7,250.8,152.3,253.6,153.1z M249.2,102.6c0.1-1.9,0.1-3.8,1-5.5c0.1-0.2,0.2-0.5,0.2-0.8c0.8-5.8,4.8-9.2,10.6-9.1
		c2.2,0.1,4.5-0.5,6.7-0.1c2.5,0.4,4.8,1.1,6.1,3.5c0.6,1,1.7,1.4,2.2,2.5c1,2.1,1.7,4.1,1.6,6.4c0,1.3,0,2.7,0,4
		c0,2.5-0.1,4.9,0.3,7.3c0.2,1.4,0.2,2.8-0.4,4.1c-0.3,0.7-0.4,1.5-0.2,2.3c0.9,3.5,0.3,7.1,0.1,10.7c0,0.8-0.3,1.6-0.1,2.3
		c0.5,2.3,0.1,4.4-0.4,6.6c-0.9,4.1-3.3,6.5-7.1,8c-3,1.2-6.1,1.5-9.1,1c-2.7-0.5-5.5-1.5-7.5-3.4c-1.9-1.8-2.2-4.4-2.8-6.9
		c-0.9-3.8-0.4-7.5-0.5-11.2c-0.1-4.9-0.2-9.7-0.3-14.6C249.5,107.3,249,105,249.2,102.6z"/>
	<path class="st1" d="M198.6,163.2c1.9,0.4,3.7,0.7,5.6-0.2c0.5-0.2,1,0,1.4,0c2.2,0.2,4.5,0.2,6.7,0.1c0.7,0,1.5-0.2,1.7-1
		c0.2-0.7-0.1-1.3-0.6-1.7c-1.6-1.1-1.5-2.6-1.6-4.3c-0.1-3.4,0.2-6.8,0.4-10.2c0.1-1.6,0.1-3.2-0.5-4.7c-0.4-1.1-0.1-2.1,0.2-3.1
		c0.3-0.7,0.5-1.5,0.3-2.3c-0.5-1.6-0.2-3.2-0.3-4.8c-0.1-2.5,0.5-4.9,0.4-7.3c-0.4-5.9-0.3-11.8-0.4-17.7c0-1.1-0.1-2.1,0.2-3.1
		c0.3-1.5,0.2-2.9,0.1-4.4c-0.2-2.2-0.4-4.3,0.1-6.5c0.3-1,0.2-2.1-0.1-3.1c-0.2-0.5-0.2-1.1-0.2-1.7c0.2-3.1-0.1-6.3-0.2-9.4
		c0-2.3,0.2-4.4,1.8-6.2c1.2-1.3,1.1-1.7-0.7-2.2c-0.8-0.2-1.6-0.4-2.5-0.4c-3.1-0.1-6.3,0.5-9.4,0c-2.8-0.4-5.5,0.9-8.3,0
		c-0.7-0.2-1.2,0.3-1.5,0.9c-0.3,0.8-0.2,1.4,0.5,1.8c2.3,1.3,2.3,3.4,1.7,5.5c-0.3,1.3-0.4,2.5-0.2,3.7c0.5,3.3-0.2,6.7,0.3,10
		c0.1,0.5-0.1,1.1-0.2,1.6c-0.2,0.9-0.3,1.8,0,2.7c0.3,1.2,0.1,2.4,0.3,3.5c0.3,2.2-0.8,4.4-0.1,6.7c0.3,0.9-0.6,1.3-1.3,1.1
		c-2.2-0.6-4.3-0.2-6.5-0.3c-2.3,0-4.7-0.7-7.1,0c-1.4,0.4-2.9,0.5-4.3-0.2c-0.7-0.4-1.3,0-2,0.3c-2,0.8-2.9,0.1-2.8-2
		c0.2-2.9,0.7-5.7,0.2-8.6c-0.2-1,0-2.1,0.2-3.1c0.3-1.8,0.4-3.6,0.2-5.4c-0.4-4-0.6-8.1-0.4-12.2c0.1-1.4,0.3-2.4,1.6-3.1
		c0.7-0.4,1.6-0.9,1.4-1.9c-0.3-1.1-1.4-1.2-2.4-1.4c-0.3-0.1-0.7,0-1,0.1c-1.2,0.3-2.5,0.2-3.8,0.2c-4.4-0.1-8.8-0.1-13.2,0.3
		c-3.7,0.3-3.8,0.4-1.5,3.6c0.8,1.1,1.5,2.4,1,3.7c-0.6,1.8-0.7,3.5-0.3,5.3c0.1,0.5,0,1.1-0.2,1.7c-0.2,0.5-0.1,1.1-0.1,1.6
		c0.3,3.6,0.5,7.1,0.6,10.7c0,0.5-0.2,1.1-0.3,1.7c-0.2,1.8-0.3,3.6,0,5.4c0.2,0.9,0.2,1.8-0.1,2.7c-0.6,2.5-0.8,5,0.1,7.4
		c0.4,0.9,0.3,1.9,0.2,2.9c-0.3,2.8-0.9,5.7,0,8.5c0.1,0.3,0,0.6,0,0.8c-1,3.4-0.2,7-0.3,10.4c-0.1,2.4,0,4.9-0.2,7.3
		c-0.1,0.8,0,1.7,0.1,2.5c0.4,2.9,0.5,5.8,0,8.7c-0.1,0.7,0,1.4,0,2.1c0,1.5,0.1,3.1-1.5,4c-0.6,0.3-1.4,0.8-1,1.6
		c0.4,0.8,1.2,0.8,2,0.7c1-0.2,2-0.3,2.9-0.1c2.4,0.4,4.9,0.5,7.3,0.4c2.8-0.1,5.7,0.8,8.5-0.2c0.2-0.1,0.6,0,0.8,0.1
		c0.7,0.2,1.3,0.2,1.6-0.5c0.3-0.7,0.1-1.3-0.5-1.7c-1.5-1-2-2.2-1.3-3.9c0.1-0.3,0-0.7,0-1c-0.1-1.7-0.3-3.4,0.1-5
		c0.1-0.5,0.1-1-0.1-1.4c-0.6-1.5-0.5-3.2-0.5-4.8c0-2.9,0-5.7,0-8.6c0,0,0,0,0,0c0-3.6,0-7.1,0-10.7c0-1.7,0.3-2.1,2-1.7
		c2.1,0.5,4.2,0.3,6.3,0.1c2.4-0.2,4.7,0,7.1-0.2c2.3-0.2,4.6,0,6.9,0.1c1.5,0,2,0.5,1.9,2c0,0.6-0.1,1.3-0.3,1.9
		c-0.3,1.2-0.6,2.3-0.2,3.5c0.2,0.5,0,1-0.1,1.4c-0.2,1-0.3,2.1,0,3.1c0.3,1.1,0.3,2.2,0.3,3.3c-0.1,2.4,0.3,4.8,0,7.3
		c-0.3,3.3,0,6.7,0,10.1c0,1.4-0.3,2.8-1.1,3.9c-1.8,2.6-1.8,2.6,1.3,3.1c0.7,0.1,1.4,0.2,2.1,0C196.7,163.1,197.6,163,198.6,163.2z
		 M195.1,116.5c-3.2-0.1-6.5-0.9-9.8,0c-0.7,0.2-1.4,0.2-2.1,0.2c-6.7-0.7-13.5,0-20.2-0.3c-1.1,0-1.5,0.2-1.4,1.4
		c0.2,5,0.4,10,0.3,15c-0.1,2.7,0.4,5.4,0.1,8.1c-0.3,2.9,0.6,5.7,0,8.4c0,1.4,0.1,2.8,0,4.1c-0.1,0.8-0.1,2-1.4,2
		c-0.9,0-1.2-0.9-1.1-2.3c0.4-4.5,0.5-9-0.1-13.6c0-0.3-0.1-0.7-0.1-1c0.7-2.7-0.2-5.5,0.6-8.1c0.2-0.6,0.2-1.3,0.1-1.9
		c-0.4-6.9-0.3-13.8-0.4-20.7c-0.1-5.3,0-10.5,0.4-15.8c0.2-2.1,0.1-4.2-0.4-6.2c-0.7-2.7,0.1-5.3,0.5-7.9c0.1-0.4,0.3-0.7,0.7-0.7
		c0.4,0,0.6,0.2,0.8,0.6c0.1,0.2,0.2,0.4,0.2,0.6c-0.8,3.1,1.2,5.9,0.4,9.1c-0.6,2.1-0.2,4.5-0.2,6.7c0,5.7-0.1,11.4-0.3,17
		c0,0.6,0,1.1,0,1.7c0.1,1,0.6,1.4,1.7,1.4c5.2,0.3,10.3-0.5,15.5-0.3c3.1,0.1,6.2,0,9.3,0.7c0.1,0,0.3,0.1,0.4,0
		c2.2-0.9,4.4-0.5,6.6-0.5c1.6,0,3.2-0.3,4.8,0.1c1.4,0.3,1.8,0,1.8-1.5c0-1.3,0-2.5-0.2-3.8c-0.3-1.5-0.4-3.1,0.2-4.6
		c0.1-0.4,0.3-0.9,0.2-1.2c-0.8-2.8,0-5.6-0.1-8.3c0-1-0.1-2-0.2-2.9c-0.3-1.7-0.4-3.3,0.1-5c0.3-0.9,0.5-2,0.1-2.9
		c-0.7-1.8-0.3-3.6-0.3-5.4c0-0.4,0.1-0.8,0.3-1.2c0.5-0.9,1.1-1,1.7-0.1c0.9,1.5,0.8,3.1,0.5,4.7c-0.3,1.6-0.3,3.2-0.1,4.8
		c0.3,2.1,0.2,4.2,0,6.3c-0.3,3.6-0.6,7.1,0.1,10.7c0.1,0.6,0.1,1.3-0.1,1.9c-0.1,0.6-0.3,1.3-0.3,1.9c0.6,6.8-0.4,13.7,0,20.5
		c0.2,2.5,0.6,5,0,7.5c-0.3,1.3,0.5,2.5,0.4,3.7c-0.5,4.4,0.2,8.9-0.4,13.4c-0.1,0.6-0.2,1.2-0.4,1.8c-0.1,0.3-0.3,0.7-0.7,0.6
		c-0.4,0-0.6-0.4-0.7-0.7c-0.1-0.5-0.2-1.1-0.2-1.7c0-2.5,0-5-0.2-7.6c-0.2-2,0.5-4,0.2-6.1c-0.6-4.6,0.1-9.1,0.1-13.7
		c0-0.2,0.1-0.4,0-0.6c-0.8-2.3-0.4-4.7-0.1-7c0.2-1.7-0.5-2.2-2.1-1.6C198.2,116.8,196.7,116.5,195.1,116.5z"/>
	<path class="st1" d="M100.9,164.2c1.5,0.1,3.1,0.2,4.6,0.1c1.7,0,3.5,0.1,5.2-0.4c3.4-1.1,6.7-2.3,9.8-4.2c2.8-1.8,5.5-3.7,7.2-6.7
		c2.5-4.4,4.3-9.2,5.2-14.2c0.6-3.2,0.5-6.3,0.3-9.4c-0.1-1.8-0.7-3.4-1.6-4.9c-1.2-2.2-3-3.9-4.3-5.9c-1.7-2.4-3.8-4.3-6.3-5.7
		c-0.9-0.5-1.8-1-2.7-1.6c-4-2.7-8.5-4.5-12.7-6.8c-2.4-1.3-5.2-2-7.5-3.6c-0.6-0.4-1.3-0.6-1.9-0.8c-3.5-1-5.3-3.4-6-6.9
		c-0.4-1.8,0.2-3.2,1.7-4.2c3-2.1,6.4-3.2,9.9-2.6c4.6,0.8,9.1,2.3,11.9,6.6c0.7,1.1,1.2,2.2,0.7,3.5c-0.3,0.7-0.6,1.6,0.1,2.1
		c0.7,0.5,1.5,0.2,2.2-0.1c0.2-0.1,0.4-0.1,0.6-0.2c1.3-0.5,2.4-1.2,3.5-1.9c3.3-2.3,6.5-4.7,10.1-6.4c1.6-0.7,1.7-1.2,0.8-2.7
		c-0.3-0.5-0.5-1-0.8-1.5c-1.3-2.8-2.6-5.5-4.9-7.8c-1.3-1.3-2.9-2.5-4.1-3.9c-1.7-2-4-2.8-6.2-3.7c-7-2.9-14.5-2-21.8-1.7
		c-5.3,0.2-9.7,3.2-14.3,5.5c-0.2,0.1-0.4,0.4-0.5,0.6C77,77,74.7,78.9,73,81.3c-0.7,1-1.5,1.8-2,2.9c-1.1,2.5-1.3,5.3-1.6,7.9
		c-0.3,3.3,0.5,6.6,1.5,9.9c1.4,4.3,3.5,7.8,7.3,10.4c2.4,1.6,5,3.2,6.9,5.4c0.2,0.2,0.6,0.4,0.9,0.5c2.9,0.7,5.4,2.5,8.1,3.7
		c1.9,0.9,3.7,2,5.7,2.7c2,0.7,4.1,1.5,5.7,3.1c1.3,1.2,2.4,2.6,4.1,3.2c0.3,0.1,0.6,0.4,0.7,0.7c0.9,2.1,2,4.1,1.6,6.6
		c-0.3,1.6-1.4,2.5-1.9,3.9c-0.4,1.1-1.2,1.8-2.4,2.1c-0.7,0.1-1.4,0.4-2,0.6c-3.5,1.5-7,0.7-10.5-0.3c-0.6-0.2-1.2-0.5-1.6-1
		c-0.6-0.7-1.4-1.1-2.2-1.6c-2.2-1.4-3.3-3.6-4.5-5.7c-0.7-1.4-0.3-2.7,0.4-4c0.2-0.4,0.1-0.8-0.2-1.2c-0.4-0.3-0.7-0.3-1.1-0.1
		c-2.3,1.5-4.6,3-6.8,4.5c-0.4,0.3-0.6,0.7-1,1.1c-0.4,0.4-0.8,0.9-1.3,1.1c-1.9,0.6-3.4,2-5,3c-3.3,2.1-3.4,2.5-2.1,6.1
		c0.2,0.5,0.4,0.9,0.7,1.3c0.9,0.9,1.4,1.9,1.7,3.1c0.1,0.5,0.4,0.9,0.7,1.3c3.4,3.2,6.7,6.4,11,8.3
		C89.4,163.3,95.1,164.1,100.9,164.2z M82.2,148.5c-0.5-0.9-1.3-1.7-2-2.4c-0.4-0.5-0.8-1-1.1-1.5c-0.4-0.5-0.3-1.1,0.2-1.5
		c0.6-0.5,1.2-0.5,1.7,0c0.3,0.3,0.6,0.8,0.8,1.2c1,2,2.5,3.5,4.5,4.8c3.6,2.5,7.6,3.9,11.8,4.8c6.8,1.6,12.8,0.1,18-4.5
		c2.6-2.2,4.1-5.3,4.9-8.4c0.4-1.7,0.7-3.5,0.8-5.3c0.1-1.7-0.4-3.3-1.2-4.8c-1.2-2.3-3-4.3-4.3-6.5c-0.3-0.5-0.8-0.8-1.2-1.1
		c-4.3-3-8.7-5.8-13.7-7.7c-2.2-0.9-4.2-2.4-6.4-3.5c-0.4-0.2-0.7-0.6-1.1-0.6c-3.2-0.5-5.4-2.8-8.2-4.2c-2-1-3.6-2.5-4.5-4.5
		c-0.1-0.2-0.2-0.4-0.3-0.6c-2.6-2.9-3.1-6.4-2.7-10c0.3-3.1,1.1-6,3.3-8.4c0.5-0.5,1-1,1.5-1.5c2.5-2.9,5.8-4,9.4-5.1
		c4.3-1.4,8.5-1.1,12.8-0.7c4.6,0.4,8.5,2.3,11.4,5.9c0.8,1,1.7,1.9,2.7,2.6c0.6,0.5,1.2,1.1,0.6,1.9c-0.7,0.8-1.4,0.3-2-0.2
		c-1.6-1.5-3.1-3.1-4.7-4.5c-1.9-1.7-4.1-3.2-6.8-3.3c-0.7,0-1.4-0.3-2-0.6c-0.5-0.2-1.1-0.5-1.6-0.4c-2.7,0.6-5.5,0.4-8.3,0.8
		c-4.3,0.7-7.6,3.2-10.7,5.8c-1.9,1.5-2.7,3.8-3.3,6.3c-0.7,3.1,0.7,5.7,1,8.6c0,0.4,0.2,0.7,0.5,0.9c1.3,0.6,2,1.9,2.9,3
		c0.7,0.8,1.8,1.4,2.5,2.1c2.4,2.2,5.2,3.3,8.1,4.5c1.6,0.6,3.1,1.6,4.7,2.2c5.9,2.2,11.1,5.7,15.9,9.7c1.1,1,2.2,2,3.3,2.9
		c2.1,1.8,3.4,3.8,3.5,6.7c0,1,0.1,2.1,0.7,3c0.2,0.3,0.3,0.7,0.2,1c-0.9,3.2-0.2,6.8-2.4,9.7c-0.8,1.1-1.3,2.5-2,3.7
		c-1.3,2.2-2.9,4-5.5,4.6c-0.2,0-0.5,0-0.6,0.2c-2.2,2.2-5.3,2-8,2.8c-0.8,0.3-1.7,0-2.7,0c-1.6,0.2-3.4-0.1-5-0.3
		c-2.7-0.4-5.4-1.4-7.9-2.5c-1.6-0.7-3-1.9-4.7-2.6C84,150.7,82.9,149.8,82.2,148.5z"/>
	<path class="st1" d="M255,164.2c1.8,0.2,3.6-0.3,5.3,0.6c0.3,0.2,0.8,0,1.2-0.1c0.8-0.2,1.7-0.2,2.5-0.1c3.3,0.5,6.5,0,9.7-1
		c0.6-0.2,1.2-0.3,1.8-0.4c4.3-0.5,8.1-2.5,11.8-4.7c0.5-0.3,0.9-0.7,1.2-1.1c1.2-1.6,2.6-3.1,3.6-4.9c0.7-1.3,1.9-2.3,2.2-3.8
		c0.6-3.3,1.6-6.6,1.5-10c-0.1-3.2,0.1-6.4,0-9.7c0-2.4,0-4.7,0.2-7.1c0.1-1.8,0.4-3.9-0.2-5.7c-0.1-0.5-0.1-1,0-1.4
		c0.4-1.2,0.3-2.3,0.1-3.5c-0.3-1.9-0.6-3.8-0.2-5.6c0.4-1.7,0.4-3.3,0.4-5c-0.1-2.6-1.2-5.2-0.1-7.8c0.1-0.2-0.1-0.5-0.1-0.8
		c-0.6-3.9-1.8-7.6-3.5-11.3c-2-4.4-5.9-6.4-9.4-9c-0.1-0.1-0.3-0.1-0.4-0.1c-1.5-0.1-2.8-0.8-4.2-1.4c-1.4-0.6-2.8-0.9-4.3-0.7
		c-1.5,0.2-2.9-0.2-4.3-0.7c-0.9-0.3-1.9-0.8-2.9-0.6c-2.2,0.6-4.5,0.2-6.7,0.3c-1.3,0-2.7-0.1-4,0c-3.5,0.4-7,0.8-10.2,2.4
		c-2.2,1.1-4.6,1.9-6.3,3.9c-0.3,0.4-0.9,0.6-1.4,0.9c-0.6,0.4-1.2,0.8-1.6,1.4c-1.7,2.4-3.2,4.9-4.1,7.8c-1.2,3.5-1.3,7.1-1.6,10.7
		c-0.3,4.4,0.2,8.8-0.1,13.2c-0.2,4.3-0.2,8.7,0.2,13c0.1,1.5,0.2,3.1-0.1,4.6c-0.3,1.6-0.6,3,0,4.5c0.3,0.6,0.1,1.2-0.1,1.8
		c-0.2,0.5-0.4,0.9-0.3,1.4c1,4.6,0.3,9.4,1.9,13.9c0.9,2.5,1.9,4.9,3.4,7.1c1.6,2.4,4.3,3.5,6.4,5.4c0.2,0.2,0.5,0.3,0.8,0.3
		c1.1,0,2,0.5,3,1C249.1,163.1,252,163.9,255,164.2z M239.6,137.7c-0.6-3.8,0.1-7.5-0.1-11.2c-0.3-4.5,0.1-8.9,0-13.4
		c0-1.3-0.1-2.5,0.3-3.8c0.2-0.6,0.2-1.3,0-1.9c-1.3-3.7-0.6-7.3,0-11c0.1-0.4,0.2-0.8,0.2-1.2c-0.2-1.9,0.4-3.7,0.7-5.5
		c0.7-3.9,2.8-6.6,5.9-9c3.2-2.4,6.7-3.9,10.6-4.7c1-0.2,2-0.2,3.4-0.2c2.4,0.7,5.4,0.3,8.3,0.4c2.1,0.1,4.1,0.7,6.1,1
		c2.7,0.4,4.8,2.2,6.9,3.9c1.7,1.4,3.2,3,3.7,5.4c0.4,1.8,1.7,3.4,2,5.5c0.2,1.2,0.5,2.3,0.3,3.5c-0.3,1.6,0.4,3.2,0.6,4.8
		c0.2,1.6,0.3,3.2-0.3,4.8c-0.6,1.6-0.3,3.2-0.1,4.8c0.3,1.9,0.6,3.8,0,5.8c-0.4,1.1-0.3,2.5,0,3.7c0.5,2,0,4,0.1,6c0.1,2-0.4,4,0,6
		c0.1,0.7,0.1,1.4-0.1,2.1c-0.1,0.6-0.3,1.3-0.2,1.9c0.5,2-0.1,3.9-0.9,5.7c-0.1,0.2-0.2,0.4-0.2,0.6c0.2,2.7-1.9,4.2-3,6.2
		c-1.6,3-3.7,5.2-7.1,5.9c-4,3.2-8.9,2.5-13.5,2.5c-2.3,0-4.6-0.3-6.9-0.3c-1.4,0-2.8-0.3-3.9-1.2c-0.6-0.4-1.2-0.7-1.9-0.9
		c-1-0.2-1.9-0.8-2.7-1.5C243,148.4,240.6,143.5,239.6,137.7z"/>
	<path class="st1" d="M328.5,163c1.8-0.5,3.7-0.9,5.6-0.2c0.6,0.2,1.5,0.3,1.9-0.5c0.4-0.7-0.4-1.1-0.8-1.5
		c-1.8-1.5-2.2-3.4-1.8-5.5c0.3-1.7,0.2-3.3,0.4-5c0.2-3.2-1.1-6.4,0.3-9.5c0.1-0.2-0.2-0.7-0.2-1c-0.4-1.6-0.2-1.7,1.5-1.8
		c2.3-0.1,4.7,0.7,7,0.1c0.4-0.1,1,0.1,1.4,0.2c0.8,0.2,1.5,0.3,2.3,0.2c5.1-0.2,9.7-1.9,14.1-4.4c0.5-0.3,1-0.8,1.4-1.2
		c5.3-5.1,7.3-11.6,7.9-18.6c0-0.4-0.1-0.8-0.2-1.2c-0.2-0.8-0.3-1.5-0.3-2.3c0-4.5,0.2-9,0.1-13.5c-0.1-2.3,1-4.6,0-6.8
		c-0.9-2-0.8-4.2-1.5-6.3c-0.7-2.2-1.6-4.1-3.1-5.8c-0.5-0.5-1-1.1-1.3-1.7c-1-1.9-2.6-3.3-4.5-3.9c-3.4-1-6.6-2.4-10-3.2
		c-1.2-0.3-2.2,0.4-3.3,0.3c-5.1-0.7-10.2-0.3-15.3-0.2c-2.6,0.1-5.2,0.5-7.8,0c-1.7-0.3-3.5-0.6-5.6-0.2c-0.6,0-1.5,0-2.4,0
		c-0.7,0-1.5,0-1.8,0.8c-0.3,1,0.4,1.6,1,2.1c0.2,0.1,0.4,0.2,0.5,0.3c1.2,0.5,1.5,1.4,1.1,2.5c-0.4,1.4-0.4,2.8,0,4.1
		c0.2,0.8,0.3,1.7,0.1,2.5c-0.7,2.5,0,5-0.4,7.5c-0.1,0.4,0,0.9,0.1,1.2c0.4,1.1,0.2,2.2,0.1,3.3c-0.1,1.6-0.7,3.2-0.2,4.8
		c0.6,1.8,0.5,3.5-0.1,5.1c-0.4,1.1-0.6,2.2-0.3,3.3c0.5,2.5,1.3,4.9,0.4,7.4c-0.1,0.4,0,0.8,0.1,1.2c0.2,3.4,0.8,6.8,0,10.2
		c-0.1,0.4,0,0.8,0.1,1.2c0.5,1.7,0.4,3.3,0.1,5c-0.2,1-0.3,2.1-0.1,3.1c0.4,1.9-0.2,3.9,0.1,5.8c0.2,1.1,0.3,2.5,0.1,3.7
		c-0.5,4.2-0.6,8.4,0,12.5c0.2,1.4,0,2.5-1.4,3.2c-0.6,0.3-1.1,0.7-1.4,1.3c-0.3,0.7-0.1,1.3,0.7,1.5c0.5,0.1,1.1,0.1,1.7,0.1
		c2.9,0.2,5.7-0.3,8.6-0.3C325.1,162.9,326.7,163.5,328.5,163z M323.5,145.6c-0.6-3.6-0.7-7.2-0.1-10.8c0.1-0.5-0.1-1-0.2-1.4
		c-0.3-0.7-0.3-1.4-0.1-2.1c0.6-2.3,0.5-4.7,0.2-7.1c-0.1-1.4-0.1-2.9,0-4.3c0.1-2-0.1-3.9,0-5.8c0.2-3.9,0.3-7.8-0.1-11.7
		c-0.1-0.6-0.2-1.3-0.1-1.9c0.7-4.4,0.4-8.8-0.1-13.2c-0.3-3.1,0.5-6.1,0.4-9.2c0-1.3,1-1.9,2.7-1.5c2,0.5,3.9,0.5,5.8,0.3
		c4-0.4,8,0.1,11.9,0.1c2.8,0,5.5,0.3,7.8,2c1,0.7,2.3,0.4,3.2,1.4c2.8,2.9,5.5,5.9,5.4,10.4c0,1.5,0.4,3,0.5,4.6
		c0.5,5.7-0.4,11.3-0.2,17c0.1,3.6-0.8,7.1-2.5,10.3c-2.6,5-6.7,7.6-12.4,7.3c-1.1-0.1-2.1,0-3.2,0.1c-2.4,0.2-4.9,0.6-7.3,0.2
		c-1-0.1-2.1-0.1-3.1,0.2c-1.7,0.6-3.3-0.2-5-0.3c-1.7,0-1.6,0-1.6,1.7c0,2.5,0.1,5-0.4,7.4c-0.1,0.6-0.3,1.3-0.1,1.9
		c0.6,1.5,0.5,3,0.4,4.6c-0.1,1.7-0.2,3.5,0.3,5.2c0.3,1.2,0.1,2.5-0.4,3.7c-0.1,0.3-0.4,0.6-0.8,0.6c-0.5,0-0.8-0.3-1-0.7
		c-0.1-0.3-0.2-0.5-0.2-0.8c0.2-2.2-0.9-4.4,0.1-6.6C323.7,146.8,323.6,146.1,323.5,145.6z"/>
	<path class="st1" d="M325.5,85.2c0,7.3-0.2,14.5,0.1,21.8c0.1,4.5-0.5,8.9-0.2,13.4c0,1.8,0.1,3.6,0,5.5c-0.1,2.4,0.1,2.6,2.4,2.5
		c2,0,3.9-0.3,5.9-0.1c2,0.3,4.1,0.4,6.1,0c1.9-0.4,3.8-0.2,5.6-0.4c4.8-0.4,9-1.7,11.1-6.8c1.4-3.3,3.1-6.4,2.1-10.2
		c-0.1-0.4,0-0.8,0.1-1.2c0.2-0.8,0.3-1.5,0-2.3c-0.2-0.6-0.2-1.2,0-1.9c0.5-1.4,0.3-2.8-0.1-4.1c-0.3-1.1-0.4-2.2,0-3.3
		c0.5-1.5-0.4-10-1.2-11.4c-0.9-1.6-2-3.1-3.3-4.3c-1.7-1.6-3.5-3.1-6.1-2.7c-0.3,0-0.7,0-1-0.1c-4.8-1.3-9.7-0.6-14.6-0.6
		c-1.9,0-3.7,0.2-5.6,0.2c-1.5,0-1.9,0.2-1.6,1.8C325.4,82.4,325.5,83.8,325.5,85.2z M333.3,106.9c0.6-6.1,0.2-12.2,0.3-18.2
		c0-1.9,0.1-2,1.9-1.7c0.5,0.1,1,0.3,1.4,0.2c2.2-0.8,4.3,0.3,6.4,0.5c4.6,0.6,8.6,6.1,7.2,10.5c-0.4,1.4-0.4,2.8-0.1,4.2
		c0.4,2.9,0.5,5.9,0.2,8.8c-0.3,3.7-1.8,6.9-5.4,8.6c-0.3,0.1-0.7,0.4-1,0.4c-2.7-0.1-5.2,1.2-7.6,1.1c-0.5,0-0.7,0-0.9,0
		c-2.4,0-2.6-0.3-2.3-2.7c0.3-2.5,0.4-5-0.1-7.5C333.1,109.5,333.1,108.2,333.3,106.9z"/>
</g>
<g>
	<path class="st2" d="M70.9,223.1c0.4-0.4,0.5-0.9,0.5-1.5c-0.3-6.3,0.1-12.7-0.1-19c-0.1-4.2,0.1-8.4,0.1-12.6
		c0-1.2,0.2-1.5,1.5-1.4c4.2,0.2,8.4,0,12.6,0.1c3,0.1,5.8,0.7,8.4,2.3c3.1,2,4.4,5,4.8,8.5c0.2,1.5,0.3,3.1-0.2,4.6
		c-1.3,4.1-3.8,6.9-8.1,8.1c-3.2,0.9-6.4,0.9-9.7,0.8c-1.6-0.1-1.5,0-1.7,1.5c-0.3,2.4,0.2,4.8,0.1,7.3c-0.1,1-0.3,1.5-1.4,1.5
		c-2.2,0.2-4.5-0.1-6.7,0.1C70.9,223.3,70.9,223.2,70.9,223.1z M82.8,195.6c-0.9,0-1.9,0-2.8,0c-0.8,0-1.1,0.3-1.1,1
		c0,2.9,0,5.8,0,8.7c0,0.7,0.3,1,1.1,1c1.5-0.1,3-0.2,4.6,0c2.8,0.4,5.4-1.3,6.3-4c0.7-2.1-0.7-5.5-2.9-6.1
		C86.2,195.7,84.5,195.6,82.8,195.6z"/>
	<path class="st2" d="M301.6,206.4c0,3.6,0.1,7.2,0,10.8c0,1.8-0.3,3.7,0,5.5c0.1,0.5-0.1,0.9-0.8,0.8c-2-0.3-4-0.3-6,0.1
		c-0.7,0.1-0.8-0.2-0.8-0.8c0.1-5.4,0.1-10.8,0.1-16.1c0-5.4-0.3-10.9-0.1-16.3c0-1.5,0.2-1.8,1.7-1.6c1.7,0.2,3.4,0.2,5.1,0
		c0.9-0.1,1.4,0.2,2,1c1.5,2.3,2.9,4.7,4.4,7c1.2,1.8,2.2,3.7,3.3,5.5c0.8,1.3,0.9,1.3,1.8,0c2.6-4.2,5.2-8.3,7.6-12.6
		c0.3-0.5,0.6-0.9,1.2-0.8c2.2,0.4,4.4-0.1,6.6-0.1c1.2,0,1.4,0.1,1.2,1.3c-0.4,2.1,0,4.1,0,6.2c0,2.7-0.2,5.4-0.1,8.1
		c0.2,3.9-0.1,7.8,0.1,11.7c0.1,2.4-0.3,4.7,0.1,7.1c0.1,0.4-0.3,0.7-0.7,0.6c-2-0.7-3.9,0.2-5.8,0.1c-1-0.1-1.4-0.3-1.4-1.3
		c0.1-1.5,0.4-3,0.3-4.4c-0.2-3.2-0.1-6.4-0.2-9.5c0-1.7,0.2-3.5,0.2-5.3c0-0.4,0-0.7,0-1.1c0-0.2,0-0.5-0.3-0.5
		c-0.1,0-0.3,0.2-0.4,0.3c-0.8,1.7-2.3,2.9-3.2,4.5c-1.6,2.7-3.6,5.1-5.2,7.8c-0.9,1.5-1.1,1.5-2,0.1c-1.7-2.5-3.3-5.2-5-7.7
		c-1-1.4-1.9-3-2.9-4.4c-0.2-0.2-0.3-0.6-0.7-0.5c-0.3,0.1-0.3,0.5-0.3,0.8C301.6,203.8,301.4,205.1,301.6,206.4z"/>
	<path class="st2" d="M121,202.6c3.4,0.4,6.9-0.3,10.3,0c0.8,0.1,1.2,0.3,1.2,1.1c0.1,1.7-0.3,3.4,0,5.1c0.1,0.5-0.3,0.6-0.7,0.6
		c-3.4-0.2-6.8,0.1-10.2,0.1c-1.2,0-2.5-0.1-3.7-0.2c-1.5-0.2-1.8,0.1-1.8,1.6c0,1.6,0.2,3.2,0,4.8c-0.1,0.8,0.2,1.3,1.1,1.1
		c1.1-0.3,2.2,0.1,3.3,0.2c2.9,0.1,5.8-0.3,8.7-0.3c1.8,0,3.5,0.6,5.3,0.1c0.6-0.2,0.8,0.5,0.7,1c-0.4,1.5-0.3,3.1-0.3,4.6
		c0,1.1-0.5,1.2-1.4,1.2c-3.7,0-7.4,0.1-11.2,0c-1.9-0.1-3.9,0.1-5.8,0.1c-2.5,0-4.9-0.2-7.4,0c-0.6,0.1-0.7-0.4-0.6-0.8
		c0.5-2.5,0-5,0.1-7.4c0.1-2.3-0.3-4.7,0.2-7c0-0.2,0-0.4,0-0.5c-0.6-3.6,0.2-7.3-0.2-11c-0.2-2.2,0.2-4.5-0.1-6.7
		c-0.1-1,0.4-1.5,1.4-1.4c2.2,0.4,4.4,0,6.6,0c2.9,0.1,5.8,0,8.7,0c1.7,0,3.3,0.1,5,0.2c1.1,0,2.1-0.1,3.2-0.2
		c0.9-0.1,1.4,0.2,1.4,1.3c0,1.7-0.2,3.3,0.1,5c0.1,0.6-0.2,0.7-0.7,0.7c-3.5-0.4-7,0.3-10.5-0.1c-2.2-0.2-4.4,0.3-6.6,0.1
		c-0.6-0.1-0.9,0.2-0.9,0.8c0,1.8,0.2,3.5,0,5.3c-0.1,0.8,0.6,0.9,1.2,0.9C118.5,202.6,119.8,202.6,121,202.6z"/>
	<path class="st2" d="M266.8,223.8c-3.4,0.2-6.6-1.1-9.5-3.5c-0.5-0.4-1-0.9-1.3-1.4c-1.8-2.9-2.9-5.9-3-9.5c0-4.8,0-9.7-0.1-14.5
		c0-1.6-0.2-3.3,0-5c0.1-1,0.2-1.5,1.3-1.3c1.7,0.3,3.4-0.2,5.1,0c0.8,0.1,1.1,0.3,1.1,1.2c0,3.9,0.2,7.8,0.1,11.7
		c-0.1,3.2,0,6.4,0.3,9.6c0.3,2.7,2,4.2,4.1,5.1c2.4,1.1,4.9,1,7.3-0.5c1.5-0.9,2.4-2.1,2.7-3.8c0.5-2.7,1-5.4,0.4-8.3
		c-0.3-1.6,0.3-3.2,0.1-4.9c-0.3-2.1,0.2-4.2-0.1-6.3c-0.1-0.9-0.1-1.9-0.1-2.8c-0.1-1,0.4-1.2,1.3-1.2c1.9,0,3.8,0.4,5.7,0.1
		c0.6-0.1,1,0.3,0.9,1c-0.1,1.1,0.2,2.2-0.2,3.4c-0.1,0.4-0.2,0.8-0.1,1.2c0.4,2.3-0.1,4.6,0,6.9c0.1,1.5,0.2,2.9,0.3,4.4
		c0.2,2.9-0.1,5.8-0.8,8.4c-1.2,4.3-4,7.7-8.4,9.2C272,223.9,269.6,223.9,266.8,223.8z M278.9,206.7c-0.1,0-0.2-0.1-0.2-0.1
		c-0.1,0-0.2,0.1-0.2,0.2c0,0.2,0.2,0.3,0.3,0.2C278.9,206.9,278.9,206.8,278.9,206.7z M271.8,218c-0.1,0.1-0.2,0.1-0.1,0.2
		c0,0.1,0.1,0.2,0.2,0.1c0,0,0.1-0.1,0.1-0.1C271.9,218.2,271.8,218.1,271.8,218z"/>
	<path class="st2" d="M370.7,223.3c-0.8,0-1.7,0-2.5,0c-1.6,0-1.6,0-2.2-1.6c-0.6-1.7-1.3-3.3-1.8-5c-0.3-0.9-0.8-1.2-1.7-1.2
		c-4.1,0.1-8.1,0.1-12.2,0.1c-1.1,0-1.6,0.5-2,1.4c-0.7,1.8-1.4,3.6-2.1,5.4c-0.3,0.9-0.8,1.2-1.7,1.2c-1.8-0.1-3.7-0.4-5.5,0
		c-0.8,0.2-1.1-0.2-0.6-1c1.6-2.9,2.4-6,3.8-9c1.8-3.8,3.2-7.8,4.8-11.6c1.8-4.2,3.7-8.3,5.4-12.5c0.4-1.1,1.1-1.4,2.3-1.2
		c1.2,0.3,2.4,0.3,3.7,0c0.9-0.2,1.5,0,2,1.1c1.1,2.4,1.9,4.9,3.1,7.3c0.7,1.3,1.1,2.9,1.7,4.3c2.6,5.9,4.9,11.9,7.7,17.7
		c0.7,1.4,0.9,2.9,1.8,4.2c0.4,0.5-0.2,0.7-0.6,0.7C373,223.6,371.9,223.5,370.7,223.3C370.7,223.4,370.7,223.4,370.7,223.3z
		 M356.4,208.9C356.4,208.9,356.4,208.9,356.4,208.9c1.2,0,2.4,0,3.6,0c0.4,0,1,0,0.7-0.6c-1.3-3.3-2.7-6.5-4-9.8
		c-0.1-0.1-0.2-0.2-0.4-0.4c-0.1,0.1-0.2,0.3-0.3,0.4c-1,2.2-1.9,4.4-2.9,6.6c-0.4,0.9-0.7,1.8-1.1,2.6c-0.3,0.7-0.1,1.1,0.7,1.1
		C354,208.9,355.2,208.9,356.4,208.9z"/>
	<path class="st2" d="M208.5,223.4c-0.9,0-1.9-0.1-2.8,0c-1,0.1-1.4-0.3-1.7-1.2c-0.6-1.8-1.3-3.5-1.9-5.3c-0.3-0.9-0.8-1.3-1.8-1.3
		c-4,0.1-8,0.1-12,0.1c-1.3,0-1.8,0.6-2.2,1.7c-0.6,1.8-1.4,3.5-2,5.3c-0.3,0.7-0.7,1.1-1.4,1.1c-2,0-4-0.4-6,0
		c-0.5,0.1-0.7-0.4-0.4-0.8c1.4-2.5,2.2-5.4,3.4-8c1.5-3.5,3.4-6.9,4.4-10.6c0.3-1.2,1-2.4,1.6-3.6c0.3-0.6,0.7-1.2,0.9-1.9
		c1-3.2,2.9-6,3.8-9.2c0.3-1,1.1-1.4,2.1-1.2c1.4,0.3,2.7,0.4,4,0c0.8-0.2,1.4,0.1,1.7,1c1.8,4.4,3.6,8.7,5.5,13
		c2.4,5.5,4.6,11,7.2,16.4c0.6,1.3,0.8,2.8,1.7,4.1c0.4,0.6,0,0.8-0.6,0.8C210.8,223.6,209.7,223.5,208.5,223.4
		C208.5,223.4,208.5,223.4,208.5,223.4z M209.1,220.9L209.1,220.9L209.1,220.9z M194.3,209C194.3,208.9,194.3,208.9,194.3,209
		c1.1,0,2.3,0,3.4,0c0.7,0,1-0.1,0.7-1c-1.1-3.1-2.4-6.1-3.8-9.1c-0.1-0.2,0-0.7-0.4-0.6c-0.3,0-0.3,0.3-0.4,0.5
		c-0.7,1.6-1.4,3.3-2.1,4.9c-0.5,1.3-1.1,2.5-1.6,3.8c-0.6,1.5-0.5,1.6,1.1,1.6C192.3,209,193.3,209,194.3,209z M194.3,190.8
		c-0.2,0-0.3,0.1-0.3,0.3c0,0.1,0.2,0.2,0.2,0.2c0.2,0,0.3-0.1,0.3-0.3C194.5,190.9,194.4,190.9,194.3,190.8z M189.1,196
		c-0.1-0.1-0.3-0.1-0.4-0.2c0,0.1-0.1,0.2-0.1,0.3c0.1,0.2,0.2,0.3,0.4,0.2C189.1,196.3,189.2,196.2,189.1,196z"/>
	<path class="st2" d="M161.5,220.9c-0.3,0.7,0.5,1.8-0.2,2.5c-0.7,0.6-1.7-0.2-2.6-0.1c-1.4,0.1-2.7,0-4.1,0.2
		c-0.8,0.1-1.1-0.2-1.1-1c0.1-0.9,0.4-1.8,0.3-2.6c-0.4-3.8,0.5-7.6-0.2-11.5c-0.2-1.4-0.2-2.8,0.1-4.2c0.2-0.8,0.2-1.7,0.1-2.5
		c-0.1-1.5-0.4-2.9,0-4.4c0.3-1.3-0.1-1.2-1.4-1.5c-2.2-0.4-4.5,0.3-6.7-0.1c-0.2,0-0.4,0-0.5,0c-0.7-0.2-1.6,0.6-2,0
		c-0.3-0.5-0.1-1.4-0.1-2.1c-0.1-1.2,0.2-2.5-0.2-3.7c-0.2-0.8,0.3-1.2,1.1-1.2c4.9,0.1,9.8,0.1,14.7,0.1c1.8,0,3.7-0.1,5.5-0.2
		c2.2-0.1,4.4,0.3,6.6,0c1.2-0.2,1.4,0.1,1.2,1.5c-0.2,1.5-0.4,3.1,0,4.6c0.3,1-0.2,1.2-1.1,1.2c-2.7-0.1-5.3-0.3-8-0.2
		c-1.7,0.1-2.1,0.3-1.7,2c0.3,1.5,0.2,2.9,0,4.4c-0.1,1.4-0.2,2.7,0.1,4.1c0.1,0.5,0.2,1.1,0.1,1.6c-0.3,2.2,0,4.3-0.1,6.4
		C161.3,216.4,161.8,218.5,161.5,220.9z"/>
	<path class="st2" d="M229.6,202.6c0,4.1,0,8.2,0,12.3c0,1.6,0.1,1.7,1.7,1.7c4.6-0.1,9.2-0.1,13.9-0.1c1.8,0,1.9,0.1,1.9,2
		c0,1.2,0,2.5,0,3.7c0,0.9-0.3,1.3-1.3,1.3c-3.9-0.2-7.8,0.1-11.7,0c-3.8-0.1-7.6,0-11.3,0.1c-0.7,0-0.9-0.2-0.8-0.8
		c0.2-3.7-0.2-7.3,0.2-11c0-0.4,0.1-0.8,0-1.2c-0.3-5.3,0.1-10.5,0-15.8c0-1.5-0.2-3-0.2-4.4c0-1.4,0.3-1.8,1.6-1.6
		c1.6,0.2,3.2,0.2,4.8,0c0.9-0.1,1.3,0.2,1.3,1.2C229.6,194.1,229.6,198.3,229.6,202.6C229.6,202.6,229.6,202.6,229.6,202.6z
		 M225.5,198.9L225.5,198.9L225.5,198.9z M233.3,222.4c0.1-0.1,0.3-0.1,0.4-0.2c0.1-0.1-0.1-0.2-0.2-0.1
		C233.4,222.1,233.4,222.2,233.3,222.4c0,0.1-0.3,0-0.2,0.3C233.2,222.5,233.2,222.5,233.3,222.4z M232.6,219.6
		c-0.3,0-0.6-0.2-0.8,0.1c0,0,0,0.1,0,0.1C232.2,220,232.3,219.7,232.6,219.6L232.6,219.6z M236.7,220.8c-0.1-0.2-0.2-0.4-0.4-0.5
		c-0.2,0-0.3,0.2-0.2,0.4c0.1,0.2,0.1,0.5,0.4,0.5C236.6,221.1,236.7,221,236.7,220.8z"/>
</g>
</svg>
