<?xml version="1.0" encoding="utf-8"?>
<!-- Generator: Adobe Illustrator 24.1.0, SVG Export Plug-In . SVG Version: 6.00 Build 0)  -->
<svg version="1.1" id="Layer_1" xmlns="http://www.w3.org/2000/svg" xmlns:xlink="http://www.w3.org/1999/xlink" x="0px" y="0px"
	 viewBox="0 0 310.2 158.8" style="enable-background:new 0 0 310.2 158.8;" xml:space="preserve">
<style type="text/css">
	.st0{fill:#E3E0DA;}
	.st1{fill:#8B5E41;}
	.st2{fill:#333333;}
</style>
<g>
	<g>
		<path class="st0" d="M221.6,33c-0.1-0.5-0.2-1-0.3-1.5c-0.2-1.1-0.5-2.1-0.3-3.1c0.2-1,0-2-0.1-2.9c0-0.2-0.1-0.5-0.1-0.7
			c-0.2-1.2-0.6-2.2-1.1-3.2c-0.4-0.8-0.7-1.5-0.9-2.3c-0.6-2.7-2.3-4.4-3.9-5.7l-0.4-0.3c-2-1.6-4-3.3-6.7-3.7
			c-0.7-0.1-1.5-0.3-2.2-0.4c-1.3-0.3-2.6-0.5-4-0.6c-0.9,0-1.8,0-2.7,0c-2,0-3.9,0.1-5.5-0.4l-0.1,0c-1.5,0-2.5,0-3.5,0.2
			c-4.1,0.8-7.6,2.4-10.8,4.8c-3.5,2.7-5.4,5.5-6.1,9.3c-0.1,0.4-0.2,0.9-0.3,1.3c-0.3,1.4-0.6,2.9-0.5,4.4c0,0.2,0,0.4-0.1,0.6
			c0,0.2-0.1,0.3-0.1,0.5l-0.1,0.9c-0.5,3.4-1,6.9,0.2,10.3c0.2,0.5,0.2,1,0,1.6c-0.4,1.3-0.3,2.6-0.3,3.9c0,1.9,0,3.7-0.1,5.6
			c-0.1,2.6-0.1,5.2,0,7.8c0.1,1.5,0,3.1,0,4.6c-0.1,2.2-0.2,4.4,0.2,6.6c1.1,6.3,3.7,11.2,8.1,14.9c1,0.9,1.9,1.4,3,1.6
			c0.7,0.2,1.2,0.4,1.7,0.8c1.1,0.9,2.5,1.3,4.3,1.3c1.1,0,2.1,0.1,3.2,0.1c1.2,0.1,2.5,0.2,3.8,0.1c0.8,0,1.6,0,2.4,0
			c0.6,0,1.1,0,1.7,0c3.3,0,6.6-0.3,9.6-2.6c4-0.8,6-3.7,7.4-6.1c0.3-0.6,0.7-1.1,1.1-1.7c1-1.4,2.1-2.8,1.9-4.8
			c0,0,0.1-0.2,0.1-0.2L220,74c0.8-1.8,1.5-3.7,0.9-6c-0.1-0.4,0-0.9,0.1-1.3l0.1-0.3c0.1-0.6,0.2-1.4,0.1-2.3
			c-0.2-1.1-0.1-2.2,0-3.4c0.1-0.8,0.1-1.7,0.1-2.5c0-0.7,0-1.4,0-2.2c0.1-1.3,0.1-2.6-0.2-3.9c-0.3-1.3-0.3-2.6,0-3.5
			c0.6-1.9,0.4-3.7,0.1-5.5l-0.1-0.9c-0.2-1.4-0.4-2.8,0.1-4.1C221.9,36.3,221.8,34.5,221.6,33z M186.5,85.6
			c-2.8-0.8-5.1-2.4-6.8-4.6c-2.1-2.7-3.7-5.2-4.4-8h0c0-0.1-0.1-0.2-0.1-0.3c0,0,0-0.1-0.1-0.1c0,0,0,0,0,0c0.2-1.7,0-3.4-0.2-5
			c-0.2-1.6-0.4-3.2-0.2-4.8c0.5-4.2,0.5-7.8-0.1-11.2c-0.1-0.9,0-1.8,0.1-2.8c0.1-0.4,0.1-0.9,0.1-1.3c0.1-0.9,0-1.8-0.1-2.7
			c0-0.7-0.1-1.3-0.1-1.9c0-1.9-0.1-3.8-0.1-5.7c-0.2-3.7-0.4-7.6,0.5-11.3c0.5-2.1,1.2-4.8,2.8-7c2.6-3.4,5.1-5.3,7.9-6.2
			c2.4-0.7,4.6-1,6.6-0.9c0.6,0,1.2-0.1,1.8-0.2c0.5-0.1,0.9-0.2,1.3-0.2c4.2-0.1,7.6,0.3,10.8,1.1c2,0.5,3.7,1.6,5.3,2.8
			c0.7,0.5,1.4,0.9,2.1,1.4c0.7,0.4,1.2,1.1,1.6,2.3c0.9,2.3,1.5,4.7,2.1,7.1c0.3,1,0.5,2,0.8,3c0.1,0.3,0,0.5-0.1,0.8
			c-0.1,0.2-0.1,0.4-0.2,0.5c-0.2,0.8-0.1,1.6,0,2.5c0,0.2,0.1,0.3,0.1,0.5c0.1,0.2,0.1,0.4,0.1,0.6c-0.2,1.9-0.1,3.9-0.1,5.8
			c0,2.4,0.1,4.9-0.3,7.3c-0.1,0.8-0.1,1.6,0,2.4c0,0.5,0.1,1,0.1,1.4c0.2,2.3,0.4,4.7,0.1,7c-0.3,2.6-0.3,5.2,0.1,7.7
			c0.3,2.2,0.2,3.9-0.5,5.5c-0.3,0.8-0.6,1.6-0.8,2.4c-0.2,0.5-0.3,1.1-0.5,1.6c-0.6,1.7-1.6,3-2.9,4.6c-4.5,5.7-11,6.4-16.7,6.6
			c-0.4,0-0.9,0-1.2,0l-0.5,0C192.3,86.5,189.3,86.4,186.5,85.6z"/>
		<path class="st0" d="M136.6,10.1c-0.5-0.8-1-0.9-1.4-0.9c-0.3,0-0.8,0.2-1.2,1c-0.2,0.5-0.4,1-0.4,1.4c0,0.5,0,1,0,1.6
			c-0.1,1.3-0.2,2.6,0.4,4c0.3,0.7,0.2,1.5-0.1,2.6c-0.6,1.9-0.4,3.7-0.2,5.2c0.1,0.9,0.2,1.8,0.2,2.9c0,1-0.1,2-0.1,2.9
			c-0.1,1.8-0.3,3.7,0.2,5.5c0.1,0.2,0,0.5-0.2,0.9c-0.6,1.6-0.5,3.3-0.2,4.8c0.2,1.1,0.2,2.2,0.2,3.7c0,0.6-0.1,0.9-0.2,1
			c-0.1,0.1-0.3,0.1-1,0c-1.2-0.3-2.3-0.2-3.4-0.1c-0.5,0-1,0-1.5,0c-0.5,0-1,0-1.4,0c-1.7-0.1-3.5-0.1-5.3,0.6c0,0,0,0-0.1,0
			l-0.1,0c-2.5-0.6-5.1-0.6-7.5-0.7c-0.6,0-1.2,0-1.9,0c-2.4-0.1-4.8,0-7.1,0.2c-2.7,0.1-5.6,0.3-8.3,0.1c-1-0.1-1.2-0.4-1.2-1
			c-0.1-0.5,0-1.1,0-1.6c0.3-5.8,0.4-11.5,0.3-17c0-0.6,0-1.3-0.1-1.9c-0.1-1.6-0.2-3.2,0.2-4.7c0.5-1.7,0.1-3.3-0.2-4.8
			c-0.3-1.5-0.6-2.8-0.2-4.2c0.1-0.3,0-0.6-0.1-0.8l0-0.1c-0.2-0.6-0.7-0.9-1.3-0.9c-0.6,0-1,0.5-1.1,1.1c-0.1,0.5-0.2,1.1-0.3,1.6
			c-0.4,2.1-0.8,4.2-0.2,6.5c0.4,1.8,0.6,3.9,0.4,6c-0.4,5-0.5,10.2-0.4,15.8c0.1,2.4,0.1,4.8,0.1,7.1c0,4.5,0.1,9.1,0.3,13.6
			c0,0.6,0.1,1.2-0.1,1.7c-0.4,1.5-0.4,3-0.4,4.4c0,1.3,0,2.5-0.3,3.7c-0.1,0.4,0,0.7,0,1l0,0.2c0.5,3.9,0.6,8.1,0.1,13.4
			c-0.1,1.1,0.1,1.9,0.5,2.4c0.3,0.3,0.6,0.4,1,0.4c0,0,0,0,0,0c1.7,0,1.8-1.5,1.8-2.3l0-0.2c0.1-1,0.1-1.9,0-2.9c0-0.4,0-0.8,0-1.2
			c0.4-1.6,0.2-3.1,0.1-4.7c-0.1-1.2-0.2-2.5-0.1-3.7c0.2-1.6,0.1-3.3,0-4.9c-0.1-1.1-0.1-2.2-0.1-3.3c0.1-4.4,0-8.8-0.2-13.1
			l-0.1-2c0-0.5,0.1-0.7,0.1-0.8c0.1-0.1,0.4-0.1,0.8-0.1c2.8,0.1,5.7,0.1,8.4,0c3.9-0.1,7.8-0.1,11.7,0.3c0.8,0.1,1.6,0,2.3-0.2
			c2.2-0.6,4.5-0.4,6.8-0.2c0.9,0.1,1.9,0.2,2.8,0.2c0.3,0,0.6,0,0.9,0c1.2,0.1,2.5,0.1,3.8-0.3c0.9-0.3,1.2-0.2,1.3-0.1
			c0.1,0.1,0.2,0.3,0.2,1.2c0,0.4-0.1,0.7-0.1,1c-0.2,2-0.5,4.1,0.3,6.2c0,0,0,0.1,0,0.2c0,0.1,0,0.2,0,0.3c0,1.5-0.1,3-0.2,4.5
			c-0.2,3-0.3,6.2,0.1,9.2c0.1,1,0,2-0.1,3.1c-0.1,1-0.2,2-0.1,3c0.2,2.4,0.2,4.8,0.2,7.5c0,0.6,0.1,1.1,0.2,1.8
			c0.1,0.6,0.6,1,1.1,1.1c0.6,0.1,1-0.3,1.3-0.9c0.2-0.6,0.3-1.3,0.4-2c0.3-2.3,0.3-4.7,0.2-7c0-2.1-0.1-4.3,0.2-6.4
			c0.1-0.7-0.1-1.3-0.2-1.9c-0.1-0.6-0.3-1.2-0.2-1.8c0.4-2,0.3-4,0.1-6c0-0.6-0.1-1.1-0.1-1.7c-0.2-3.2-0.1-6.5,0-9.7
			c0.1-3.5,0.3-7.2,0-10.8c0-0.4,0.1-0.8,0.2-1.3c0-0.2,0.1-0.3,0.1-0.5c0.1-0.6,0.2-1.3,0.1-2.1c-0.7-3.3-0.4-6.8-0.1-10.1l0-0.5
			c0.2-1.9,0.3-4.1,0-6.4c-0.2-1.7-0.2-3.2,0.1-4.6C137.5,13.4,137.6,11.7,136.6,10.1z"/>
		<path class="st0" d="M294.1,28.2c-0.1-0.6-0.1-1.2-0.2-1.7c-0.1-1-0.3-1.8-0.3-2.8c0.1-4.5-2.4-7.6-5.5-10.8
			c-0.6-0.6-1.4-0.8-2-0.9c-0.5-0.1-0.9-0.2-1.3-0.5c-2.3-1.7-4.9-2-8.1-2.1c-1.4,0-2.7-0.1-4.1-0.2c-2.6-0.1-5.3-0.3-7.9,0
			c-2.2,0.2-4,0.2-5.7-0.3c-1.4-0.4-2.2,0-2.6,0.3c-0.3,0.3-0.7,0.8-0.7,1.7c0,1.3-0.1,2.7-0.2,4c-0.2,1.7-0.4,3.5-0.2,5.3
			c0.5,4.1,0.8,8.5,0.1,13c-0.1,0.6,0,1.2,0,1.8l0,0.3c0.4,3.9,0.3,7.9,0.1,11.7c0,1,0,1.9,0,2.8c0,1,0.1,2,0,3
			c-0.1,1.4-0.2,2.9,0,4.4c0.2,2.4,0.4,4.7-0.2,6.9c-0.2,0.8-0.2,1.6,0.1,2.4c0.2,0.4,0.3,0.8,0.2,1.1c-0.6,3.5-0.6,7.1,0.1,11
			l0,0.2c0.1,0.4,0.2,0.9,0.1,1.2c-0.6,1.5-0.5,3-0.3,4.4c0.1,0.8,0.2,1.6,0.1,2.4c0,0.3,0,0.6,0.2,1c0.3,0.6,0.8,1,1.4,1
			c0,0,0,0,0.1,0c0.5,0,1-0.4,1.2-1c0.6-1.5,0.7-2.8,0.4-4c-0.4-1.6-0.4-3.2-0.2-5.1c0.1-1.6,0.2-3.2-0.4-4.7
			c-0.1-0.4,0-0.9,0.1-1.4l0-0.2c0.5-2.2,0.5-4.5,0.4-6.7l0-1.2c0-0.4,0-0.8,0-0.9c0.1-0.1,0.7,0,1.1,0c0.5,0,1.1,0.1,1.7,0.2
			c1.1,0.2,2.3,0.4,3.5,0c0.9-0.3,1.8-0.3,2.9-0.2c1.9,0.3,3.8,0.1,5.6-0.1c0.6-0.1,1.2-0.1,1.9-0.2l0.5,0c0.9-0.1,1.8-0.1,2.7,0
			c5.8,0.2,10.1-2.3,12.8-7.6c1.8-3.5,2.7-7.1,2.5-10.6c-0.1-2.5,0-5,0.1-7.5C294.2,34.6,294.4,31.4,294.1,28.2z M290.9,40.6
			c0.2,0.6,0.2,1.2,0,1.9c-0.2,0.6-0.2,1.1-0.1,1.5c0.8,3.1-0.3,5.8-1.5,8.7c-0.2,0.4-0.3,0.8-0.5,1.2c-2.1,5.1-6.4,6.1-10.6,6.5
			c-0.7,0.1-1.4,0.1-2.1,0.1c-1.2,0-2.4,0.1-3.6,0.3c-1.7,0.3-3.5,0.3-5.9,0c-0.6-0.1-1.2-0.1-1.8-0.1c-0.8,0-1.5,0-2.2,0.1
			c-0.6,0-1.2,0.1-1.9,0.1c-0.8,0-1.5,0-1.7-0.2c-0.2-0.2-0.2-1-0.2-1.8c0.1-1.6,0-3.3,0-4.8l0-0.7c-0.2-2.5-0.1-5,0-7.5
			c0.1-1.9,0.2-3.9,0.1-5.9c-0.1-5-0.1-10.1-0.1-15c0-2.3,0-4.5,0-6.8c0-1.5-0.1-2.9-0.4-4.3c-0.1-0.7-0.1-1,0-1
			c0.1-0.1,0.5-0.2,1.1-0.1c1.1,0,2.2,0,3.2-0.1c0.8,0,1.6-0.1,2.4-0.1c1.1,0,2.3-0.1,3.4-0.1c3.6-0.1,7.4-0.3,11,0.7
			c0.4,0.1,0.8,0.2,1.2,0.1c2.4-0.3,4.1,1.1,5.7,2.6c1.2,1.1,2.2,2.5,3.2,4.2c0.7,1.3,1.6,9.7,1.2,10.9c-0.5,1.4-0.3,2.6,0,3.6
			c0.4,1.5,0.5,2.7,0.1,3.8C290.6,39.1,290.6,39.9,290.9,40.6z"/>
		<path class="st0" d="M55.9,64.8c0-2.7-1.2-5-3.6-7.1c-0.5-0.5-1.1-1-1.6-1.5c-0.5-0.5-1.1-1-1.7-1.5c-5.3-4.6-10.5-7.9-15.9-10.1
			c-0.8-0.3-1.7-0.8-2.4-1.2c-0.7-0.4-1.5-0.8-2.2-1.1c-2.9-1.2-5.6-2.4-7.9-4.5c-0.3-0.3-0.7-0.6-1.1-0.9c-0.5-0.4-1-0.8-1.4-1.2
			c-0.2-0.3-0.5-0.6-0.7-0.9c-0.6-0.8-1.3-1.7-2.3-2.2c-0.2-0.1-0.2-0.3-0.2-0.5c-0.1-1-0.3-2-0.5-2.9c-0.4-1.9-0.8-3.6-0.3-5.6
			c0.6-2.2,1.3-4.5,3.2-6c3.5-2.8,6.5-4.9,10.6-5.5c1.2-0.2,2.5-0.2,3.8-0.3c1.5-0.1,3-0.1,4.5-0.4c0.4-0.1,0.8,0.1,1.3,0.4
			c0.6,0.3,1.3,0.6,2.2,0.6c2.7,0.2,4.8,1.8,6.4,3.3c0.9,0.8,1.7,1.7,2.6,2.5c0.7,0.7,1.4,1.4,2.1,2.1c0.4,0.4,1,0.8,1.6,0.8
			c0.4,0,0.8-0.2,1.1-0.6c0.3-0.4,0.5-0.8,0.4-1.2c-0.1-0.7-0.6-1.2-1-1.5c-0.9-0.7-1.7-1.6-2.6-2.6c-3-3.6-6.9-5.7-11.7-6.3
			c-4-0.4-8.5-0.9-13.1,0.5l-0.4,0.1c-3.5,1.1-6.7,2.1-9.2,5c-0.2,0.3-0.5,0.5-0.8,0.8c-0.2,0.2-0.5,0.4-0.7,0.7
			c-2.6,2.7-3.3,6-3.6,8.6c-0.6,4.5,0.3,7.8,2.7,10.4c0.1,0.1,0.1,0.2,0.1,0.3l0.1,0.1c0.9,2.1,2.5,3.7,4.7,4.9
			c0.9,0.5,1.8,1.1,2.6,1.7c1.7,1.1,3.4,2.3,5.6,2.7c0.1,0,0.3,0.1,0.4,0.3c0.2,0.1,0.3,0.2,0.5,0.3c0.9,0.5,1.7,1,2.5,1.5
			c1.2,0.8,2.5,1.6,3.8,2.1c4.3,1.8,8.5,4.3,13.5,7.9c0.4,0.3,0.8,0.6,1,0.9c0.6,1,1.2,2,1.9,2.9c0.8,1.2,1.6,2.3,2.2,3.6
			c0.9,1.8,1.2,3.3,1.1,4.6c-0.2,2.1-0.5,3.8-0.9,5.2c-1,3.5-2.7,6.2-4.9,8.1c-5.2,4.4-11.2,5.7-17.7,4.1c-4.9-1.2-8.4-2.8-11.5-5
			c-2.1-1.5-3.4-2.9-4.2-4.7c-0.3-0.6-0.6-1-0.9-1.3c-0.7-0.7-1.5-0.8-2.4-0.1c-0.7,0.6-0.9,1.4-0.4,2.1c0.4,0.6,0.7,1.1,1.2,1.6
			l0.3,0.3c0.6,0.7,1.2,1.3,1.6,2c0.7,1.3,1.8,2.4,3.3,3c0.8,0.4,1.6,0.9,2.4,1.4c0.7,0.5,1.5,1,2.3,1.3c2.4,1.1,5.2,2.3,8,2.7
			l0.3,0c1.5,0.2,3.3,0.5,4.8,0.4c0.4,0,0.7,0,1,0.1c0.3,0,0.6,0.1,0.9,0.1c0.3,0,0.6,0,0.9-0.1c0.8-0.2,1.6-0.4,2.4-0.5
			c2-0.3,4.1-0.7,5.8-2.3c0,0,0.1,0,0.2,0c0.1,0,0.1,0,0.2,0c3-0.6,4.7-2.8,5.9-4.7c0.3-0.5,0.6-1,0.8-1.6c0.4-0.8,0.7-1.5,1.2-2.1
			c1.5-2,1.8-4.2,2-6.3c0.1-1.2,0.3-2.4,0.6-3.5c0.1-0.5,0-1.1-0.3-1.4C56,66.8,55.9,65.8,55.9,64.8z"/>
	</g>
	<g>
		<path class="st0" d="M58.8,37c0.2,0.5,0.8,0.6,1.3,0.4c0.6-0.2,0.9-0.7,1-1.2c0-0.8-0.6-1.1-1.2-1.3c-1-0.4-1.8-1.1-2.4-2
			c-0.4-0.5-0.9-0.9-1.3-1.3c-0.3-0.2-0.6-0.4-0.9-0.2c-0.4,0.3-0.4,0.7-0.4,1.1c0.1,0.6,0.5,1,0.9,1.4C56.8,34.9,58.1,35.6,58.8,37
			z"/>
		<path class="st0" d="M52.1,33.1c-0.5,0-0.8,0.2-1,0.6c-0.2,0.5,0.1,1,0.5,1.3c1.5,1,3,2.1,3.8,3.8c0.2,0.5,0.7,0.9,1.4,0.4
			c0.5-0.4,0.5-1,0-1.5c-1.1-1.3-2.3-2.6-3.5-3.9C53,33.4,52.6,33.1,52.1,33.1z"/>
		<path class="st0" d="M105.6,8.1c1.6,1.2,3,2.5,3.9,4.3c0.3,0.5,0.8,0.5,1.3,0.2c0.5-0.2,0.8-0.6,0.8-1.1c-0.1-0.5-0.5-0.7-0.8-0.9
			c-1.4-1.1-3-2-3.8-3.7c-0.3-0.6-0.8-0.6-1.2-0.2C105.3,7.1,105,7.7,105.6,8.1z"/>
		<path class="st0" d="M272.4,33.3c0.1,0.1,0.4,0.2,0.5,0.1c0.3-0.2,0.4-0.5,0.3-1c0-0.2-0.1-0.5-0.2-0.7c-0.3-1.9-1.9-2.7-3.1-3.8
			c-0.3-0.3-0.7-0.9-1.2-0.5c-0.4,0.3-0.2,0.9,0,1.4C269.5,30.6,271.1,31.9,272.4,33.3z"/>
		<path class="st0" d="M67.3,32.5c0.4-0.3,0.4-0.8,0.1-1.1c-1.3-1.4-2.3-3-3.9-4c-0.2-0.1-0.4-0.2-0.5-0.2c-0.4,0-0.7,0.2-0.9,0.5
			c-0.2,0.5-0.1,1,0.3,1.3c1.3,1.2,2.6,2.3,3.9,3.5C66.7,32.7,67,32.8,67.3,32.5z"/>
		<path class="st0" d="M151.3,63.2c0-0.4,0-0.8-0.3-1.1c-1.1-1.2-2.3-2.4-3.5-3.6c-0.1-0.1-0.4-0.2-0.6-0.2
			c-0.3,0.1-0.2,0.4-0.2,0.7c0.1,2.2,1.9,3.4,3,4.9c0.2,0.3,0.5,0.8,1,0.7C151.3,64.4,151.3,63.8,151.3,63.2z"/>
		<path class="st0" d="M135.5,99.1c-0.1-0.1-0.3-0.1-0.4-0.1c-0.4,0-0.4,0.3-0.4,0.6c0.4,1.4,3.8,4,5.3,4.1c0.4,0,0.7,0,0.9-0.4
			c0.1-0.4-0.1-0.7-0.3-0.9C139.1,100.9,137.4,99.8,135.5,99.1z"/>
		<path class="st0" d="M55.4,96.1c-0.2-0.2-0.5-0.2-0.7-0.3c-0.9,0-1.2,0.5-0.9,1.2c0.8,1.4,2,2.5,3.1,3.7c0.4,0.4,0.9,0.3,1.3,0
			c0.5-0.4,0.6-1,0.2-1.5C57.6,98.1,56.6,97,55.4,96.1z"/>
		<path class="st0" d="M105.6,101.6c-0.4-0.5-1-0.8-1.4-1.3c-0.7-0.7-1.4-1.3-2.6-1c-0.4,0.1-1.1-0.5-1.3,0.2
			c-0.1,0.5,0.5,0.8,0.9,1.1c1.1,0.8,2.2,1.7,3.4,2.4c0.6,0.4,1.6,1.2,2.2,0.4C107.2,102.7,106.1,102.1,105.6,101.6z"/>
		<path class="st0" d="M61.5,96.5c-1.3-0.8-2.4-1.6-3.1-3c-0.1-0.3-0.2-0.8-0.7-0.5c-0.4,0.2-0.6,0.5-0.8,1.1
			c0.1,0.2,0.2,0.6,0.4,0.8c1.3,1.1,2.5,2.2,3.3,3.7c0.2,0.4,0.6,0.3,0.9,0.1C62.5,98.1,62.6,97.1,61.5,96.5z"/>
		<path class="st0" d="M300.5,63.9c-0.1-0.1-0.2-0.1-0.3-0.1c-0.3-0.1-0.5,0-0.6,0.2c-0.6,0.7-0.8,1.4,0,2.2c1,1.1,2.3,1.8,3.4,2.7
			c0.3,0.3,0.6,0.7,1,0.2c0.3-0.3,0.4-0.8,0.1-1.2C302.9,66.5,301.7,65.2,300.5,63.9z"/>
		<path class="st0" d="M112.4,63.5c-0.7-0.4-1.1-1.1-1.5-1.7c-0.9-1.3-2.2-1.8-3.6-2.2c-0.3,0-0.5,0-0.5,0.3c0,0.2,0.1,0.4,0.2,0.5
			c1,0.7,1.6,1.7,2.4,2.7c0.6,0.8,1.6,1.2,2.5,1.5c0.4,0.1,0.9,0.3,1.2-0.1C113.3,63.8,112.8,63.7,112.4,63.5z"/>
		<path class="st0" d="M150.8,39.6c-1.1-0.9-2-2.2-2.9-3.3c-0.3-0.3-0.5-0.8-1-0.6c-0.5,0.2-0.3,0.7-0.4,1c0,0.7,0.1,1.3,0.7,1.7
			c0.8,0.4,1.2,1.1,1.7,1.8c0.3,0.4,0.8,0.8,1.2,1.1c0.3,0.2,0.6,0.4,0.9,0.1c0.3-0.3,0.2-0.6,0.2-1
			C151.3,40.2,151.1,39.8,150.8,39.6z"/>
		<path class="st0" d="M272.9,93.8c0.3-0.9-0.3-1.5-0.9-1.9c-0.7-0.6-1.4-1.1-2.2-1.6c-0.4-0.2-0.6-1-1.2-0.5
			c-0.4,0.4-0.5,1-0.3,1.6c0.2,0.5,0.5,1,1,1.3c1,0.7,2.1,1.3,2.9,2.3c0.5,0.6,0.4,0,0.4-0.3C272.8,94.3,272.9,94.1,272.9,93.8z"/>
		<path class="st0" d="M109.6,66.7c-0.1-0.9-0.6-1.7-1.3-2.3c-1-0.8-2.2-1.5-3-2.6c-0.2-0.2-0.5-0.3-0.7-0.1
			c-0.2,0.2-0.2,0.5-0.1,0.8c1.1,1.9,2.3,3.6,4,5C109.3,68,109.6,67.5,109.6,66.7z"/>
		<path class="st0" d="M151.3,51.6c0-0.7-0.5-1.2-1.1-1.4c-1-0.5-1.7-1.1-2.2-2.2c-0.2-0.4-0.3-0.9-0.9-0.6
			c-0.5,0.2-0.3,0.7-0.4,1.2c0.1,1.9,1.7,2.8,3,3.9c0.3,0.3,0.7,0.6,1.1,0.4C151.5,52.6,151.3,52.1,151.3,51.6z"/>
		<path class="st0" d="M146.8,54.6c0.8,1.6,2.1,2.9,3.3,4.2c0.1,0.1,0.4,0.2,0.5,0.2c0.3-0.1,0.2-0.5,0.2-0.8c0-0.2-0.1-0.6-0.2-0.9
			c-0.5-1.9-2.3-2.9-3.4-4.4c-0.2-0.3-0.7-0.1-0.8,0.3C146.5,53.7,146.6,54.2,146.8,54.6z"/>
		<path class="st0" d="M276.5,74.4c-0.6-0.2-1.5-0.7-1.9,0c-0.3,0.5,0.7,0.7,0.9,1.2c0.5,0.8,1.1,1.6,1.8,2.3c0.5,0.5,1,0.8,1.7,0.7
			c0.3-0.2,1.5,0.2,0.9-0.7C279.1,76.5,278.3,74.9,276.5,74.4z"/>
		<path class="st0" d="M151,11.4c-1-0.8-2.3-1.3-3-2.5c-0.2-0.3-0.4-0.6-0.8-0.4c-0.4,0.2-0.2,0.6-0.2,1c0.5,2,2.2,3.1,3.7,4.4
			c0.4,0.3,1.3-0.5,1.3-1.2C151.9,12,151.4,11.7,151,11.4z"/>
		<path class="st0" d="M111.4,102c-1-0.5-1.3-1.6-2-2.3c-0.6-0.7-1.3-1.3-2.1-1.6c-0.5,0-0.9,0.2-1.1,0.6c-0.2,0.2-0.2,0.5,0.1,0.7
			c1.4,1.2,2.8,2.5,4.2,3.7c0.4,0.3,0.8,0.2,1.1-0.2C111.7,102.6,111.7,102.2,111.4,102z"/>
		<path class="st0" d="M302.6,60.5c-0.6-0.4-1-0.1-1.3,0.4c-0.4,0.7-0.1,1.3,0.5,1.6c1.3,0.6,2.3,1.5,3.1,2.7
			c0.2,0.3,0.5,0.4,0.8,0.6c0.4,0.1,0.7-0.1,0.8-0.5c0-0.1,0-0.3-0.1-0.4C305.2,63.4,304.3,61.6,302.6,60.5z"/>
		<path class="st0" d="M226.3,97.6c-1.3-0.7-2.3-1.8-3.2-3c-0.2-0.3-0.6-0.4-0.9-0.4c-0.4,0-0.9-0.1-1.1,0.4c-0.2,0.4,0,0.8,0.2,1
			c1.3,0.9,2.3,2.1,3.5,3.2c0.5,0.6,1.8,0,1.8-0.8C226.5,98,226.4,97.7,226.3,97.6z"/>
		<path class="st0" d="M275.2,78.5c0.2-0.4-0.2-0.6-0.4-0.9c-1.2-1.1-2.9-1.8-3.7-3.4c-0.1-0.3-0.5-0.3-0.8-0.3
			c-0.6,0.1-1.2,0.4-0.7,1.2c1.1,1.8,2.6,3.1,4.7,3.5C274.7,78.9,275.1,78.9,275.2,78.5z"/>
		<path class="st0" d="M33.9,26.7c0.5,0.6,1.1,1,1.8,0.4c0.6-0.6,0-1.1-0.4-1.6c-0.1-0.2-0.3-0.3-0.4-0.4c-1-0.7-2.2-1.3-2.6-2.6
			c0-0.1-0.3-0.2-0.5-0.4c-0.4,0.3-1,0.3-1.2,0.7c-0.3,0.5,0.1,0.8,0.5,1C32.2,24.5,33,25.6,33.9,26.7z"/>
		<path class="st0" d="M234.9,78.4c-0.9-0.4-1.3-1.2-1.9-1.8c-0.5-0.6-1.4-0.8-1.9-1.5c-0.4,0-0.5,0.2-0.6,0.5
			c-0.1,0.8,0,1.5,0.6,2.1c0.9,0.7,1.7,1.5,2.5,2.1c0.4,0.3,0.9,1,1.4,0.3C235.5,79.5,235.6,78.7,234.9,78.4z"/>
		<path class="st0" d="M285.8,77.2c-1.2-0.8-2.4-1.7-3.4-2.7c-0.4-0.4-0.9-0.4-1.5-0.4c-0.2,0-0.7-0.1-0.9,0.3
			c-0.3,0.5,0.2,0.8,0.5,1c1.2,1,2.7,1.5,3.6,2.9c0.3,0.4,0.9,0.2,1.4,0.2c0.3,0,0.6-0.1,0.7-0.4C286.4,77.6,286.1,77.3,285.8,77.2z
			"/>
		<path class="st0" d="M65.9,27c1.3,1.1,2.7,2,3.6,3.4c0.2,0.3,0.5,0.4,0.9,0.2c0.4-0.2,0.7-0.4,0.8-1.1c-0.1-0.1-0.2-0.4-0.3-0.6
			c-1.4-1-2.8-2-3.9-3.5c-0.4-0.5-0.9-0.1-1.3,0.2C65.2,26.3,65.6,26.7,65.9,27z"/>
		<path class="st0" d="M200.1,100.8c-0.4-0.1-0.9-0.4-1.2,0c-0.3,0.4,0.1,0.8,0.4,1.1c0.7,0.8,1.4,1.5,2.2,2.3
			c0.4,0.4,0.9,0.7,1.5,0.6c0.4-0.1,1,0,1.3-0.5c0.2-0.4-0.2-0.8-0.5-1.1C202.7,102.1,201.6,101.3,200.1,100.8z"/>
		<path class="st0" d="M112.7,59.4c-0.1-0.1-0.4,0-0.6,0.1c-0.2,0.2-0.1,0.4,0.1,0.5c1.3,0.8,1.9,2.1,3,3.2c0.6,0.7,1.2,1.1,1.7,0.9
			c0.8-0.1,1.3,0.2,1.6-0.2c0.1-0.1,0-0.4-0.1-0.5C116.8,61.7,114.9,60.3,112.7,59.4z"/>
		<path class="st0" d="M231,79.6c-0.1-0.2-0.4-0.3-0.7-0.1c-0.6,0.5-0.8,2-0.3,2.6c1,1.1,2.4,1.9,3.6,2.7c0.3,0.2,0.5,0.1,0.5-0.4
			c0-0.2,0-0.6-0.2-0.9C233,82.2,231.7,81.2,231,79.6z"/>
		<path class="st0" d="M198.1,27.2c0.6,0.5,1.3-0.1,2-0.2c0.2,0,0.3-0.2,0.3-0.4c0-0.3-0.3-0.5-0.5-0.6c-1.2-0.3-2-1.1-2.5-2.3
			c-0.4-0.7-1.2-1-2-0.9c-0.7,0-1.2,0.3-0.6,1C195.8,25,196.9,26.1,198.1,27.2z"/>
		<path class="st0" d="M150.4,80.8c0.2,0.3,0.5,0.1,0.6-0.2c0.2-0.6,0.6-1.2-0.1-1.7c-1.2-0.9-2.3-2.1-3.2-3.3
			c-0.2-0.2-0.4-0.4-0.7-0.4c-0.5,0.1-0.4,0.5-0.4,0.9c0.1,0.7,0.2,1.4,0.7,1.9C148.1,79.1,149.5,79.7,150.4,80.8z"/>
		<path class="st0" d="M108.9,95.8C108.9,95.8,108.9,95.8,108.9,95.8C108.9,95.8,108.9,95.8,108.9,95.8L108.9,95.8z"/>
		<path class="st0" d="M104.9,92.2c0.2,0.6,0.7,1.1,1.2,1.4c0.9,0.7,1.9,1.4,2.8,2.1c0.7-2,0.7-2-1.1-3c-0.7-0.4-1.2-0.9-1.7-1.5
			c-0.4-0.5-0.6-1.6-1.4-1.2C104.1,90.5,104.7,91.5,104.9,92.2z"/>
		<path class="st0" d="M197.9,103.4c-0.8-0.8-1.7-1.5-2.4-2.3c-0.6-0.6-1.3-0.7-2.1-0.5c-0.3,0.1-0.5,0.2-0.4,0.6
			c0.3,1,3.4,3.4,4.7,3.4c0.2,0,0.7,0,0.8-0.2C198.8,103.9,198.2,103.6,197.9,103.4z"/>
		<path class="st0" d="M71.5,71.9c-0.7-0.7-1.4-1.3-2.2-2c-0.3-0.3-0.7-0.9-1.2-0.3c-0.3,0.4-0.3,1.1,0.1,1.3
			c1.5,0.7,1.6,2.4,2.6,3.4c0.3,0.3,0.5,1,1.1,0.7c0.4-0.2,0.2-0.8,0.3-1.1C72.5,73.1,72.1,72.4,71.5,71.9z"/>
		<path class="st0" d="M63.1,35c0.6,0.2,0.9,0,1.1-0.6c0-0.1,0-0.3-0.1-0.4c-1.4-1.5-2.8-3-4-4.6c-0.4-0.5-0.9-0.2-1.1,0.3
			c-0.3,0.7-0.1,1.2,0.5,1.6c1.1,0.6,1.7,1.6,2.5,2.6C62.2,34.3,62.5,34.8,63.1,35z"/>
		<path class="st0" d="M47.6,99.1c-0.2-0.2-0.5-0.3-0.7-0.4c-0.5,0.2-0.9,0.2-1.2,0.5c-0.2,0.3,0,0.7,0.3,0.9
			c1.1,1.1,2.2,2.1,3.3,3.2c0.3,0.3,0.6,0.3,1,0.3c0.3,0,0.6,0,0.7-0.3c0.2-0.3,0-0.6-0.2-0.8C49.8,101.4,48.7,100.2,47.6,99.1z"/>
		<path class="st0" d="M271.8,80.6c-0.8-0.8-1.8-1.3-2.5-2.3c-0.1-0.2-0.3-0.6-0.6-0.4c-0.3,0.1-0.2,0.5-0.1,0.8
			c0.4,2.1,1.9,3.4,3.2,4.7c0.2,0.2,0.5,0.7,0.8,0.4c0.3-0.2-0.1-0.6,0.1-1.1C273.2,81.9,272.5,81.3,271.8,80.6z"/>
		<path class="st0" d="M307.2,59.7c-0.9-0.4-1.2-1.3-1.7-2c-0.4-0.5-0.8-1-1.2-1.4c-0.4-0.4-0.9-0.4-1.2,0.2
			c-0.4,0.8-0.5,1.6,0.4,1.9c1.4,0.6,2.2,1.6,3.1,2.7c0.2,0.3,0.5,0.6,0.8,0.4c0.2-0.1,0.2-0.5,0.2-0.6
			C307.8,60.3,307.7,59.9,307.2,59.7z"/>
		<path class="st0" d="M298.2,73.3c-1.4-0.8-2.2-2.1-3-3.4c-0.2-0.3-0.4-0.6-0.8-0.6c-0.4,0-0.6,0.3-0.8,0.6
			c-0.4,0.5-0.2,0.9,0.1,1.3c1,1.4,2.4,2.3,3.7,3.3c0.4,0.3,0.8,0.1,1.1-0.3C298.7,73.8,298.4,73.5,298.2,73.3z"/>
		<path class="st0" d="M218.5,96.1c-0.4-0.4-1,0.1-1.3,0.5c-0.5,0.5,0.1,0.6,0.4,0.9c0.9,0.9,1.8,1.8,2.7,2.7c0.4,0.4,0.9,0.9,1.6,1
			c0.4,0,0.7-0.1,0.9-0.5c0-0.1,0-0.2,0-0.2C221.3,99,220,97.5,218.5,96.1z"/>
		<path class="st0" d="M70.1,82.4c-1.2-0.8-2.3-1.6-2.4-3.2c0-0.3-0.3-0.6-0.7-0.7c-0.5,0.2-0.6,0.7-0.8,1.2
			c-0.3,0.6-0.2,1.1,0.4,1.4c1.3,0.7,2.1,1.8,2.9,2.9c0.2,0.3,0.5,0.7,1,0.4c0.4-0.3,0.4-0.7,0.3-1.1C70.8,83,70.5,82.7,70.1,82.4z"
			/>
		<path class="st0" d="M95.4,102.6c-1.4-0.8-2.7-1.7-3.5-3.2c-0.4-0.7-1.1-0.5-1.8-0.5c-0.2,0-0.5-0.1-0.7,0.2
			c-0.2,0.3,0.2,0.5,0.3,0.7c0.8,0.7,1.5,1.5,2.3,2.2c0.9,0.7,1.8,1.4,2.9,1.7c0.3,0.1,0.8,0.2,0.9-0.2
			C96.1,103,95.7,102.7,95.4,102.6z"/>
		<path class="st0" d="M131.2,99.1c-0.2-0.3-0.9-0.3-1.1-0.4c-0.6-0.1-0.9,0-1.1,0.3c-0.1,0.3-0.1,0.6,0.1,0.8
			c1.5,1.2,2.9,2.3,4.4,3.4c0.2,0.2,0.7,0.1,1,0.1c0.2,0,0.4,0.1,0.5-0.2c0-0.1-0.1-0.2-0.2-0.3C133.7,101.4,132.1,100.6,131.2,99.1
			z"/>
		<path class="st0" d="M304.9,34.5c-0.4-0.3-0.6,0.1-0.5,0.5c0.3,1.4,0.5,2.9,2.1,3.6c0.5,0.2,0.9,0.6,1.4,0.9
			c0.3,0.2,0.3,0.8,0.8,0.9c0.1-0.4,0.1-0.8,0.2-1.3c0-0.1,0-0.4-0.1-0.5C307.9,36.8,306.3,35.7,304.9,34.5z"/>
		<path class="st0" d="M142.6,99.1c-0.4-0.4-1.4,0-1.7,0.3c-0.5,0.6,0.4,0.9,0.7,1.2c0.8,0.8,1.6,1.5,2.5,2.2c0.5,0.4,1,0.7,1.7,0.8
			c0.3,0,0.6,0,0.6-0.4c0-0.1,0-0.2,0-0.2C145.1,101.7,143.9,100.3,142.6,99.1z"/>
		<path class="st0" d="M105.4,19.6c1,0.9,2,1.8,3.1,2.5c0.2,0.1,0.3,0.4,0.5,0.2c0.3-0.2,0.2-0.5,0.2-0.7c0-0.6,0-1.1-0.4-1.5
			c-1-1-2-2-3-2.9c-0.3-0.3-0.6-0.3-0.8,0.2C104.8,18.3,104.6,19,105.4,19.6z"/>
		<path class="st0" d="M227.7,88c-0.3-0.3-0.7-0.2-0.9,0.1c-0.2,0.3-0.4,0.6-0.1,1c1.2,1.4,2.3,2.8,3.9,3.8c0.6,0.4,0.9,0,1-0.6
			c0-0.1,0-0.3-0.1-0.4C230.2,90.6,229,89.3,227.7,88z"/>
		<path class="st0" d="M304.9,51.3c-0.2-0.3-0.5-0.2-0.7,0c-0.6,0.6-0.5,2.1,0.3,2.6c1.2,0.6,2.3,1.4,3,2.5c0.1,0.1,0.3,0.3,0.5,0.3
			c0.2,0,0.3-0.3,0.3-0.6c-0.1-0.3-0.2-0.7-0.3-1.1C307.4,53.4,305.8,52.6,304.9,51.3z"/>
		<path class="st0" d="M262.8,99.8c-0.6-1.1-1.7-1-2.8-1c-0.2,0-0.5,0.1-0.6,0.2c-0.2,0.3,0.1,0.5,0.3,0.7c0.9,0.7,2.1,1,2.7,1.9
			c0.8,1.4,2,1.7,3.5,1.7C264.9,102.2,263.6,101.2,262.8,99.8z"/>
		<path class="st0" d="M266,103.4L266,103.4C266,103.4,266,103.4,266,103.4C266,103.4,266,103.4,266,103.4z"/>
		<path class="st0" d="M299.2,68.5c-0.4-0.4-0.9-0.7-1.3-1c-0.5-0.3-1-0.2-1.3,0.2c-0.4,0.6,0.2,0.7,0.5,0.9c0.6,0.4,0.7,1,1.1,1.5
			c0.7,1,1.6,1.5,2.6,2c0.2-0.1,0.4-0.2,0.6-0.3c0.2-0.2,0.2-0.5,0-0.7C300.7,70.2,300,69.3,299.2,68.5z"/>
		<path class="st0" d="M150.1,86.7c0.2,0.2,0.4,0.5,0.7,0.4c0.2-0.1,0.2-0.5,0.3-0.6c0-0.8-0.1-1.4-0.6-1.9c-1-1.1-2.1-2-2.9-3.2
			c-0.1-0.2-0.4-0.5-0.7-0.2c-0.1,0.1-0.2,0.4-0.2,0.6c0.1,0.8,0.2,1.5,0.8,2.1C148.3,84.8,149.2,85.8,150.1,86.7z"/>
		<path class="st0" d="M150.5,27.7c-1.3-0.7-1.9-2.2-3.2-2.9c-0.9,2.5,0.7,3.7,2.4,4.9c0.4,0.3,0.9,0.9,1.4,0.5c0.5-0.4,0-1-0.2-1.6
			C150.9,28.2,150.7,27.8,150.5,27.7z"/>
		<path class="st0" d="M147.2,24.7C147.3,24.7,147.3,24.7,147.2,24.7C147.3,24.7,147.3,24.7,147.2,24.7L147.2,24.7z"/>
		<path class="st0" d="M109.3,32.6c-0.1-0.3,0-0.7-0.2-1.1c-0.8-1.4-2.3-1.9-3.5-2.8c-0.4-0.3-0.2,0.1-0.3,0.2
			c-0.3,0.6-0.6,1.3,0.2,1.8c1.1,0.7,1.8,1.8,2.7,2.6c0.2,0.2,0.5,0.6,0.9,0.4C109.3,33.5,109.2,33.1,109.3,32.6z"/>
		<path class="st0" d="M308.2,49.1c-1-0.5-1.6-1.5-2.3-2.4c-0.4-0.5-0.7-1.5-1.5-1c-0.6,0.4-0.1,1.3,0.2,1.9
			c0.1,0.3,0.4,0.6,0.7,0.8c1.1,0.7,1.9,1.6,2.6,2.7c0.2,0.3,0.4,0.8,0.7,0.7c0.6-0.2,0.1-0.7,0.2-0.9
			C308.9,50.1,308.9,49.5,308.2,49.1z"/>
		<path class="st0" d="M147,32.4c0.1,0.3,0.2,0.6,0.4,0.7c1.2,0.7,2.3,1.5,2.8,2.9c0.1,0.2,0.5,0.4,0.7,0.2c0.1-0.1,0.2-0.3,0.3-0.4
			c0-1.2-1.3-3.1-3-4.4c-0.4-0.3-0.7-1.2-1.3-0.8C146.4,31,146.8,31.8,147,32.4z"/>
		<path class="st0" d="M104.8,23.7c0.1,1.3,2.6,3.9,3.8,4.2c0.8,0.1,0.5-0.5,0.6-0.7c0.1-0.9-0.3-1.5-1-1.8c-1-0.5-1.7-1.2-2.3-2
			c-0.2-0.3-0.4-0.8-0.9-0.6C104.7,22.9,104.8,23.4,104.8,23.7z"/>
		<path class="st0" d="M185.4,62.6c-0.1-0.1-0.3-0.2-0.4-0.3c-0.3,0.1-0.3,0.3-0.4,0.5c-0.2,1.3,2,4.7,3.3,5.2
			c0.4,0.2,0.7,0,0.7-0.4c0.1-0.6,0-1.1-0.4-1.6C187.3,64.8,186.3,63.7,185.4,62.6z"/>
		<path class="st0" d="M108.9,73.5C108.9,73.5,108.9,73.5,108.9,73.5C108.9,73.5,108.9,73.5,108.9,73.5L108.9,73.5z"/>
		<path class="st0" d="M107.3,69.7c-0.6-0.4-0.9-1-1.4-1.6c-0.3-0.3-0.5-0.7-1-0.5c-0.4,0.2-0.5,0.7-0.4,1.1c0,0.4,0.1,1,0.4,1.1
			c1.8,0.8,2.5,2.6,4,3.6C109.5,71.7,108.7,70.6,107.3,69.7z"/>
		<path class="st0" d="M267.8,99.3c-0.3-0.5-0.9-0.3-1.4-0.3c-0.3,0-0.8-0.2-0.9,0.1c-0.2,0.4,0.4,0.4,0.6,0.7
			c0.4,0.5,0.7,1,1.2,1.5c0.8,1,1.7,1.8,2.9,2.3c0.3,0.1,0.7,0.1,0.9-0.2c0.2-0.3,0-0.5-0.2-0.8C270,101.5,268.7,100.5,267.8,99.3z"
			/>
		<path class="st0" d="M151.1,74.7c-0.7-1.9-2.5-3-3.3-4.7c-0.1-0.1-0.2-0.1-0.3-0.2c-0.4,0-0.4,0.3-0.5,0.5
			c-0.1,0.9-0.1,1.8,0.7,2.5c0.9,0.8,1.9,1.7,2.8,2.5c0.2,0.2,0.4,0.7,0.8,0.4C151.5,75.5,151.3,75.1,151.1,74.7z"/>
		<path class="st0" d="M106.5,82.9c0.4,0.3,0.7,0.7,1,1c0.4,0.4,0.9,1.3,1.4,0.9c0.4-0.3,0.3-1.3,0.1-1.9c-0.3-0.8-0.9-1.4-1.7-1.8
			c-0.9-0.5-1.7-1.1-2.2-2.1C104.7,80.6,105.3,81.8,106.5,82.9z"/>
		<polygon class="st0" points="105.1,79 105.1,79 105.1,79 		"/>
		<path class="st0" d="M214.3,98.3c-0.1-0.1-0.4,0-0.6,0.2c-0.2,0.2-0.1,0.4,0.1,0.6c0.6,0.7,1.3,1.3,1.9,1.9
			c0.5,0.6,0.9,1.2,1.6,1.6c0.7,0.4,1.9,0,1.9-0.6c-0.1-0.1-0.2-0.3-0.3-0.5C217.7,99.9,215.8,99.3,214.3,98.3z"/>
		<path class="st0" d="M108.7,76.7c-0.3-0.4-0.6-0.8-1-1.1c-0.8-0.7-1.7-1.4-2.6-2.1c-0.6,1.2-0.7,2.2,0.9,2.8
			c0.7,0.3,1,0.9,1.5,1.5c0.4,0.5,0.9,1.7,1.6,1.2C109.7,78.6,109.1,77.5,108.7,76.7z"/>
		<path class="st0" d="M105.1,73.5C105.1,73.5,105.1,73.5,105.1,73.5C105.1,73.5,105.1,73.5,105.1,73.5L105.1,73.5z"/>
		<path class="st0" d="M232.2,70.3c-0.1-0.1-0.2-0.2-0.4-0.2c-0.3,0-0.5,0.1-0.4,0.7c0.2,2,1.8,3.1,3.2,4.2c0.2,0.1,0.5,0.2,0.5,0
			c0.1-0.7,0.9-1.4,0.1-2.1C234.2,71.9,233.2,71.1,232.2,70.3z"/>
		<path class="st0" d="M231.2,57.5c-0.4,0-0.6,0.3-0.6,0.7c0,0.8,0.2,1.6,0.8,2.1c1.1,0.9,2.2,1.7,3,2.9c0.1,0.2,0.5,0.4,0.7,0.2
			c0.1-0.1,0.2-0.4,0.2-0.6C235.4,62.1,231.8,57.6,231.2,57.5z"/>
		<path class="st0" d="M294,74.6c-1-0.7-2.2-1.2-2.6-2.6c-0.1-0.4-0.3-0.8-0.9-0.7c-0.5,0.1-1,0.4-1.1,0.9c-0.2,0.6,0.2,1,0.7,1.1
			c1.2,0.4,2,1.3,2.8,2.1c0.4,0.4,0.8,0.8,1.4,0.8c0.4,0,0.7-0.1,0.8-0.5C295,75.2,294.4,74.9,294,74.6z"/>
		<path class="st0" d="M230.6,53.2c0,0.7,0.3,1.3,0.9,1.5c1.5,0.7,2.4,2.1,3.6,3.2c0.6-1.3,0.3-2.1-0.9-3.1c-0.9-0.7-2-1-2.6-2
			c-0.2-0.3-0.3-0.8-0.7-0.6C230.4,52.4,230.6,52.9,230.6,53.2z"/>
		<path class="st0" d="M235.1,57.9C235.1,57.9,235.1,57.9,235.1,57.9C235.1,57.9,235.1,57.9,235.1,57.9L235.1,57.9z"/>
		<path class="st0" d="M185.3,57c0,0-0.1-0.1-0.2-0.1c-0.3,0-0.2,0.2-0.3,0.4c-0.1,0.8-0.3,1.6,0.6,2.2c1,0.7,1.8,1.5,2.4,2.6
			c0.2,0.3,0.5,0.9,0.9,0.7c0.5-0.2,0.4-0.9,0.2-1.3C188.1,59.6,186.7,58.3,185.3,57z"/>
		<path class="st0" d="M64.6,94c-1.1-0.9-2.1-2-3-3.2c-0.2-0.2-0.4-0.3-0.6-0.5c-0.4-0.1-0.6,0.1-0.8,0.3c-0.3,0.4-0.1,0.9,0.2,1.1
			c1.2,0.9,1.9,2.2,2.7,3.4c0.3,0.4,0.6,1.1,1.3,0.6C65,95.2,65.3,94.6,64.6,94z"/>
		<path class="st0" d="M290,76.6c-0.7-0.6-1.2-1.4-1.7-2.1c-0.4-0.8-1-1.3-2.1-1.2c-0.3,0.1-1.2,0.1-0.8,0.6c1.1,1.4,2.4,2.7,3.6,4
			c0.4,0.4,1.2,0.2,1.5-0.2C291.2,76.9,290.3,76.9,290,76.6z"/>
		<path class="st0" d="M228.7,95c-1.1-0.6-1.7-1.8-2.7-2.6c-0.4-0.3-0.8-0.6-1.1-0.9c-0.6,0.1-1,0.4-1.2,0.8
			c-0.2,0.3,0.2,0.6,0.5,0.8c1.2,0.6,2.2,1.5,2.9,2.6c0.2,0.2,0.4,0.4,0.6,0.6c0.5,0.3,0.9,0.2,1.3-0.2
			C229.4,95.6,229.2,95.3,228.7,95z"/>
		<path class="st0" d="M63.5,87.3c-0.3-0.3-0.7-0.2-0.9,0.1c-0.2,0.2-0.5,0.5-0.3,0.9c0.1,0.4,0.4,0.7,0.8,1
			c1.1,0.7,2.1,1.6,2.6,2.9c0.1,0.3,0.3,0.7,0.7,0.6c0.5-0.1,0.5-0.6,0.7-1c-0.1-0.2-0.1-0.5-0.2-0.7C65.9,89.6,64.7,88.5,63.5,87.3
			z"/>
		<path class="st0" d="M189,35.1c0.7,0.4,0.9-0.2,0.9-0.7c0-1.4-1.1-2.3-2-3c-0.6-0.5-1.5-0.7-1.9-1.4c-0.4,0.1-0.4,0.3-0.3,0.5
			C186.2,32.4,187.3,34,189,35.1z"/>
		<path class="st0" d="M148,44.9c1,0.4,1.8,1.1,2.2,2.1c0.1,0.2,0.1,0.6,0.5,0.6c0.3-0.1,0.2-0.5,0.2-1.1c-0.1-2.1-2.2-3.1-3.5-4.7
			c-0.3-0.4-1,0.1-0.9,0.7C146.7,43.5,147,44.4,148,44.9z"/>
		<path class="st0" d="M307.2,42.6c-0.7-0.5-1.3-1-2-1.5c-0.4-0.3-0.5-1.1-1-0.8c-0.5,0.3-0.1,1,0.1,1.5c0.3,0.7,0.6,1.2,1.2,1.7
			c1.1,0.8,2.2,1.5,2.8,2.7c0.1,0.2,0.3,0.4,0.5,0.2c0.2-0.1,0.2-0.3,0.4-0.5C308.8,44.6,308.3,43.4,307.2,42.6z"/>
		<path class="st0" d="M150.4,16.4c-1.1-0.8-2.1-1.7-2.6-2.9c-0.1-0.2-0.3-0.5-0.6-0.4c-0.3,0.1-0.2,0.5-0.2,0.5
			c0.1,2.4,1.6,3.7,3.2,4.8c0.3,0.2,0.4,0.7,0.8,0.4c0.2-0.2,0.2-0.6,0.2-1C151.3,17.2,150.9,16.8,150.4,16.4z"/>
		<path class="st0" d="M269,33.2c0,0-0.1-0.1-0.2-0.1c-0.2,0.1-0.2,0.3-0.2,0.5c-0.1,0.7,0,1.4,0.6,1.9c1,0.9,2,1.8,2.7,2.9
			c0.2,0.4,0.6,0.7,1.1,0.4c0.7-0.3,0.3-0.8,0.1-1.3C272.3,35.7,270.2,34.8,269,33.2z"/>
		<path class="st0" d="M68,74.8c-0.5-0.1-0.6,0.3-0.6,0.6c0,0.6,0.3,1.1,0.8,1.4c0.9,0.8,1.7,1.6,2.2,2.7c0.2,0.4,0.4,0.9,0.9,0.7
			c0.3-0.1,0.2-0.6,0.3-0.9C71.6,77.7,69.6,75.1,68,74.8z"/>
		<path class="st0" d="M151.9,103.4L151.9,103.4C151.9,103.4,151.9,103.3,151.9,103.4C151.9,103.4,151.9,103.4,151.9,103.4z"/>
		<path class="st0" d="M148.2,98.9c-0.4-0.8-1.6-0.1-2.3,0c-0.3,0.1-0.2,0.5,0,0.7c1.9,1.4,3.5,3.2,5.9,3.7c0-0.2,0-0.4-0.2-0.6
			C150.6,101.5,149.1,100.6,148.2,98.9z"/>
		<path class="st0" d="M231.9,29.9c-0.2-0.3-0.6-0.3-0.9,0.1c-0.6,0.8-0.5,1.7,0.3,2.1c1.3,0.7,2.2,1.9,3.3,2.8
			c0.2,0.1,0.1,0.7,0.5,0.5c0.3-0.1,0.2-0.5,0.2-0.9c0-0.2,0-0.7-0.2-0.8C233.7,32.6,232.9,31.2,231.9,29.9z"/>
		<path class="st0" d="M260,102.3c-1.7-0.6-2.8-2.1-4.3-2.9c-0.4-0.2-0.8-0.5-1.3-0.5c-0.1,0.1-0.2,0.1-0.3,0.2
			c0.1,0.1,0.1,0.3,0.2,0.3c0.8,0.4,1.1,1.2,1.6,1.9c0.9,1.2,2.2,1.9,3.8,2c0.3,0,0.8,0.3,0.9-0.2
			C260.6,102.8,260.3,102.4,260,102.3z"/>
		<path class="st0" d="M232.4,38.6c0.6,0.6,1.2,1.1,1.8,1.7c0.3,0.3,0.3,1,0.9,0.8c0.2-0.1,0.3-0.9,0.2-1.4
			c-0.1-0.8-0.6-1.5-1.3-2.1c-0.7-0.6-1.5-1.2-2.1-2c-0.2-0.2-0.3-0.5-0.6-0.4c-0.3,0.1-0.2,0.5-0.2,0.7
			C231,37.1,231.6,37.9,232.4,38.6z"/>
		<path class="st0" d="M233.7,65.8c-0.7-0.5-1.3-1.1-2-1.6c-0.2-0.2-0.3-0.6-0.6-0.5c-0.1,0-0.2,0.5-0.1,0.8c0.5,2,2,3.4,3.4,4.7
			c0.1,0.1,0.4,0.2,0.6,0.1c0.3-0.1,0.3-0.4,0.3-0.7C235.1,67.6,234.6,66.6,233.7,65.8z"/>
		<path class="st0" d="M187.6,56.3c0.2,0.2,0.5,0.4,0.7,0.3c0.4-0.2,0.3-0.5,0.3-0.5c0-1-0.2-1.5-0.7-1.8c-0.6-0.5-1.3-1.1-1.9-1.6
			c-0.4-0.3-0.7-1-1.4-0.4c-0.7,0.6-0.3,1.3,0.2,1.8C185.8,54.9,186.7,55.6,187.6,56.3z"/>
		<path class="st0" d="M42.3,99.7c-0.2-0.2-0.7,0-0.9,0.2c-0.3,0.4,0,0.7,0.2,0.9c1,1,2,2,3,2.9c0.4,0.4,1,0.5,1.6,0.5
			c0.3,0,0.5-0.1,0.5-0.5c0-0.1,0-0.1-0.1-0.2C45.4,102,43.4,101.3,42.3,99.7z"/>
		<path class="st0" d="M121,60.7c-0.7-0.8-1.6-1.1-2.5-1.3c-0.4,0-0.7,0-0.8,0.4c-0.1,0.4,0.2,0.7,0.5,0.8c1.4,0.5,2.2,1.7,3,2.8
			c0.2,0.4,0.5,0.7,0.9,0.7c0.3,0,0.7,0.1,1-0.3c0.2-0.3,0-0.5-0.2-0.7C122.3,62.3,121.7,61.5,121,60.7z"/>
		<path class="st0" d="M271.6,26.3c0.7,1.1,1.5,0.2,2.2,0.4c0.4,0.1,0.5-0.2,0.2-0.5c-1.3-1.4-2.6-2.6-4.3-3.2
			c-0.5-0.1-0.7,0.1-0.9,0.3c-0.2,0.4-0.1,0.7,0.2,0.9C269.9,24.9,271,25.4,271.6,26.3z"/>
		<path class="st0" d="M229.7,84.3c-0.4-0.5-0.8-0.2-1.1,0.4c-0.2,0.6,0,1,0.4,1.3c1.1,1,2.2,1.9,3,3.2c0.2,0.3,0.5,0.6,0.9,0.3
			c0.3-0.2,0.4-0.5,0.4-1c0-0.1,0-0.4-0.2-0.5C231.8,86.8,230.7,85.7,229.7,84.3z"/>
		<path class="st0" d="M187.5,39.3c0.3,0.4,0.7,0.9,1.2,0.6c0.5-0.3,0.2-0.9,0-1.4c-0.8-1.6-2.1-2.7-3.3-4.1
			c-0.1-0.1-0.2-0.1-0.4-0.1c-0.4,0.2-0.3,0.6-0.3,0.9C185,37.1,186.6,38,187.5,39.3z"/>
		<path class="st0" d="M188,28.2c1.2,0.6,2.1,1.4,2.5,2.7c0.2,0.5,0.5,1,1.1,0.5c0.4-0.4,0.8-0.8,0.4-1.5c-0.1-0.1-0.2-0.2-0.3-0.3
			c-1.4-0.8-2.4-2.1-3.4-3.4c-0.2-0.2-0.4-0.4-0.7-0.3c-0.5,0.3-0.9,0.7-0.5,1.3C187.2,27.6,187.6,28,188,28.2z"/>
		<path class="st0" d="M36.9,100.2c-0.4,0-0.9-0.1-1.2,0.3c-0.3,0.3-0.1,0.6,0.2,0.7c1.4,0.6,2.2,1.9,3.3,2.9
			c0.3,0.3,0.8,0.6,1.3,0.6c0.3,0,0.5,0,0.4-0.4C40.6,102.9,38.2,100.4,36.9,100.2z"/>
		<path class="st0" d="M66,83.3c-0.5-0.6-1-0.4-1.2,0.3c-0.2,0.6-0.1,1.1,0.3,1.6c1.1,1,2,2.1,2.7,3.4c0.1,0.3,0.3,0.5,0.7,0.3
			c0.3-0.1,0.3-0.4,0.4-0.8c0-0.1,0-0.4-0.1-0.5C67.7,86.4,67.1,84.7,66,83.3z"/>
		<path class="st0" d="M30.3,28.8c0.2,0.6,0.6,1,1.2,0.4c0.5-0.4,0.6-1,0.1-1.4c-1.3-1.1-2.6-2.2-3.7-3.6c-0.1-0.1-0.2-0.1-0.4-0.2
			c-0.4,0.1-0.9,0.2-0.7,0.7c0.1,0.4,0.5,0.8,0.8,1.2C28.3,27.2,29.8,27.5,30.3,28.8z"/>
		<path class="st0" d="M270.2,47.5c0.7,0.5,1.5,1,2.1,1.8c0.2,0.2,0.3,0.6,0.6,0.4c0.2-0.1,0.2-0.5,0.1-0.3c0.2-1.5-0.3-2.2-1.2-2.7
			c-0.9-0.6-1.8-1-2.5-1.8c-0.2-0.2-0.5-0.8-0.8-0.6c-0.5,0.3,0,0.8,0.1,1.1C268.9,46.3,269.5,47,270.2,47.5z"/>
		<path class="st0" d="M234.8,44.3c-0.3-0.3-0.6-0.6-1-0.8c-0.7-0.4-1.2-0.9-1.7-1.5c-0.2-0.3-0.3-0.9-0.8-0.7
			c-0.2,0.1-0.2,0.6-0.3,1c-0.2,0.5,0,1,0.4,1.3c0.8,0.6,1.3,1.5,2,2.1c0.5,0.4,0.9,1.4,1.6,0.8C235.8,45.9,235.3,45,234.8,44.3z"/>
		<path class="st0" d="M205,27c0.3,0,0.5-0.1,0.4-0.5c-0.3-1.2-3.5-3.4-4.8-3.4c-0.4,0-0.5,0.1-0.3,0.5C200.8,25.1,203.4,27,205,27z
			"/>
		<path class="st0" d="M304.4,22.9c-0.7,0.3-0.3,1.2-0.3,1.9c0.1,0.6,0.5,1,0.9,1.4c0.7,0.7,1.6,1.4,2.2,2.3
			c0.1,0.2,0.3,0.5,0.6,0.3c0.1-0.1,0.1-0.4,0.1-0.5c-0.2-1-0.3-2-1.2-2.6c-0.6-0.4-0.8-0.9-1.1-1.5C305.4,23.5,305,22.6,304.4,22.9
			z"/>
		<path class="st0" d="M253.8,102.2c-0.8-1.1-1.8-1.9-3-2.5c-0.4-0.2-0.9-0.5-0.9-0.5c-0.9,0.1-1.1,0.3-0.8,0.7
			c1.3,1.2,2.3,2.7,4.1,3.2c0.4,0.1,0.9,0.3,1.2,0C254.7,102.7,254.1,102.5,253.8,102.2z"/>
		<path class="st0" d="M210.5,99.3c-0.2-0.4-1-0.2-1.3,0.1c-0.4,0.5,0.3,0.6,0.5,0.9c0.7,0.8,1.4,1.6,2.1,2.4c0.6,0.7,1.3,1,2.2,0.9
			c0.3,0,0.5-0.2,0.6-0.5c-0.1-0.1-0.2-0.3-0.3-0.5C213,101.5,211.3,100.9,210.5,99.3z"/>
		<path class="st0" d="M54.9,101.1c-1.2-1-2.5-1.8-3.3-3.2c-0.2-0.2-0.4-0.4-0.8-0.3c-0.1,0-0.3,0.1-0.5,0.2
			c-0.3,0.3-0.1,0.5,0.1,0.7c0.4,0.4,0.8,0.8,1,1.3c0.5,1.3,1.8,1.7,2.8,2.3c0.4,0.2,0.9,0.2,1.1-0.2
			C55.5,101.5,55.1,101.3,54.9,101.1z"/>
		<path class="st0" d="M304.6,28.6c-0.6,0.1-0.5,0.6-0.4,1c0.5,1.9,2.3,2.9,3.5,4.3c0.1,0.2,0.4,0.2,0.5,0c0.1-0.2,0.2-0.4,0.1-0.6
			c-0.6-1.9-2.2-3.1-3.5-4.6C304.7,28.6,304.6,28.6,304.6,28.6z"/>
		<path class="st0" d="M28.4,101.8c-0.9-1-1.4-2.7-3.4-2.5c-0.1,0-0.4-0.3-0.6,0c-0.2,0.3,0.1,0.5,0.3,0.7c0.2,0.3,0.4,0.6,0.7,0.8
			c0.7,0.7,0.9,2,2.1,2.2c0.5,0.1,1.2,0.4,1.6-0.1C29.3,102.6,28.7,102.2,28.4,101.8z"/>
		<path class="st0" d="M194,28.2c0.3,0.3,0.7,0.2,1,0.1c0.3-0.1,0.5-0.2,0.5-0.1c-0.1-0.8-0.4-0.9-0.6-1c-1.2-0.4-1.9-1.3-2.4-2.4
			c-0.3-0.6-0.8-0.9-1.5-0.9c-0.3,0-0.7,0-0.9,0.3c-0.2,0.4,0.1,0.7,0.3,0.9C191.4,26.4,192.8,27.1,194,28.2z"/>
		<path class="st0" d="M100.5,102.2c-0.7-0.5-1.6-0.9-2.1-1.6c-0.8-1.1-1.9-1.3-3.1-1.3c-0.2,0-0.4-0.2-0.5,0c0,0.1,0.2,0.3,0.3,0.5
			c1.2,0.9,2.4,1.9,3.7,2.8c0.6,0.4,1.2,0.7,1.8,1c0.3,0.2,0.7,0.1,0.8-0.4C101.2,102.7,100.9,102.4,100.5,102.2z"/>
		<path class="st0" d="M40.2,26.8c0.3,0.1,0.6,0.1,0.8-0.1c0.1-0.3-0.1-0.4-0.3-0.5c-0.9-0.6-1.4-1.5-2.1-2.3
			c-0.5-0.7-1.3-1.1-2.1-1.3c-0.2,0-0.5-0.1-0.6,0c-0.3,0.2-0.1,0.5,0,0.7C36.8,25.1,38.4,26.1,40.2,26.8z"/>
		<path class="st0" d="M274.9,101.1c-1-0.7-1.8-1.7-2.6-2.7c-0.3-0.4-0.7-0.9-1.3-1c-0.1,0.1-0.3,0.2-0.4,0.3
			c-0.2,0.3-0.1,0.7,0.2,0.9c1.4,1.2,2.7,2.4,3.6,3.9c0.1,0.2,0.4,0.4,0.7,0.2c0.2-0.2,0.3-0.4,0.4-0.7
			C275.5,101.7,275.2,101.3,274.9,101.1z"/>
		<path class="st0" d="M269.1,84c0,0-0.1-0.1-0.2-0.1c-0.3,0.1-0.2,0.3-0.2,0.5c0,0.6,0.3,1.1,0.6,1.5c0.9,1.3,2.2,2.3,3.4,3.2
			c0.1,0.1,0.2,0.2,0.3,0.2c0-0.2,0.1-0.4,0.1-0.6C273,86.2,270.4,85.6,269.1,84z"/>
		<path class="st0" d="M108.7,89.9c0.3,0.3,0.5,0,0.5-0.5c-0.1-1-0.7-1.9-1.7-2.5c-0.9-0.6-1.9-1.2-2.4-2.3
			c-0.1-0.2-0.2-0.6-0.6-0.3c-0.1,0.1,0,0.4,0,0.6C105.1,87.3,107.1,88.5,108.7,89.9z"/>
		<path class="st0" d="M107.1,38c0.6,0.3,1.3,0.5,1.7,0c0.5-0.7-0.2-1.2-0.7-1.5c-1.2-0.7-2.2-1.5-2.8-2.7c-0.1-0.1-0.2-0.2-0.3-0.3
			c-0.3,0-0.2,0.3-0.3,0.5C104.5,35.5,105.5,37.2,107.1,38z"/>
		<path class="st0" d="M150.6,24.5c0.4,0.2,0.7,0.1,0.6-0.4c-0.5-2.2-2.4-3.2-3.8-4.6c0,0-0.1,0-0.2,0c-0.3,0.1-0.3,0.5-0.2,0.7
			C147.5,22.2,148.9,23.5,150.6,24.5z"/>
		<path class="st0" d="M233.9,49.3c-0.6-0.4-1-1.2-1.5-1.7c-0.4-0.4-0.6-1.5-1.2-1.1c-0.5,0.3-0.2,1.3,0.1,1.9
			c0.2,0.5,0.4,0.9,0.8,1.2c1.3,0.6,2,1.9,3,2.9l0,0C235.3,51.2,235.2,50.1,233.9,49.3z"/>
		<path class="st0" d="M151,70.2C151,70.2,151,70.1,151,70.2C151,70.1,151,70.1,151,70.2C151,70.1,151,70.1,151,70.2z"/>
		<polygon class="st0" points="151,70.1 151,70.1 151,70.2 		"/>
		<path class="st0" d="M149.5,66.8c-0.6-0.4-0.9-1-1.4-1.5c-0.4-0.4-0.6-1.3-1.2-0.9c-0.6,0.4-0.1,1.1,0,1.7c0.1,0.6,0.5,1,1.1,1.2
			c0.9,0.5,1.6,1.1,2,2.1c0.2,0.5,0.6,0.7,1.1,0.8C151.1,68.8,150.8,67.6,149.5,66.8z"/>
		<path class="st0" d="M185.8,42.7c1,0.6,1.7,1.4,2.4,2.4c0.1,0.2,0.2,0.7,0.6,0.5c0.4-0.2,0.2-0.6,0.1-0.9
			c-0.3-0.8-0.7-1.5-1.3-2.2c-0.8-1-2-1.6-2.6-2.7c-0.1-0.1-0.2-0.2-0.3-0.2c-0.3,0.1-0.2,0.3-0.1,0.8
			C184.5,41.2,184.8,42.1,185.8,42.7z"/>
		<path class="st0" d="M151,90.9c-0.1-0.2-0.3-0.5-0.6-0.6c-1.2-0.7-2.1-1.6-2.7-2.8c-0.1-0.2-0.2-0.4-0.2-0.4
			c-0.6,0.1-0.8,1.7-0.4,1.9c1.3,0.6,1.6,2.3,2.9,2.8c0.4,0.1,0.6,0.9,1,0.6C151.5,92.1,151.3,91.4,151,90.9z"/>
		<path class="st0" d="M185.8,46.3c-0.1-0.1-0.2-0.2-0.3-0.3c-0.3-0.1-0.4,0.1-0.4,0.3c-0.1,0.4-0.6,1-0.1,1.3
			c1.2,0.9,1.8,2.3,2.9,3.2c0.2,0.1,0.4,0.3,0.6,0.2c0.1-0.1,0.2-0.4,0.2-0.5c0-0.3,0-0.8-0.2-1C187.3,48.6,186.8,47.2,185.8,46.3z"
			/>
		<path class="st0" d="M208.4,103.1c-0.6-1.1-1.7-1.9-2.7-2.6c-0.4-0.2-0.7-0.4-1.2-0.4c-0.1,0-0.3,0.1-0.4,0.2
			c-0.1,0.2,0,0.4,0.1,0.5c1.2,0.8,2.1,2.1,3.2,3c0.4,0.4,1.1,1,1.6,0.4C209.4,103.9,208.6,103.5,208.4,103.1z"/>
		<path class="st0" d="M108.2,16.2c0.3,0.2,0.5,0.6,0.9,0.3c0.3-0.3,0.1-0.7-0.1-1c-0.3-0.5-0.6-0.9-0.9-1.4c-0.8-1.3-2.1-2-2.9-3.2
			C105.1,13.2,106.3,14.9,108.2,16.2z"/>
		<path class="st0" d="M105.1,10.9C105.1,10.9,105.1,10.9,105.1,10.9C105.2,10.9,105.1,10.8,105.1,10.9L105.1,10.9z"/>
		<path class="st0" d="M230.7,23.9c-0.5,0.3,0.2,1.3,0.3,1.9c0.1,0.5,0.5,0.8,0.9,1.1c0.7,0.4,1.3,1,1.9,1.7
			c0.1,0.2,0.3,0.6,0.6,0.4c0.1-0.1,0.1-0.4,0.1-0.6c0.1-1-0.3-1.8-1.2-2.2c-0.6-0.3-1.1-0.6-1.5-1.1
			C231.5,24.7,231.2,23.6,230.7,23.9z"/>
		<path class="st0" d="M185.6,68.8c-0.1-0.1-0.3-0.1-0.3,0c0,0.1,0,0.3,0.1,0.4c0.4,1.6,1,3,2.2,4.2c0.2,0.2,0.5,0.6,0.9,0.4
			c0.3-0.1,0.2-0.5,0.2-0.9c0-0.2,0-0.4-0.1-0.7C188.1,70.5,186.4,70.1,185.6,68.8z"/>
		<path class="st0" d="M31,100.3c-0.5,0-1.1,0-0.7,0.5c1.1,1.2,2.1,2.4,3.6,3.1c0.2,0.1,0.6,0,0.8-0.1c0.3-0.2,0.2-0.5,0-0.7
			C33.6,101.9,32.4,100.8,31,100.3z"/>
		<path class="st0" d="M269.4,38.9c-0.1-0.1-0.2-0.1-0.3-0.2c-0.3,0-0.3,0.2-0.3,0.4c0.1,0.3,0.2,0.7,0.3,1c0.6,1.9,2.6,2.5,3.6,4
			c0.1,0.1,0.3,0.1,0.3,0c0-0.1,0-0.3,0-0.4c-0.2-0.5-0.2-1-0.5-1.4C271.5,41.1,270.1,40.3,269.4,38.9z"/>
		<path class="st0" d="M278.8,27.3c0.3-0.1,0.8,0,1-0.4c0.2-0.5-0.3-0.7-0.6-1c-0.3-0.3-0.6-0.6-1-0.8c-0.8-0.5-1.6-1.1-2.6-1.2
			c0.1,0.9,0.9,1.5,1.3,2.2C277.3,26.8,277.8,27.4,278.8,27.3z"/>
		<path class="st0" d="M190.6,102.1c-0.8-1.2-1.9-1.8-3.2-2.1c-0.2,0-0.5-0.1-0.6,0c-0.2,0.2,0,0.4,0.2,0.5c1.3,1.4,2.3,3.3,4.7,2.9
			c0,0,0,0,0,0C191.3,102.9,191,102.5,190.6,102.1z"/>
		<path class="st0" d="M19.4,97.9c-1-0.7-2.4-0.7-3.3-1.6c0,0-0.2,0.1-0.4,0.1c0,0.1,0,0.3,0.1,0.4c1,1.2,2.1,2.2,3.7,2.6
			c0.2,0.1,0.6,0.2,0.7-0.3C20,98.7,19.8,98.1,19.4,97.9z"/>
		<path class="st0" d="M22.2,67.4c-0.1,0.1-0.2,0.2-0.1,0.3c0.8,1.5,1.9,2.5,3.3,3.3c0.1,0,0.1,0.1,0.2,0.1c0.3,0.1,0.4,0,0.3-0.3
			c0-0.1-0.1-0.1-0.1-0.2C25.6,70,22.5,67.3,22.2,67.4z"/>
		<path class="st0" d="M88.7,101.5c-1.1-0.7-2.4-1.2-3.2-2.3c-0.1-0.1-0.3-0.2-0.4-0.1c-0.2,0.2,0,0.4,0.1,0.5
			c0.5,0.6,1,1.1,1.6,1.7c0.6,0.6,1.2,1.3,2.1,1.7c0.2,0.1,0.4,0.1,0.6,0.1c0,0,0.1-0.2,0.1-0.4C89.3,102.2,89.1,101.8,88.7,101.5z"
			/>
		<path class="st0" d="M270.1,52.4c0.2,0,0.6,0.1,0.8-0.3c0.1-0.3-0.2-0.5-0.4-0.7c-0.3-0.3-0.6-0.5-1-0.8c-0.3-0.3-0.6-1-1.1-0.6
			c-0.4,0.4-0.2,1,0,1.5C268.8,52.3,269.3,52.4,270.1,52.4z"/>
		<path class="st0" d="M27.6,59.1c-1-1.6-2.8-2.2-4.4-3c-0.2-0.1-0.5-0.4-0.7,0c0,0.1,0.2,0.3,0.3,0.5
			C24.2,57.9,25.9,58.5,27.6,59.1L27.6,59.1z"/>
		<path class="st0" d="M36.9,64.2c0.2,0.1,0.3,0.3,0.5,0.2c0,0-0.1-0.4-0.2-0.5c-0.4-0.6-0.9-1.1-1.5-1.4c-1.2-0.6-2.3-1.2-3.5-1.8
			C33.2,62.5,35.2,63.2,36.9,64.2z"/>
		<path class="st0" d="M32.2,60.6L32.2,60.6C32.2,60.6,32.2,60.7,32.2,60.6C32.2,60.7,32.2,60.6,32.2,60.6z"/>
		<path class="st0" d="M68.7,63.6c-0.1,0.1-0.2,0.3-0.2,0.5c-0.1,1.6,0.7,2.6,2.1,3.2c-0.2-1.3-0.7-2.4-1.4-3.4
			C69.1,63.7,68.9,63.5,68.7,63.6z"/>
		<path class="st0" d="M70.6,67.3C70.6,67.3,70.6,67.3,70.6,67.3C70.6,67.3,70.6,67.3,70.6,67.3L70.6,67.3z"/>
		<path class="st0" d="M182.4,99.5c-1.1-0.8-2.4-1.3-3.7-1.6c1,0.9,2.1,1.7,3.1,2.6c0.3,0.2,0.7,0.3,1,0
			C183.1,100.1,182.7,99.7,182.4,99.5z"/>
		<path class="st0" d="M178.6,97.9C178.6,97.9,178.7,97.9,178.6,97.9C178.7,97.9,178.7,97.9,178.6,97.9L178.6,97.9z"/>
		<path class="st0" d="M149.8,95.2c-0.4-0.1-0.3,0.5-0.3,0.8c0,0.8,0.2,1.5,1.1,1.5c0.5,0,0.4-0.5,0.4-0.8
			C150.9,95.9,150.6,95.3,149.8,95.2z"/>
		<path class="st0" d="M305.6,20.5c-0.3-1.3-1.3-2.1-2-3.1c-0.1-0.1-0.3-0.2-0.4-0.4c0,0.2,0,0.4,0.1,0.6
			C303.8,18.7,304.5,19.8,305.6,20.5z"/>
		<path class="st0" d="M305.6,20.5C305.6,20.5,305.6,20.5,305.6,20.5C305.6,20.5,305.6,20.5,305.6,20.5L305.6,20.5z"/>
		<path class="st0" d="M27.4,29c-0.4-0.6-0.5-1.5-1.4-1.6c0,0-0.2,0.2-0.2,0.3c0.2,0.7,0.7,1.1,1.2,1.6c0.1,0.1,0.2,0.2,0.3,0.2
			c0.2,0,0.2-0.1,0.1-0.3C27.4,29.1,27.4,29.1,27.4,29z"/>
		<path class="st0" d="M124.7,60.3c0.1-0.6-0.3-0.9-0.8-1c-0.4,0-0.6,0.1-0.7,0.4c0,0.6,0.3,0.9,0.8,1
			C124.4,60.8,124.7,60.6,124.7,60.3z"/>
		<path class="st0" d="M232.1,21.3C232.1,21.3,232.1,21.3,232.1,21.3C232.1,21.3,232.1,21.3,232.1,21.3L232.1,21.3z"/>
		<path class="st0" d="M230,18.4L230,18.4C230,18.4,230,18.4,230,18.4C230,18.4,230,18.4,230,18.4z"/>
		<path class="st0" d="M232.1,21.3c-0.3-1.2-0.8-2.3-2-2.9C230.3,19.7,230.9,20.7,232.1,21.3z"/>
		<path class="st0" d="M67.2,20.8C67.2,20.8,67.2,20.8,67.2,20.8L67.2,20.8C67.2,20.8,67.2,20.8,67.2,20.8z"/>
		<polygon class="st0" points="151.5,99.2 151.5,99.2 151.5,99.2 		"/>
		<path class="st0" d="M151.7,99.5c-0.1-0.1-0.2-0.2-0.2-0.3C151.6,99.3,151.4,99.5,151.7,99.5z"/>
		<path class="st0" d="M68.8,24.2l-0.3-0.9c0,0,0,0,0,0c0,0,0,0,0,0c0,0,0,0,0,0c-0.1-0.2-0.2-0.5-0.2-0.7c-0.2-0.6-0.3-1.2-0.9-1.7
			c0,0-0.1,0-0.1,0c0,0-0.1,0.1,0,0.1c0.1,0.2,0.1,0.4,0.2,0.6c0.2,0.7,0.3,1.3,0.9,1.8c0,0,0,0,0,0c0,0,0,0,0,0.1c0,0,0,0,0,0
			c0,0,0,0,0,0l0.4,0.9c0,0,0.1,0.1,0.1,0.1c0,0,0,0,0,0C68.7,24.3,68.8,24.3,68.8,24.2C68.8,24.2,68.8,24.2,68.8,24.2z"/>
		<polygon class="st0" points="235.1,58 235.1,57.9 235,57.9 		"/>
		<polygon class="st0" points="235.1,52.6 235.1,52.5 235.1,52.5 		"/>
		<polygon class="st0" points="235.1,52.5 235.1,52.5 235.1,52.5 		"/>
		<polygon class="st0" points="27.7,59.2 27.6,59.1 27.6,59.1 		"/>
		<polygon class="st0" points="68.7,24.3 68.7,24.2 68.7,24.2 		"/>
		<polygon class="st0" points="151.4,99.1 151.5,99.2 151.5,99.2 		"/>
		<polygon class="st0" points="151.5,99.2 151.5,99.2 151.5,99.2 		"/>
		<polygon class="st0" points="32.1,60.6 32.2,60.6 32.2,60.6 		"/>
		<path class="st0" d="M67.2,20.8c-0.1-0.1-0.3-0.3-0.4-0.4l0,0C66.9,20.5,67,20.6,67.2,20.8C67.1,20.8,67.2,20.8,67.2,20.8z"/>
		<polygon class="st0" points="105.1,79 105.1,78.9 105.1,79 105.1,79 105.1,79 		"/>
		<polygon class="st0" points="105.1,79 105.1,79 105.1,79 		"/>
		<path class="st0" d="M153.4,10c-0.1-0.2-0.3-0.3-0.4-0.4c0,0-0.1-0.1-0.1-0.1c0,0,0,0,0,0c0,0,0,0,0,0c0,0,0,0,0-0.1l-0.4-0.4
			c0,0,0,0,0,0L152,8.6c0,0,0,0,0,0c0,0,0,0,0,0l-0.5-0.5c0,0,0,0,0,0c0,0,0,0,0,0c0,0,0,0,0,0c-0.1-0.5-0.3-1.1-0.8-1.6l-0.1-0.1
			c-0.2-0.3-0.5-0.6-0.8-0.6c-0.1,0-0.3,0-0.4,0.1c-0.2,0.1-0.3,0.3-0.2,0.5c0,0.3,0.3,0.5,0.5,0.6c0.1,0.1,0.2,0.1,0.2,0.2
			c0.3,0.3,0.7,0.6,1,0.8c0.1,0.1,0.2,0.2,0.4,0.3c0,0,0,0,0,0c0,0,0,0,0,0.1l0.5,0.5l0.4,0.4c0,0,0,0,0,0c0,0,0,0,0,0l0.4,0.4
			c0,0,0,0,0,0c0,0.2,0.1,0.5,0.3,0.7c0.1,0,0.1,0,0.2,0c0.1,0,0.1,0,0.2-0.1C153.4,10.2,153.4,10.1,153.4,10z"/>
		<path class="st0" d="M191.7,103.5C191.5,103.5,191.7,103.6,191.7,103.5L191.7,103.5z"/>
		<path class="st0" d="M191.7,103.4C191.7,103.4,191.7,103.4,191.7,103.4C191.7,103.5,191.7,103.5,191.7,103.4
			C191.8,103.5,191.8,103.4,191.7,103.4C191.7,103.4,191.7,103.4,191.7,103.4z"/>
		<polygon class="st0" points="191.7,103.4 191.7,103.4 191.7,103.4 		"/>
	</g>
	<g>
		<path class="st1" d="M186.3,86c2.8,0.8,5.7,0.9,8.7,0.9c0.5,0,1.1,0,1.7,0c6.5-0.2,12.7-1.1,17.1-6.8c1.2-1.5,2.3-3,3-4.8
			c0.5-1.3,0.8-2.7,1.3-4c0.8-1.9,0.8-3.8,0.5-5.8c-0.4-2.5-0.4-5.1-0.1-7.6c0.4-2.9,0-5.7-0.3-8.5c-0.1-0.8-0.1-1.5,0-2.3
			c0.6-4.4,0-8.8,0.4-13.2c0-0.4-0.2-0.8-0.2-1.2c-0.1-0.8-0.2-1.5,0-2.3c0.1-0.5,0.5-1,0.3-1.6c-0.9-3.4-1.6-6.8-2.9-10.1
			c-0.4-1-0.9-2-1.9-2.5c-2.5-1.5-4.6-3.4-7.6-4.2c-3.6-0.9-7.3-1.2-11-1.1c-1,0-2.1,0.4-3.1,0.3c-2.3-0.2-4.6,0.3-6.8,0.9
			c-3.4,1-6,3.6-8.1,6.4c-1.6,2.1-2.4,4.6-2.9,7.2c-1.2,5.7-0.2,11.4-0.3,17.1c0,1.5,0.3,3,0.2,4.6c-0.1,1.4-0.4,2.8-0.2,4.2
			c0.6,3.7,0.5,7.4,0.1,11.1c-0.4,3.3,0.8,6.5,0.4,9.8c0,0.2,0.1,0.4,0.2,0.6c0.8,3.1,2.6,5.7,4.5,8.2
			C181.1,83.6,183.5,85.2,186.3,86z M181.9,35.5c0.1-1.9,0.1-3.8,1-5.5c0.1-0.2,0.2-0.5,0.2-0.8c0.8-5.8,4.8-9.2,10.6-9.1
			c2.2,0.1,4.5-0.5,6.7-0.1c2.5,0.4,4.8,1.1,6.1,3.5c0.6,1,1.7,1.4,2.2,2.5c1,2.1,1.7,4.1,1.6,6.4c0,1.3,0,2.7,0,4
			c0,2.5-0.1,4.9,0.3,7.3c0.2,1.4,0.2,2.8-0.4,4.1c-0.3,0.7-0.4,1.5-0.2,2.3c0.9,3.5,0.3,7.1,0.1,10.7c0,0.8-0.3,1.6-0.1,2.3
			c0.5,2.3,0.1,4.4-0.4,6.6c-0.9,4.1-3.3,6.5-7.1,8c-3,1.2-6.1,1.5-9.1,1c-2.7-0.5-5.5-1.5-7.5-3.4c-1.9-1.8-2.2-4.4-2.8-6.9
			c-0.9-3.8-0.4-7.5-0.5-11.2c-0.1-4.9-0.2-9.7-0.3-14.6C182.2,40.2,181.7,37.9,181.9,35.5z"/>
		<path class="st1" d="M131.3,96.1c1.9,0.4,3.7,0.7,5.6-0.2c0.5-0.2,1,0,1.4,0c2.2,0.2,4.5,0.2,6.7,0.1c0.7,0,1.5-0.2,1.7-1
			c0.2-0.7-0.1-1.3-0.6-1.7c-1.6-1.1-1.5-2.6-1.6-4.3c-0.1-3.4,0.2-6.8,0.4-10.2c0.1-1.6,0.1-3.2-0.5-4.7c-0.4-1.1-0.1-2.1,0.2-3.1
			c0.3-0.7,0.5-1.5,0.3-2.3c-0.5-1.6-0.2-3.2-0.3-4.8c-0.1-2.5,0.5-4.9,0.4-7.3c-0.4-5.9-0.3-11.8-0.4-17.7c0-1.1-0.1-2.1,0.2-3.1
			c0.3-1.5,0.2-2.9,0.1-4.4c-0.2-2.2-0.4-4.3,0.1-6.5c0.3-1,0.2-2.1-0.1-3.1c-0.2-0.5-0.2-1.1-0.2-1.7c0.2-3.1-0.1-6.3-0.2-9.4
			c0-2.3,0.2-4.4,1.8-6.2c1.2-1.3,1.1-1.7-0.7-2.2c-0.8-0.2-1.6-0.4-2.5-0.4c-3.1-0.1-6.3,0.5-9.4,0c-2.8-0.4-5.5,0.9-8.3,0
			c-0.7-0.2-1.2,0.3-1.5,0.9c-0.3,0.8-0.2,1.4,0.5,1.8c2.3,1.3,2.3,3.4,1.7,5.5c-0.3,1.3-0.4,2.5-0.2,3.7c0.5,3.3-0.2,6.7,0.3,10
			c0.1,0.5-0.1,1.1-0.2,1.6c-0.2,0.9-0.3,1.8,0,2.7c0.3,1.2,0.1,2.4,0.3,3.5c0.3,2.2-0.8,4.4-0.1,6.7c0.3,0.9-0.6,1.3-1.3,1.1
			c-2.2-0.6-4.3-0.2-6.5-0.3c-2.3,0-4.7-0.7-7.1,0c-1.4,0.4-2.9,0.5-4.3-0.2c-0.7-0.4-1.3,0-2,0.3c-2,0.8-2.9,0.1-2.8-2
			c0.2-2.9,0.7-5.7,0.2-8.6c-0.2-1,0-2.1,0.2-3.1c0.3-1.8,0.4-3.6,0.2-5.4c-0.4-4-0.6-8.1-0.4-12.2c0.1-1.4,0.3-2.4,1.6-3.1
			c0.7-0.4,1.6-0.9,1.4-1.9c-0.3-1.1-1.4-1.2-2.4-1.4c-0.3-0.1-0.7,0-1,0.1c-1.2,0.3-2.5,0.2-3.8,0.2C93.8,2,89.3,2.1,84.9,2.4
			c-3.7,0.3-3.8,0.4-1.5,3.6c0.8,1.1,1.5,2.4,1,3.7c-0.6,1.8-0.7,3.5-0.3,5.3c0.1,0.5,0,1.1-0.2,1.7c-0.2,0.5-0.1,1.1-0.1,1.6
			c0.3,3.6,0.5,7.1,0.6,10.7c0,0.5-0.2,1.1-0.3,1.7c-0.2,1.8-0.3,3.6,0,5.4c0.2,0.9,0.2,1.8-0.1,2.7c-0.6,2.5-0.8,5,0.1,7.4
			c0.4,0.9,0.3,1.9,0.2,2.9c-0.3,2.8-0.9,5.7,0,8.5c0.1,0.3,0,0.6,0,0.8c-1,3.4-0.2,7-0.3,10.4c-0.1,2.4,0,4.9-0.2,7.3
			c-0.1,0.8,0,1.7,0.1,2.5c0.4,2.9,0.5,5.8,0,8.7c-0.1,0.7,0,1.4,0,2.1c0,1.5,0.1,3.1-1.5,4c-0.6,0.3-1.4,0.8-1,1.6
			c0.4,0.8,1.2,0.8,2,0.7c1-0.2,2-0.3,2.9-0.1c2.4,0.4,4.9,0.5,7.3,0.4c2.8-0.1,5.7,0.8,8.5-0.2c0.2-0.1,0.6,0,0.8,0.1
			c0.7,0.2,1.3,0.2,1.6-0.5c0.3-0.7,0.1-1.3-0.5-1.7c-1.5-1-2-2.2-1.3-3.9c0.1-0.3,0-0.7,0-1c-0.1-1.7-0.3-3.4,0.1-5
			c0.1-0.5,0.1-1-0.1-1.4c-0.6-1.5-0.5-3.2-0.5-4.8c0-2.9,0-5.7,0-8.6c0,0,0,0,0,0c0-3.6,0-7.1,0-10.7c0-1.7,0.3-2.1,2-1.7
			c2.1,0.5,4.2,0.3,6.3,0.1c2.4-0.2,4.7,0,7.1-0.2c2.3-0.2,4.6,0,6.9,0.1c1.5,0,2,0.5,1.9,2c0,0.6-0.1,1.3-0.3,1.9
			c-0.3,1.2-0.6,2.3-0.2,3.5c0.2,0.5,0,1-0.1,1.4c-0.2,1-0.3,2.1,0,3.1c0.3,1.1,0.3,2.2,0.3,3.3c-0.1,2.4,0.3,4.8,0,7.3
			c-0.3,3.3,0,6.7,0,10.1c0,1.4-0.3,2.8-1.1,3.9c-1.8,2.6-1.8,2.6,1.3,3.1c0.7,0.1,1.4,0.2,2.1,0C129.4,96,130.3,95.9,131.3,96.1z
			 M127.8,49.4c-3.2-0.1-6.5-0.9-9.8,0c-0.7,0.2-1.4,0.2-2.1,0.2c-6.7-0.7-13.5,0-20.2-0.3c-1.1,0-1.5,0.2-1.4,1.4
			c0.2,5,0.4,10,0.3,15c-0.1,2.7,0.4,5.4,0.1,8.1c-0.3,2.9,0.6,5.7,0,8.4c0,1.4,0.1,2.8,0,4.1c-0.1,0.8-0.1,2-1.4,2
			c-0.9,0-1.2-0.9-1.1-2.3c0.4-4.5,0.5-9-0.1-13.6c0-0.3-0.1-0.7-0.1-1c0.7-2.7-0.2-5.5,0.6-8.1c0.2-0.6,0.2-1.3,0.1-1.9
			c-0.4-6.9-0.3-13.8-0.4-20.7c-0.1-5.3,0-10.5,0.4-15.8c0.2-2.1,0.1-4.2-0.4-6.2c-0.7-2.7,0.1-5.3,0.5-7.9c0.1-0.4,0.3-0.7,0.7-0.7
			c0.4,0,0.6,0.2,0.8,0.6c0.1,0.2,0.2,0.4,0.2,0.6c-0.8,3.1,1.2,5.9,0.4,9.1c-0.6,2.1-0.2,4.5-0.2,6.7c0,5.7-0.1,11.4-0.3,17
			c0,0.6,0,1.1,0,1.7c0.1,1,0.6,1.4,1.7,1.4c5.2,0.3,10.3-0.5,15.5-0.3c3.1,0.1,6.2,0,9.3,0.7c0.1,0,0.3,0.1,0.4,0
			c2.2-0.9,4.4-0.5,6.6-0.5c1.6,0,3.2-0.3,4.8,0.1c1.4,0.3,1.8,0,1.8-1.5c0-1.3,0-2.5-0.2-3.8c-0.3-1.5-0.4-3.1,0.2-4.6
			c0.1-0.4,0.3-0.9,0.2-1.2c-0.8-2.8,0-5.6-0.1-8.3c0-1-0.1-2-0.2-2.9c-0.3-1.7-0.4-3.3,0.1-5c0.3-0.9,0.5-2,0.1-2.9
			c-0.7-1.8-0.3-3.6-0.3-5.4c0-0.4,0.1-0.8,0.3-1.2c0.5-0.9,1.1-1,1.7-0.1c0.9,1.5,0.8,3.1,0.5,4.7c-0.3,1.6-0.3,3.2-0.1,4.8
			c0.3,2.1,0.2,4.2,0,6.3c-0.3,3.6-0.6,7.1,0.1,10.7c0.1,0.6,0.1,1.3-0.1,1.9c-0.1,0.6-0.3,1.3-0.3,1.9c0.6,6.8-0.4,13.7,0,20.5
			c0.2,2.5,0.6,5,0,7.5c-0.3,1.3,0.5,2.5,0.4,3.7c-0.5,4.4,0.2,8.9-0.4,13.4c-0.1,0.6-0.2,1.2-0.4,1.8c-0.1,0.3-0.3,0.7-0.7,0.6
			c-0.4,0-0.6-0.4-0.7-0.7c-0.1-0.5-0.2-1.1-0.2-1.7c0-2.5,0-5-0.2-7.6c-0.2-2,0.5-4,0.2-6.1c-0.6-4.6,0.1-9.1,0.1-13.7
			c0-0.2,0.1-0.4,0-0.6c-0.8-2.3-0.4-4.7-0.1-7c0.2-1.7-0.5-2.2-2.1-1.6C130.8,49.7,129.4,49.5,127.8,49.4z"/>
		<path class="st1" d="M32.8,97c1.5,0.1,3.1,0.2,4.6,0.2c1.7,0,3.5,0.2,5.2-0.3c3.4-1.1,6.8-2.2,9.8-4.1c2.8-1.7,5.5-3.6,7.3-6.5
			c2.6-4.4,4.5-9.1,5.5-14.1c0.6-3.1,0.6-6.2,0.4-9.4c-0.1-1.8-0.7-3.4-1.5-4.9c-1.2-2.2-2.9-3.9-4.2-6c-1.6-2.5-3.7-4.4-6.2-5.8
			c-0.9-0.5-1.8-1.1-2.7-1.7c-4-2.8-8.4-4.7-12.6-7.1c-2.4-1.4-5.2-2.1-7.5-3.7c-0.6-0.4-1.3-0.6-1.9-0.8c-3.5-1-5.2-3.5-5.9-7
			c-0.3-1.8,0.3-3.2,1.7-4.2c3-2,6.5-3.1,10-2.4c4.6,0.9,9,2.5,11.7,6.8c0.7,1.1,1.2,2.2,0.6,3.5c-0.3,0.7-0.6,1.6,0.1,2.1
			c0.6,0.5,1.5,0.2,2.2-0.1c0.2-0.1,0.4-0.1,0.6-0.2c1.3-0.5,2.4-1.1,3.5-1.9c3.3-2.2,6.5-4.6,10.2-6.2c1.6-0.7,1.7-1.2,0.9-2.7
			c-0.3-0.5-0.5-1-0.7-1.5c-1.2-2.8-2.5-5.6-4.7-7.9c-1.3-1.3-2.8-2.5-4-4c-1.6-2-4-2.9-6.1-3.8c-7-3-14.4-2.3-21.8-2.1
			c-5.3,0.1-9.8,3-14.4,5.2c-0.2,0.1-0.4,0.4-0.5,0.6c-1.9,2.2-4.2,4-6,6.4c-0.7,0.9-1.5,1.8-2,2.9c-1.1,2.5-1.4,5.3-1.7,7.9
			C2.3,27.7,3,31.1,4,34.3c1.3,4.3,3.4,7.9,7.2,10.5c2.4,1.7,4.9,3.3,6.8,5.5c0.2,0.3,0.6,0.5,0.9,0.5c2.9,0.8,5.3,2.6,8,3.9
			c1.9,0.9,3.7,2,5.6,2.8c2,0.8,4,1.6,5.7,3.1c1.3,1.2,2.3,2.7,4.1,3.2c0.3,0.1,0.6,0.4,0.7,0.7c0.9,2.1,2,4.1,1.5,6.6
			c-0.3,1.6-1.5,2.5-2,3.9c-0.4,1.1-1.3,1.8-2.5,2c-0.7,0.1-1.4,0.4-2,0.6c-3.6,1.4-7,0.5-10.4-0.5c-0.6-0.2-1.2-0.5-1.6-1
			c-0.6-0.7-1.4-1.1-2.1-1.6c-2.1-1.4-3.3-3.6-4.4-5.8c-0.7-1.4-0.2-2.7,0.5-4c0.2-0.4,0.1-0.8-0.2-1.2c-0.3-0.4-0.7-0.3-1.1-0.1
			c-2.3,1.5-4.6,2.9-6.9,4.4c-0.4,0.3-0.7,0.7-1,1.1c-0.4,0.4-0.8,0.9-1.3,1.1c-2,0.5-3.4,1.9-5.1,2.9c-3.3,2-3.4,2.5-2.2,6.1
			c0.2,0.5,0.3,0.9,0.7,1.3c0.9,0.9,1.3,1.9,1.7,3.1c0.1,0.5,0.4,0.9,0.7,1.3c3.3,3.2,6.6,6.5,10.9,8.5C21.4,95.9,27,96.8,32.8,97z
			 M14.4,81c-0.5-0.9-1.2-1.7-1.9-2.5c-0.4-0.5-0.8-1-1.1-1.5c-0.4-0.5-0.3-1.1,0.3-1.5c0.6-0.5,1.2-0.5,1.7,0.1
			c0.3,0.4,0.6,0.8,0.8,1.2c1,2.1,2.5,3.5,4.4,4.9c3.6,2.5,7.5,4,11.7,5c6.8,1.7,12.8,0.3,18.1-4.2c2.6-2.2,4.2-5.2,5.1-8.3
			c0.5-1.6,0.8-3.5,0.9-5.3c0.2-1.7-0.4-3.3-1.1-4.8c-1.1-2.3-2.9-4.3-4.2-6.6c-0.3-0.5-0.8-0.8-1.2-1.1c-4.2-3.1-8.6-5.9-13.5-7.9
			c-2.2-0.9-4.2-2.5-6.3-3.6c-0.4-0.2-0.7-0.6-1.1-0.7c-3.2-0.6-5.4-2.9-8.1-4.3c-2-1-3.5-2.5-4.4-4.6c-0.1-0.2-0.2-0.4-0.3-0.6
			c-2.6-2.9-3-6.4-2.5-10c0.4-3.1,1.2-6,3.5-8.4c0.5-0.5,1-0.9,1.5-1.5c2.5-2.9,5.9-3.9,9.4-5c4.3-1.3,8.5-0.9,12.8-0.5
			C43.3,10,47.1,12,50,15.6c0.8,1,1.7,1.9,2.7,2.7c0.6,0.5,1.2,1.2,0.5,2c-0.7,0.8-1.5,0.3-2-0.3c-1.6-1.5-3-3.1-4.6-4.6
			c-1.9-1.8-4-3.3-6.7-3.5c-0.7-0.1-1.4-0.3-2-0.6c-0.5-0.2-1.1-0.5-1.6-0.4c-2.7,0.5-5.5,0.3-8.3,0.7c-4.4,0.7-7.6,3.1-10.8,5.6
			c-1.9,1.5-2.8,3.8-3.4,6.3c-0.8,3.1,0.6,5.8,0.8,8.6c0,0.4,0.2,0.7,0.5,0.9c1.3,0.7,2,2,2.9,3c0.7,0.8,1.7,1.4,2.5,2.1
			c2.3,2.2,5.1,3.4,8,4.6c1.6,0.7,3,1.7,4.7,2.3c5.9,2.3,11,5.9,15.7,10c1.1,1,2.1,2,3.2,3c2,1.8,3.4,3.9,3.4,6.7c0,1,0.1,2.1,0.7,3
			c0.2,0.3,0.3,0.7,0.2,1c-1,3.2-0.3,6.8-2.6,9.7c-0.8,1.1-1.3,2.5-2,3.7c-1.3,2.1-2.9,3.9-5.6,4.5c-0.2,0-0.5,0-0.6,0.2
			c-2.2,2.2-5.3,1.9-8,2.7c-0.8,0.2-1.7,0-2.7,0c-1.6,0.1-3.4-0.2-5-0.4c-2.7-0.4-5.3-1.5-7.8-2.6c-1.6-0.7-3-2-4.7-2.7
			C16.1,83.3,15,82.4,14.4,81z"/>
		<path class="st1" d="M187.7,97.1c1.8,0.2,3.6-0.3,5.3,0.6c0.3,0.2,0.8,0,1.2-0.1c0.8-0.2,1.7-0.2,2.5-0.1c3.3,0.5,6.5,0,9.7-1
			c0.6-0.2,1.2-0.3,1.8-0.4c4.3-0.5,8.1-2.5,11.8-4.7c0.5-0.3,0.9-0.7,1.2-1.1c1.2-1.6,2.6-3.1,3.6-4.9c0.7-1.3,1.9-2.3,2.2-3.8
			c0.6-3.3,1.6-6.6,1.5-10c-0.1-3.2,0.1-6.4,0-9.7c0-2.4,0-4.7,0.2-7.1c0.1-1.8,0.4-3.9-0.2-5.7c-0.1-0.5-0.1-1,0-1.4
			c0.4-1.2,0.3-2.3,0.1-3.5c-0.3-1.9-0.6-3.8-0.2-5.6c0.4-1.7,0.4-3.3,0.4-5c-0.1-2.6-1.2-5.2-0.1-7.8c0.1-0.2-0.1-0.5-0.1-0.8
			c-0.6-3.9-1.8-7.6-3.5-11.3c-2-4.4-5.9-6.4-9.4-9c-0.1-0.1-0.3-0.1-0.4-0.1c-1.5-0.1-2.8-0.8-4.2-1.4c-1.4-0.6-2.8-0.9-4.3-0.7
			c-1.5,0.2-2.9-0.2-4.3-0.7c-0.9-0.3-1.9-0.8-2.9-0.6c-2.2,0.6-4.5,0.2-6.7,0.3c-1.3,0-2.7-0.1-4,0c-3.5,0.4-7,0.8-10.2,2.4
			c-2.2,1.1-4.6,1.9-6.3,3.9c-0.3,0.4-0.9,0.6-1.4,0.9c-0.6,0.4-1.2,0.8-1.6,1.4c-1.7,2.4-3.2,4.9-4.1,7.8
			c-1.2,3.5-1.3,7.1-1.6,10.7c-0.3,4.4,0.2,8.8-0.1,13.2c-0.2,4.3-0.2,8.7,0.2,13c0.1,1.5,0.2,3.1-0.1,4.6c-0.3,1.6-0.6,3,0,4.5
			c0.3,0.6,0.1,1.2-0.1,1.8c-0.2,0.5-0.4,0.9-0.3,1.4c1,4.6,0.3,9.4,1.9,13.9c0.9,2.5,1.9,4.9,3.4,7.1c1.6,2.4,4.3,3.5,6.4,5.4
			c0.2,0.2,0.5,0.3,0.8,0.3c1.1,0,2,0.5,3,1C181.8,96,184.6,96.8,187.7,97.1z M172.3,70.6c-0.6-3.8,0.1-7.5-0.1-11.2
			c-0.3-4.5,0.1-8.9,0-13.4c0-1.3-0.1-2.5,0.3-3.8c0.2-0.6,0.2-1.3,0-1.9c-1.3-3.7-0.6-7.3,0-11c0.1-0.4,0.2-0.8,0.2-1.2
			c-0.2-1.9,0.4-3.7,0.7-5.5c0.7-3.9,2.8-6.6,5.9-9c3.2-2.4,6.7-3.9,10.6-4.7c1-0.2,2-0.2,3.4-0.2c2.4,0.7,5.4,0.3,8.3,0.4
			c2.1,0.1,4.1,0.7,6.1,1c2.7,0.4,4.8,2.2,6.9,3.9c1.7,1.4,3.2,3,3.7,5.4c0.4,1.8,1.7,3.4,2,5.5c0.2,1.2,0.5,2.3,0.3,3.5
			c-0.3,1.6,0.4,3.2,0.6,4.8c0.2,1.6,0.3,3.2-0.3,4.8c-0.6,1.6-0.3,3.2-0.1,4.8c0.3,1.9,0.6,3.8,0,5.8c-0.4,1.1-0.3,2.5,0,3.7
			c0.5,2,0,4,0.1,6c0.1,2-0.4,4,0,6c0.1,0.7,0.1,1.4-0.1,2.1c-0.1,0.6-0.3,1.3-0.2,1.9c0.5,2-0.1,3.9-0.9,5.7
			c-0.1,0.2-0.2,0.4-0.2,0.6c0.2,2.7-1.9,4.2-3,6.2c-1.6,3-3.7,5.2-7.1,5.9c-4,3.2-8.9,2.5-13.5,2.5c-2.3,0-4.6-0.3-6.9-0.3
			c-1.4,0-2.8-0.3-3.9-1.2c-0.6-0.4-1.2-0.7-1.9-0.9c-1-0.2-1.9-0.8-2.7-1.5C175.7,81.3,173.3,76.4,172.3,70.6z"/>
		<path class="st1" d="M261.2,95.9c1.8-0.5,3.7-0.9,5.6-0.2c0.6,0.2,1.5,0.3,1.9-0.5c0.4-0.7-0.4-1.1-0.8-1.5
			c-1.8-1.5-2.2-3.4-1.8-5.5c0.3-1.7,0.2-3.3,0.4-5c0.2-3.2-1.1-6.4,0.3-9.5c0.1-0.2-0.2-0.7-0.2-1c-0.4-1.6-0.2-1.7,1.5-1.8
			c2.3-0.1,4.7,0.7,7,0.1c0.4-0.1,1,0.1,1.4,0.2c0.8,0.2,1.5,0.3,2.3,0.2c5.1-0.2,9.7-1.9,14.1-4.4c0.5-0.3,1-0.8,1.4-1.2
			c5.3-5.1,7.3-11.6,7.9-18.6c0-0.4-0.1-0.8-0.2-1.2c-0.2-0.8-0.3-1.5-0.3-2.3c0-4.5,0.2-9,0.1-13.5c-0.1-2.3,1-4.6,0-6.8
			c-0.9-2-0.8-4.2-1.5-6.3c-0.7-2.2-1.6-4.1-3.1-5.8c-0.5-0.5-1-1.1-1.3-1.7c-1-1.9-2.6-3.3-4.5-3.9c-3.4-1-6.6-2.4-10-3.2
			c-1.2-0.3-2.2,0.4-3.3,0.3c-5.1-0.7-10.2-0.3-15.3-0.2c-2.6,0.1-5.2,0.5-7.8,0c-1.7-0.3-3.5-0.6-5.6-0.2c-0.6,0-1.5,0-2.4,0
			c-0.7,0-1.5,0-1.8,0.8c-0.3,1,0.4,1.6,1,2.1c0.2,0.1,0.4,0.2,0.5,0.3c1.2,0.5,1.5,1.4,1.1,2.5c-0.4,1.4-0.4,2.8,0,4.1
			c0.2,0.8,0.3,1.7,0.1,2.5c-0.7,2.5,0,5-0.4,7.5c-0.1,0.4,0,0.9,0.1,1.2c0.4,1.1,0.2,2.2,0.1,3.3c-0.1,1.6-0.7,3.2-0.2,4.8
			c0.6,1.8,0.5,3.5-0.1,5.1c-0.4,1.1-0.6,2.2-0.3,3.3c0.5,2.5,1.3,4.9,0.4,7.4c-0.1,0.4,0,0.8,0.1,1.2c0.2,3.4,0.8,6.8,0,10.2
			c-0.1,0.4,0,0.8,0.1,1.2c0.5,1.7,0.4,3.3,0.1,5c-0.2,1-0.3,2.1-0.1,3.1c0.4,1.9-0.2,3.9,0.1,5.8c0.2,1.1,0.3,2.5,0.1,3.7
			c-0.5,4.2-0.6,8.4,0,12.5c0.2,1.4,0,2.5-1.4,3.2c-0.6,0.3-1.1,0.7-1.4,1.3c-0.3,0.7-0.1,1.3,0.7,1.5c0.5,0.1,1.1,0.1,1.7,0.1
			c2.9,0.2,5.7-0.3,8.6-0.3C257.8,95.8,259.4,96.4,261.2,95.9z M256.2,78.5c-0.6-3.6-0.7-7.2-0.1-10.8c0.1-0.5-0.1-1-0.2-1.4
			c-0.3-0.7-0.3-1.4-0.1-2.1c0.6-2.3,0.5-4.7,0.2-7.1c-0.1-1.4-0.1-2.9,0-4.3c0.1-2-0.1-3.9,0-5.8c0.2-3.9,0.3-7.8-0.1-11.7
			c-0.1-0.6-0.2-1.3-0.1-1.9c0.7-4.4,0.4-8.8-0.1-13.2c-0.3-3.1,0.5-6.1,0.4-9.2c0-1.3,1-1.9,2.7-1.5c2,0.5,3.9,0.5,5.8,0.3
			c4-0.4,8,0.1,11.9,0.1c2.8,0,5.5,0.3,7.8,2c1,0.7,2.3,0.4,3.2,1.4c2.8,2.9,5.5,5.9,5.4,10.4c0,1.5,0.4,3,0.5,4.6
			c0.5,5.7-0.4,11.3-0.2,17c0.1,3.6-0.8,7.1-2.5,10.3c-2.6,5-6.7,7.6-12.4,7.3c-1.1-0.1-2.1,0-3.2,0.1c-2.4,0.2-4.9,0.6-7.3,0.2
			c-1-0.1-2.1-0.1-3.1,0.2c-1.7,0.6-3.3-0.2-5-0.3c-1.7,0-1.6,0-1.6,1.7c0,2.5,0.1,5-0.4,7.4c-0.1,0.6-0.3,1.3-0.1,1.9
			c0.6,1.5,0.5,3,0.4,4.6c-0.1,1.7-0.2,3.5,0.3,5.2c0.3,1.2,0.1,2.5-0.4,3.7c-0.1,0.3-0.4,0.6-0.8,0.6c-0.5,0-0.8-0.3-1-0.7
			c-0.1-0.3-0.2-0.5-0.2-0.8c0.2-2.2-0.9-4.4,0.1-6.6C256.4,79.7,256.3,79,256.2,78.5z"/>
		<path class="st1" d="M258.2,18.1c0,7.3-0.2,14.5,0.1,21.8c0.1,4.5-0.5,8.9-0.2,13.4c0,1.8,0.1,3.6,0,5.5c-0.1,2.4,0.1,2.6,2.4,2.5
			c2,0,3.9-0.3,5.9-0.1c2,0.3,4.1,0.4,6.1,0c1.9-0.4,3.8-0.2,5.6-0.4c4.8-0.4,9-1.7,11.1-6.8c1.4-3.3,3.1-6.4,2.1-10.2
			c-0.1-0.4,0-0.8,0.1-1.2c0.2-0.8,0.3-1.5,0-2.3c-0.2-0.6-0.2-1.2,0-1.9c0.5-1.4,0.3-2.8-0.1-4.1c-0.3-1.1-0.4-2.2,0-3.3
			c0.5-1.5-0.4-10-1.2-11.4c-0.9-1.6-2-3.1-3.3-4.3c-1.7-1.6-3.5-3.1-6.1-2.7c-0.3,0-0.7,0-1-0.1c-4.8-1.3-9.7-0.6-14.6-0.6
			c-1.9,0-3.7,0.2-5.6,0.2c-1.5,0-1.9,0.2-1.6,1.8C258.1,15.3,258.2,16.7,258.2,18.1z M266,39.8c0.6-6.1,0.2-12.2,0.3-18.2
			c0-1.9,0.1-2,1.9-1.7c0.5,0.1,1,0.3,1.4,0.2c2.2-0.8,4.3,0.3,6.4,0.5c4.6,0.6,8.6,6.1,7.2,10.5c-0.4,1.4-0.4,2.8-0.1,4.2
			c0.4,2.9,0.5,5.9,0.2,8.8c-0.3,3.7-1.8,6.9-5.4,8.6c-0.3,0.1-0.7,0.4-1,0.4c-2.7-0.1-5.2,1.2-7.6,1.1c-0.5,0-0.7,0-0.9,0
			c-2.4,0-2.6-0.3-2.3-2.7c0.3-2.5,0.4-5-0.1-7.5C265.8,42.4,265.8,41.1,266,39.8z"/>
	</g>
	<g>
		<path class="st2" d="M3.6,156c0.4-0.4,0.5-0.9,0.5-1.5c-0.3-6.3,0.1-12.7-0.1-19c-0.1-4.2,0.1-8.4,0.1-12.6c0-1.2,0.2-1.5,1.5-1.4
			c4.2,0.2,8.4,0,12.6,0.1c3,0.1,5.8,0.7,8.4,2.3c3.1,2,4.4,5,4.8,8.5c0.2,1.5,0.3,3.1-0.2,4.6c-1.3,4.1-3.8,6.9-8.1,8.1
			c-3.2,0.9-6.4,0.9-9.7,0.8c-1.6-0.1-1.5,0-1.7,1.5c-0.3,2.4,0.2,4.8,0.1,7.3c-0.1,1-0.3,1.5-1.4,1.5c-2.2,0.2-4.5-0.1-6.7,0.1
			C3.6,156.2,3.6,156.1,3.6,156z M15.5,128.5c-0.9,0-1.9,0-2.8,0c-0.8,0-1.1,0.3-1.1,1c0,2.9,0,5.8,0,8.7c0,0.7,0.3,1,1.1,1
			c1.5-0.1,3-0.2,4.6,0c2.8,0.4,5.4-1.3,6.3-4c0.7-2.1-0.7-5.5-2.9-6.1C18.9,128.6,17.2,128.5,15.5,128.5z"/>
		<path class="st2" d="M234.3,139.3c0,3.6,0.1,7.2,0,10.8c0,1.8-0.3,3.7,0,5.5c0.1,0.5-0.1,0.9-0.8,0.8c-2-0.3-4-0.3-6,0.1
			c-0.7,0.1-0.8-0.2-0.8-0.8c0.1-5.4,0.1-10.8,0.1-16.1c0-5.4-0.3-10.9-0.1-16.3c0-1.5,0.2-1.8,1.7-1.6c1.7,0.2,3.4,0.2,5.1,0
			c0.9-0.1,1.4,0.2,2,1c1.5,2.3,2.9,4.7,4.4,7c1.2,1.8,2.2,3.7,3.3,5.5c0.8,1.3,0.9,1.3,1.8,0c2.6-4.2,5.2-8.3,7.6-12.6
			c0.3-0.5,0.6-0.9,1.2-0.8c2.2,0.4,4.4-0.1,6.6-0.1c1.2,0,1.4,0.1,1.2,1.3c-0.4,2.1,0,4.1,0,6.2c0,2.7-0.2,5.4-0.1,8.1
			c0.2,3.9-0.1,7.8,0.1,11.7c0.1,2.4-0.3,4.7,0.1,7.1c0.1,0.4-0.3,0.7-0.7,0.6c-2-0.7-3.9,0.2-5.8,0.1c-1-0.1-1.4-0.3-1.4-1.3
			c0.1-1.5,0.4-3,0.3-4.4c-0.2-3.2-0.1-6.4-0.2-9.5c0-1.7,0.2-3.5,0.2-5.3c0-0.4,0-0.7,0-1.1c0-0.2,0-0.5-0.3-0.5
			c-0.1,0-0.3,0.2-0.4,0.3c-0.8,1.7-2.3,2.9-3.2,4.5c-1.6,2.7-3.6,5.1-5.2,7.8c-0.9,1.5-1.1,1.5-2,0.1c-1.7-2.5-3.3-5.2-5-7.7
			c-1-1.4-1.9-3-2.9-4.4c-0.2-0.2-0.3-0.6-0.7-0.5c-0.3,0.1-0.3,0.5-0.3,0.8C234.3,136.7,234.1,138,234.3,139.3z"/>
		<path class="st2" d="M53.7,135.5c3.4,0.4,6.9-0.3,10.3,0c0.8,0.1,1.2,0.3,1.2,1.1c0.1,1.7-0.3,3.4,0,5.1c0.1,0.5-0.3,0.6-0.7,0.6
			c-3.4-0.2-6.8,0.1-10.2,0.1c-1.2,0-2.5-0.1-3.7-0.2c-1.5-0.2-1.8,0.1-1.8,1.6c0,1.6,0.2,3.2,0,4.8c-0.1,0.8,0.2,1.3,1.1,1.1
			c1.1-0.3,2.2,0.1,3.3,0.2c2.9,0.1,5.8-0.3,8.7-0.3c1.8,0,3.5,0.6,5.3,0.1c0.6-0.2,0.8,0.5,0.7,1c-0.4,1.5-0.3,3.1-0.3,4.6
			c0,1.1-0.5,1.2-1.4,1.2c-3.7,0-7.4,0.1-11.2,0c-1.9-0.1-3.9,0.1-5.8,0.1c-2.5,0-4.9-0.2-7.4,0c-0.6,0.1-0.7-0.4-0.6-0.8
			c0.5-2.5,0-5,0.1-7.4c0.1-2.3-0.3-4.7,0.2-7c0-0.2,0-0.4,0-0.5c-0.6-3.6,0.2-7.3-0.2-11c-0.2-2.2,0.2-4.5-0.1-6.7
			c-0.1-1,0.4-1.5,1.4-1.4c2.2,0.4,4.4,0,6.6,0c2.9,0.1,5.8,0,8.7,0c1.7,0,3.3,0.1,5,0.2c1.1,0,2.1-0.1,3.2-0.2
			c0.9-0.1,1.4,0.2,1.4,1.3c0,1.7-0.2,3.3,0.1,5c0.1,0.6-0.2,0.7-0.7,0.7c-3.5-0.4-7,0.3-10.5-0.1c-2.2-0.2-4.4,0.3-6.6,0.1
			c-0.6-0.1-0.9,0.2-0.9,0.8c0,1.8,0.2,3.5,0,5.3c-0.1,0.8,0.6,0.9,1.2,0.9C51.2,135.5,52.5,135.5,53.7,135.5z"/>
		<path class="st2" d="M199.5,156.7c-3.4,0.2-6.6-1.1-9.5-3.5c-0.5-0.4-1-0.9-1.3-1.4c-1.8-2.9-2.9-5.9-3-9.5c0-4.8,0-9.7-0.1-14.5
			c0-1.6-0.2-3.3,0-5c0.1-1,0.2-1.5,1.3-1.3c1.7,0.3,3.4-0.2,5.1,0c0.8,0.1,1.1,0.3,1.1,1.2c0,3.9,0.2,7.8,0.1,11.7
			c-0.1,3.2,0,6.4,0.3,9.6c0.3,2.7,2,4.2,4.1,5.1c2.4,1.1,4.9,1,7.3-0.5c1.5-0.9,2.4-2.1,2.7-3.8c0.5-2.7,1-5.4,0.4-8.3
			c-0.3-1.6,0.3-3.2,0.1-4.9c-0.3-2.1,0.2-4.2-0.1-6.3c-0.1-0.9-0.1-1.9-0.1-2.8c-0.1-1,0.4-1.2,1.3-1.2c1.9,0,3.8,0.4,5.7,0.1
			c0.6-0.1,1,0.3,0.9,1c-0.1,1.1,0.2,2.2-0.2,3.4c-0.1,0.4-0.2,0.8-0.1,1.2c0.4,2.3-0.1,4.6,0,6.9c0.1,1.5,0.2,2.9,0.3,4.4
			c0.2,2.9-0.1,5.8-0.8,8.4c-1.2,4.3-4,7.7-8.4,9.2C204.7,156.8,202.3,156.8,199.5,156.7z M211.6,139.6c-0.1,0-0.2-0.1-0.2-0.1
			c-0.1,0-0.2,0.1-0.2,0.2c0,0.2,0.2,0.3,0.3,0.2C211.6,139.8,211.6,139.7,211.6,139.6z M204.5,150.9c-0.1,0.1-0.2,0.1-0.1,0.2
			c0,0.1,0.1,0.2,0.2,0.1c0,0,0.1-0.1,0.1-0.1C204.6,151.1,204.5,151,204.5,150.9z"/>
		<path class="st2" d="M303.4,156.3c-0.8,0-1.7,0-2.5,0c-1.6,0-1.6,0-2.2-1.6c-0.6-1.7-1.3-3.3-1.8-5c-0.3-0.9-0.8-1.2-1.7-1.2
			c-4.1,0.1-8.1,0.1-12.2,0.1c-1.1,0-1.6,0.5-2,1.4c-0.7,1.8-1.4,3.6-2.1,5.4c-0.3,0.9-0.8,1.2-1.7,1.2c-1.8-0.1-3.7-0.4-5.5,0
			c-0.8,0.2-1.1-0.2-0.6-1c1.6-2.9,2.4-6,3.8-9c1.8-3.8,3.2-7.8,4.8-11.6c1.8-4.2,3.7-8.3,5.4-12.5c0.4-1.1,1.1-1.4,2.3-1.2
			c1.2,0.3,2.4,0.3,3.7,0c0.9-0.2,1.5,0,2,1.1c1.1,2.4,1.9,4.9,3.1,7.3c0.7,1.3,1.1,2.9,1.7,4.3c2.6,5.9,4.9,11.9,7.7,17.7
			c0.7,1.4,0.9,2.9,1.8,4.2c0.4,0.5-0.2,0.7-0.6,0.7C305.7,156.5,304.6,156.4,303.4,156.3C303.4,156.3,303.4,156.3,303.4,156.3z
			 M289.1,141.8C289.1,141.8,289.1,141.8,289.1,141.8c1.2,0,2.4,0,3.6,0c0.4,0,1,0,0.7-0.6c-1.3-3.3-2.7-6.5-4-9.8
			c-0.1-0.1-0.2-0.2-0.4-0.4c-0.1,0.1-0.2,0.3-0.3,0.4c-1,2.2-1.9,4.4-2.9,6.6c-0.4,0.9-0.7,1.8-1.1,2.6c-0.3,0.7-0.1,1.1,0.7,1.1
			C286.7,141.8,287.9,141.8,289.1,141.8z"/>
		<path class="st2" d="M141.2,156.3c-0.9,0-1.9-0.1-2.8,0c-1,0.1-1.4-0.3-1.7-1.2c-0.6-1.8-1.3-3.5-1.9-5.3
			c-0.3-0.9-0.8-1.3-1.8-1.3c-4,0.1-8,0.1-12,0.1c-1.3,0-1.8,0.6-2.2,1.7c-0.6,1.8-1.4,3.5-2,5.3c-0.3,0.7-0.7,1.1-1.4,1.1
			c-2,0-4-0.4-6,0c-0.5,0.1-0.7-0.4-0.4-0.8c1.4-2.5,2.2-5.4,3.4-8c1.5-3.5,3.4-6.9,4.4-10.6c0.3-1.2,1-2.4,1.6-3.6
			c0.3-0.6,0.7-1.2,0.9-1.9c1-3.2,2.9-6,3.8-9.2c0.3-1,1.1-1.4,2.1-1.2c1.4,0.3,2.7,0.4,4,0c0.8-0.2,1.4,0.1,1.7,1
			c1.8,4.4,3.6,8.7,5.5,13c2.4,5.5,4.6,11,7.2,16.4c0.6,1.3,0.8,2.8,1.7,4.1c0.4,0.6,0,0.8-0.6,0.8
			C143.5,156.5,142.4,156.4,141.2,156.3C141.2,156.3,141.2,156.3,141.2,156.3z M141.8,153.8L141.8,153.8L141.8,153.8z M127,141.9
			C127,141.9,127,141.8,127,141.9c1.1,0,2.3,0,3.4,0c0.7,0,1-0.1,0.7-1c-1.1-3.1-2.4-6.1-3.8-9.1c-0.1-0.2,0-0.7-0.4-0.6
			c-0.3,0-0.3,0.3-0.4,0.5c-0.7,1.6-1.4,3.3-2.1,4.9c-0.5,1.3-1.1,2.5-1.6,3.8c-0.6,1.5-0.5,1.6,1.1,1.6
			C125,141.9,126,141.9,127,141.9z M127,123.7c-0.2,0-0.3,0.1-0.3,0.3c0,0.1,0.2,0.2,0.2,0.2c0.2,0,0.3-0.1,0.3-0.3
			C127.2,123.9,127.1,123.8,127,123.7z M121.8,128.9c-0.1-0.1-0.3-0.1-0.4-0.2c0,0.1-0.1,0.2-0.1,0.3c0.1,0.2,0.2,0.3,0.4,0.2
			C121.8,129.2,121.9,129.1,121.8,128.9z"/>
		<path class="st2" d="M94.2,153.8c-0.3,0.7,0.5,1.8-0.2,2.5c-0.7,0.6-1.7-0.2-2.6-0.1c-1.4,0.1-2.7,0-4.1,0.2
			c-0.8,0.1-1.1-0.2-1.1-1c0.1-0.9,0.4-1.8,0.3-2.6c-0.4-3.8,0.5-7.6-0.2-11.5c-0.2-1.4-0.2-2.8,0.1-4.2c0.2-0.8,0.2-1.7,0.1-2.5
			c-0.1-1.5-0.4-2.9,0-4.4c0.3-1.3-0.1-1.2-1.4-1.5c-2.2-0.4-4.5,0.3-6.7-0.1c-0.2,0-0.4,0-0.5,0c-0.7-0.2-1.6,0.6-2,0
			c-0.3-0.5-0.1-1.4-0.1-2.1c-0.1-1.2,0.2-2.5-0.2-3.7c-0.2-0.8,0.3-1.2,1.1-1.2c4.9,0.1,9.8,0.1,14.7,0.1c1.8,0,3.7-0.1,5.5-0.2
			c2.2-0.1,4.4,0.3,6.6,0c1.2-0.2,1.4,0.1,1.2,1.5c-0.2,1.5-0.4,3.1,0,4.6c0.3,1-0.2,1.2-1.1,1.2c-2.7-0.1-5.3-0.3-8-0.2
			c-1.7,0.1-2.1,0.3-1.7,2c0.3,1.5,0.2,2.9,0,4.4c-0.1,1.4-0.2,2.7,0.1,4.1c0.1,0.5,0.2,1.1,0.1,1.6c-0.3,2.2,0,4.3-0.1,6.4
			C94,149.3,94.5,151.4,94.2,153.8z"/>
		<path class="st2" d="M162.3,135.5c0,4.1,0,8.2,0,12.3c0,1.6,0.1,1.7,1.7,1.7c4.6-0.1,9.2-0.1,13.9-0.1c1.8,0,1.9,0.1,1.9,2
			c0,1.2,0,2.5,0,3.7c0,0.9-0.3,1.3-1.3,1.3c-3.9-0.2-7.8,0.1-11.7,0c-3.8-0.1-7.6,0-11.3,0.1c-0.7,0-0.9-0.2-0.8-0.8
			c0.2-3.7-0.2-7.3,0.2-11c0-0.4,0.1-0.8,0-1.2c-0.3-5.3,0.1-10.5,0-15.8c0-1.5-0.2-3-0.2-4.4c0-1.4,0.3-1.8,1.6-1.6
			c1.6,0.2,3.2,0.2,4.8,0c0.9-0.1,1.3,0.2,1.3,1.2C162.3,127,162.3,131.3,162.3,135.5C162.3,135.5,162.3,135.5,162.3,135.5z
			 M158.1,131.8L158.1,131.8L158.1,131.8z M166,155.3c0.1-0.1,0.3-0.1,0.4-0.2c0.1-0.1-0.1-0.2-0.2-0.1
			C166.1,155,166.1,155.2,166,155.3c0,0.1-0.3,0-0.2,0.3C165.9,155.5,165.9,155.4,166,155.3z M165.3,152.5c-0.3,0-0.6-0.2-0.8,0.1
			c0,0,0,0.1,0,0.1C164.9,152.9,165,152.6,165.3,152.5L165.3,152.5z M169.4,153.7c-0.1-0.2-0.2-0.4-0.4-0.5c-0.2,0-0.3,0.2-0.2,0.4
			c0.1,0.2,0.1,0.5,0.4,0.5C169.3,154,169.4,153.9,169.4,153.7z"/>
	</g>
</g>
</svg>
